<?xml version="1.0" encoding="utf-8"?>
<!-- Generator: Adobe Illustrator 23.0.0, SVG Export Plug-In . SVG Version: 6.00 Build 0)  -->
<svg version="1.1" id="Capa_1" xmlns="http://www.w3.org/2000/svg" xmlns:xlink="http://www.w3.org/1999/xlink" x="0px" y="0px"
	 viewBox="0 0 413 413" style="enable-background:new 0 0 413 413;" xml:space="preserve">
<style type="text/css">
	.st0{fill:#FFFFFF;}
	.st1{fill:#ED7D12;}
</style>
<g>
	<g>
		<path class="st0" d="M135.2,212.8c-3.7,0-6.4-1-7.9-3c-1.5-2-2.3-5.2-2.3-9.5c0-4.3,0.8-7.5,2.3-9.6c1.5-2.1,4.1-3.2,7.9-3.2
			c3.7,0,6.3,1.1,7.9,3.2c1.5,2.1,2.3,5.3,2.3,9.7c0,5.3-1.3,8.9-3.8,10.8l3,4.8L140,218l-3.2-5.3
			C136.5,212.8,136,212.8,135.2,212.8z M131.2,206.6c0.7,1.2,2,1.9,4,1.9c1.9,0,3.3-0.6,4-1.9s1.1-3.4,1.1-6.3s-0.4-5.1-1.1-6.5
			c-0.7-1.3-2-2-4-2c-1.9,0-3.2,0.7-4,2c-0.7,1.3-1.1,3.5-1.1,6.5S130.5,205.4,131.2,206.6z"/>
		<path class="st0" d="M159.8,194.4h4.8v18h-4.8v-1c-1.7,1-3.2,1.4-4.5,1.4c-2.5,0-4.2-0.7-5-2.1c-0.9-1.4-1.3-3.7-1.3-6.9v-9.4h4.8
			v9.5c0,1.8,0.1,3,0.4,3.6c0.3,0.6,1,1,2.1,1c1.1,0,2.1-0.2,3-0.5l0.5-0.1V194.4z"/>
		<path class="st0" d="M173.9,207.9c0.6,0.5,1.4,0.7,2.4,0.7c2.2,0,4.2-0.1,6-0.2l1-0.1l0.1,3.6c-2.8,0.7-5.3,1-7.5,1
			c-2.7,0-4.7-0.7-5.9-2.2c-1.2-1.4-1.8-3.8-1.8-7c0-6.5,2.7-9.7,8-9.7c5.2,0,7.8,2.7,7.8,8.1l-0.4,3.3H173
			C173.1,206.6,173.3,207.4,173.9,207.9z M170.6,189l9.1-3.7l1.4,4.1l-9.4,2.7L170.6,189z M179.2,201.8c0-1.4-0.2-2.4-0.7-3
			c-0.5-0.6-1.3-0.8-2.4-0.8c-1.1,0-1.9,0.3-2.4,0.9s-0.7,1.6-0.7,3H179.2z"/>
		<path class="st0" d="M200.2,207.9c0.6,0.5,1.4,0.7,2.4,0.7c2.2,0,4.2-0.1,6-0.2l1-0.1l0.1,3.6c-2.8,0.7-5.3,1-7.5,1
			c-2.7,0-4.7-0.7-5.9-2.2c-1.2-1.4-1.8-3.8-1.8-7c0-6.5,2.7-9.7,8-9.7c5.2,0,7.8,2.7,7.8,8.1l-0.4,3.3h-10.6
			C199.3,206.6,199.6,207.4,200.2,207.9z M205.5,201.8c0-1.4-0.2-2.4-0.7-3c-0.5-0.6-1.3-0.8-2.4-0.8c-1.1,0-1.9,0.3-2.4,0.9
			s-0.7,1.6-0.7,3H205.5z"/>
		<path class="st0" d="M226.6,198.9c-3-0.4-5.1-0.6-6.2-0.6c-1.2,0-2,0.1-2.3,0.3s-0.5,0.6-0.5,1c0,0.5,0.2,0.8,0.7,1
			s1.7,0.4,3.6,0.8s3.3,0.9,4.1,1.7s1.2,2.1,1.2,3.9c0,3.9-2.4,5.8-7.2,5.8c-1.6,0-3.5-0.2-5.8-0.6l-1.2-0.2l0.1-4
			c3,0.4,5,0.6,6.2,0.6s2-0.1,2.4-0.3c0.4-0.2,0.6-0.6,0.6-1s-0.2-0.8-0.7-1c-0.4-0.2-1.6-0.5-3.5-0.8c-1.9-0.3-3.2-0.8-4.2-1.6
			s-1.4-2.1-1.4-4s0.6-3.3,1.9-4.3c1.3-1,3-1.5,5-1.5c1.4,0,3.3,0.2,5.8,0.7l1.2,0.2L226.6,198.9z"/>
		<path class="st0" d="M254.6,212c-2.5,0.6-4.8,0.8-6.9,0.8s-3.7-0.3-4.9-0.8s-2.2-1.3-2.9-2.4c-0.7-1.1-1.2-2.4-1.4-3.9
			c-0.3-1.5-0.4-3.4-0.4-5.6c0-4.7,0.7-8,2-9.9c1.3-1.9,3.8-2.8,7.4-2.8c2.1,0,4.5,0.3,7.2,1l-0.1,4c-2.4-0.4-4.4-0.5-5.9-0.5
			c-1.6,0-2.7,0.2-3.4,0.6s-1.2,1.2-1.5,2.4c-0.3,1.2-0.5,3.2-0.5,6c0,2.8,0.3,4.8,1,5.9s2,1.6,4,1.6s4.1-0.2,6.3-0.5L254.6,212z"/>
		<path class="st0" d="M258.6,187.9h9.6c2.5,0,4.5,0.5,5.7,1.5c1.3,1,1.9,2.7,1.9,5c0,1.4-0.2,2.5-0.6,3.3c-0.4,0.8-1.1,1.5-2.1,2.1
			c1.1,0.5,1.9,1.1,2.4,2c0.5,0.9,0.8,2.1,0.8,3.6c0,2.4-0.7,4.1-2.1,5.3c-1.4,1.2-3.3,1.7-5.9,1.7h-9.8V187.9z M268,192.2h-4.4v5.8
			h4.4c1.9,0,2.8-1,2.8-2.9C270.8,193.1,269.9,192.2,268,192.2z M268.1,202.2h-4.5v6h4.5c1.1,0,1.9-0.2,2.4-0.6
			c0.5-0.4,0.8-1.2,0.8-2.4C271.3,203.2,270.2,202.2,268.1,202.2z"/>
		<path class="st0" d="M288.8,212.4h-8.2v-24.5h8.2c2.1,0,3.9,0.2,5.2,0.7c1.4,0.4,2.4,1.2,3.2,2.2c0.8,1,1.3,2.2,1.6,3.6
			s0.4,3.2,0.4,5.4s-0.1,4-0.4,5.5c-0.3,1.5-0.8,2.7-1.5,3.9s-1.8,2-3.2,2.5C292.7,212.1,290.9,212.4,288.8,212.4z M294,202.7
			c0-0.8,0.1-1.8,0.1-3.2c0-1.4,0-2.4-0.1-3.3c-0.1-0.8-0.3-1.6-0.7-2.2c-0.4-0.7-0.9-1.1-1.6-1.4s-1.7-0.4-2.9-0.4h-3.3v15.8h3.3
			c1.8,0,3.1-0.5,3.9-1.4C293.4,206,293.8,204.6,294,202.7z"/>
	</g>
	<path class="st1" d="M413,334.6c-0.1-4.3-0.5-8.7-1.3-13c-3.9-21-14.6-38.3-30.1-49.7c-24.9-25-37.2-45.1-37.2-65.3
		c0-20.3,12.3-40.4,37.2-65.4c19.7-14.5,31.4-38.1,31.3-62.7c0.2-12.6-2.7-25.3-8.8-37.3c-3.9-7.6-9.1-14.4-15.2-20.1
		c-8.3-8-18.4-14-30-17.5c-8-2.5-16.4-3.8-25-3.6c-13,0.1-24.9,3.3-35.8,9.2c-8.9,4.5-16.6,10.6-22.8,17.9c-0.3,0.3-0.7,0.7-1,1
		C249.4,55,228,68.4,206.5,68.4C185,68.4,163.6,55,138.7,28.1c-0.3-0.4-0.7-0.7-1-1.1c-11.1-12.9-26.3-21.8-43-25.3
		c-0.5-0.1-0.9-0.2-1.4-0.3c-1-0.2-2-0.4-3-0.5c-0.5-0.1-1.1-0.2-1.6-0.2c-1.1-0.1-2.3-0.3-3.4-0.4c-0.4,0-0.8-0.1-1.2-0.1
		C82.7,0.1,81.3,0,79.9,0c-0.2,0-0.3,0-0.5,0c-1.2,0-2.4,0-3.7,0.1c-0.5,0-1.1,0-1.7,0.1c-0.2,0-0.5,0-0.7,0.1
		c-1.2,0.1-2.4,0.1-3.7,0.3c-18.8,1.9-34.9,9.7-46.9,21.8c-0.1,0.1-0.2,0.2-0.3,0.3c-0.1,0.1-0.2,0.2-0.3,0.4
		C10.2,34.9,2.4,50.9,0.5,69.7c-0.1,1.2-0.2,2.4-0.3,3.7c0,0.2,0,0.5-0.1,0.7c0,0.6,0,1.1-0.1,1.6C0,77,0,78.2,0,79.4
		c0,0.2,0,0.3,0,0.5c0,1.4,0.1,2.8,0.2,4.2c0,0.4,0.1,0.8,0.1,1.2c0.1,1.1,0.2,2.3,0.4,3.4c0.1,0.5,0.2,1.1,0.2,1.6
		c0.2,1,0.3,2,0.5,3c0.1,0.5,0.2,0.9,0.3,1.4c3.5,16.7,12.4,31.9,25.3,43c0.4,0.3,0.7,0.7,1.1,1C55,163.6,68.4,185,68.4,206.5
		C68.4,228,55,249.4,28.1,274.3c-0.4,0.3-0.7,0.7-1,1c-7.3,6.3-13.4,14-17.9,22.9C3.3,309,0.1,320.9,0,333.9c-0.2,8.5,1.1,17,3.6,25
		c3.5,11.6,9.5,21.7,17.5,30c5.7,6.1,12.4,11.3,20.1,15.2c12,6.2,24.7,9.1,37.3,8.8c24.6,0.1,48.3-11.7,62.7-31.3
		c25-25,45.1-37.3,65.4-37.2c20.3,0,40.4,12.2,65.3,37.2c11.4,15.5,28.7,26.2,49.7,30.1c4.3,0.8,8.7,1.2,13,1.3c0.4,0,0.9,0,1.3,0
		c0.4,0,0.9,0,1.3,0c11.7-0.2,23.5-3.1,34.6-8.8c7-3.6,13.2-8.2,18.5-13.6c5.4-5.4,10.1-11.6,13.7-18.6c5.8-11.1,8.6-22.9,8.8-34.6
		c0-0.4,0-0.9,0-1.3C413,335.5,413,335.1,413,334.6 M138.7,285.1c-3.7-4-7.6-7.6-11.6-10.8c-26.6-26.1-39.7-46.9-39.7-67.8
		c0-21.6,13.9-43.1,42.3-70.4c1.1-1,2.1-2.1,3.1-3.2c1.1-1,2.1-2,3.2-3.1c27.3-28.4,48.8-42.4,70.4-42.3c20.9,0,41.7,13.1,67.8,39.7
		c3.2,4,6.8,7.9,10.8,11.6c26.8,24.9,40.3,46.3,40.3,67.8c-0.1,21.5-13.5,42.9-40.3,67.8c-1.9,1.8-3.7,3.6-5.4,5.4
		c-1.8,1.7-3.6,3.5-5.4,5.4c-24.9,26.8-46.3,40.3-67.8,40.3C185,325.4,163.6,311.9,138.7,285.1"/>
	<g>
		<path class="st0" d="M294.8,345.4v-10.8h6.6v1.1H296v3.7h4.4v1H296v3.9h5.4v1.1H294.8z"/>
		<path class="st0" d="M306.4,335.5c-1.6,0-2.3,0.6-2.3,1.8c0,0.7,0.2,1.1,0.5,1.4c0.4,0.2,1.1,0.5,2.2,0.7c1.1,0.2,1.9,0.6,2.3,1
			c0.5,0.4,0.7,1,0.7,1.9c0,2.2-1.2,3.3-3.5,3.3c-0.8,0-1.7-0.1-2.9-0.3l-0.6-0.1l0.1-1c1.4,0.2,2.5,0.3,3.2,0.3
			c1.5,0,2.3-0.7,2.3-2.2c0-0.6-0.2-1-0.5-1.3s-1-0.5-1.9-0.6c-1.2-0.3-2.1-0.6-2.6-1s-0.8-1.1-0.8-2.1c0-1.9,1.2-2.9,3.5-2.9
			c0.8,0,1.7,0.1,2.7,0.2l0.5,0.1l-0.1,1C308,335.6,307,335.5,306.4,335.5z"/>
		<path class="st0" d="M321.3,345.4h-5.9v-10.8h1.2v9.7h4.7V345.4z"/>
		<path class="st0" d="M322.8,345.4v-10.8h6.6v1.1H324v3.7h4.4v1H324v3.9h5.4v1.1H322.8z"/>
		<path class="st0" d="M335.6,341v-1.1h3v5.3c-1.3,0.3-2.5,0.4-3.5,0.4c-1.6,0-2.7-0.5-3.3-1.4s-0.9-2.3-0.9-4.2
			c0-1.9,0.3-3.3,0.9-4.2c0.6-0.9,1.7-1.4,3.2-1.4c1,0,2,0.1,3,0.3l0.5,0.1l0,1c-1.3-0.2-2.4-0.3-3.4-0.3c-1.2,0-2,0.3-2.4,1
			s-0.6,1.8-0.6,3.5c0,1.6,0.2,2.8,0.6,3.5s1.2,1,2.4,1c0.7,0,1.5-0.1,2.2-0.2V341H335.6z"/>
		<path class="st0" d="M340,345.4l3-10.8h2.6l3,10.8h-1.2l-0.8-2.8h-4.6l-0.8,2.8H340z M343.8,335.6l-1.6,5.9h4.1l-1.6-5.9H343.8z"
			/>
		<path class="st0" d="M356.2,345.4h-5.9v-10.8h1.2v9.7h4.7V345.4z"/>
	</g>
	<g>
		<path class="st0" d="M43.9,324.6v-10.8h2.2l4.1,9.7h0.3v-9.7h1.2v10.8h-2.2l-4.2-9.7h-0.3v9.7H43.9z"/>
		<path class="st0" d="M62.5,319.2c0,1.9-0.3,3.3-0.9,4.2c-0.6,0.9-1.7,1.3-3.3,1.3c-1.6,0-2.7-0.4-3.3-1.3s-0.9-2.3-0.9-4.2
			s0.3-3.3,0.9-4.2c0.6-0.9,1.7-1.4,3.3-1.4c1.6,0,2.7,0.5,3.3,1.4C62.2,315.9,62.5,317.3,62.5,319.2z M55.2,319.2
			c0,1.6,0.2,2.7,0.6,3.4s1.2,1,2.4,1s2-0.3,2.4-1s0.6-1.8,0.6-3.4c0-1.6-0.2-2.8-0.6-3.5s-1.2-1.1-2.4-1.1s-2,0.4-2.4,1.1
			C55.4,316.5,55.2,317.6,55.2,319.2z"/>
		<path class="st0" d="M68.2,324.6v-10.8h6.6v1.1h-5.4v3.7h4.4v1h-4.4v3.9h5.4v1.1H68.2z"/>
		<path class="st0" d="M79.7,314.7c-1.6,0-2.3,0.6-2.3,1.8c0,0.7,0.2,1.1,0.5,1.4c0.4,0.2,1.1,0.5,2.2,0.7c1.1,0.2,1.9,0.6,2.3,1
			c0.5,0.4,0.7,1,0.7,1.9c0,2.2-1.2,3.3-3.5,3.3c-0.8,0-1.7-0.1-2.9-0.3l-0.6-0.1l0.1-1c1.4,0.2,2.5,0.3,3.2,0.3
			c1.5,0,2.3-0.7,2.3-2.2c0-0.6-0.2-1-0.5-1.3s-1-0.5-1.9-0.6c-1.2-0.3-2.1-0.6-2.6-1s-0.8-1.1-0.8-2.1c0-1.9,1.2-2.9,3.5-2.9
			c0.8,0,1.7,0.1,2.7,0.2l0.5,0.1l-0.1,1C81.4,314.7,80.3,314.7,79.7,314.7z"/>
	</g>
	<g>
		<path class="st0" d="M47.8,339.7h-2.7v3.6h-1.2v-10.8h4c1.2,0,2,0.3,2.6,0.9c0.6,0.6,0.8,1.4,0.8,2.6
			C51.3,338.4,50.1,339.7,47.8,339.7z M45.1,338.6h2.7c1.5,0,2.2-0.9,2.2-2.6c0-0.8-0.2-1.4-0.5-1.8s-0.9-0.6-1.7-0.6h-2.7V338.6z"
			/>
		<path class="st0" d="M56.1,333.4c-1.6,0-2.3,0.6-2.3,1.8c0,0.7,0.2,1.1,0.5,1.4c0.4,0.2,1.1,0.5,2.2,0.7c1.1,0.2,1.9,0.6,2.3,1
			c0.5,0.4,0.7,1,0.7,1.9c0,2.2-1.2,3.3-3.5,3.3c-0.8,0-1.7-0.1-2.9-0.3l-0.6-0.1l0.1-1c1.4,0.2,2.5,0.3,3.2,0.3
			c1.5,0,2.3-0.7,2.3-2.2c0-0.6-0.2-1-0.5-1.3c-0.3-0.3-1-0.5-1.9-0.6c-1.2-0.3-2.1-0.6-2.6-1s-0.8-1.1-0.8-2.1
			c0-1.9,1.2-2.9,3.5-2.9c0.8,0,1.7,0.1,2.7,0.2l0.5,0.1l-0.1,1C57.7,333.5,56.7,333.4,56.1,333.4z"/>
		<path class="st0" d="M61.6,343.3v-10.8h1.2v10.8H61.6z"/>
		<path class="st0" d="M71.9,343.1c-1.1,0.2-2,0.3-2.9,0.3c-0.9,0-1.5-0.1-2.1-0.4s-0.9-0.6-1.2-1.1c-0.3-0.5-0.5-1.1-0.6-1.7
			c-0.1-0.6-0.2-1.4-0.2-2.4c0-1,0.1-1.8,0.2-2.4s0.3-1.2,0.6-1.7c0.3-0.5,0.7-0.9,1.2-1.1c0.5-0.2,1.2-0.3,2-0.3
			c0.8,0,1.8,0.1,2.9,0.3l0,1c-1.1-0.2-2-0.3-2.8-0.3c-1.1,0-1.9,0.3-2.3,1c-0.4,0.7-0.6,1.8-0.6,3.5c0,0.8,0,1.5,0.1,2
			c0.1,0.5,0.2,1,0.4,1.4c0.2,0.4,0.5,0.7,0.9,0.9s0.9,0.3,1.7,0.3c0.7,0,1.6-0.1,2.6-0.3L71.9,343.1z"/>
		<path class="st0" d="M81.9,338c0,1.9-0.3,3.3-0.9,4.2s-1.7,1.3-3.3,1.3s-2.7-0.4-3.3-1.3s-0.9-2.3-0.9-4.2s0.3-3.3,0.9-4.2
			s1.7-1.4,3.3-1.4s2.7,0.5,3.3,1.4C81.5,334.6,81.9,336.1,81.9,338z M74.6,338c0,1.6,0.2,2.7,0.6,3.4s1.2,1,2.4,1
			c1.2,0,2-0.3,2.4-1s0.6-1.8,0.6-3.4c0-1.6-0.2-2.8-0.6-3.5s-1.2-1.1-2.4-1.1s-2,0.4-2.4,1.1C74.8,335.2,74.6,336.4,74.6,338z"/>
		<path class="st0" d="M82.9,343.3l3-10.8h2.6l3,10.8h-1.2l-0.8-2.8h-4.6l-0.8,2.8H82.9z M86.8,333.5l-1.6,5.9h4.1l-1.6-5.9H86.8z"
			/>
		<path class="st0" d="M99.5,343.1c-1.1,0.2-2,0.3-2.9,0.3s-1.5-0.1-2.1-0.4s-0.9-0.6-1.2-1.1s-0.5-1.1-0.6-1.7
			c-0.1-0.6-0.2-1.4-0.2-2.4c0-1,0.1-1.8,0.2-2.4s0.3-1.2,0.6-1.7c0.3-0.5,0.7-0.9,1.2-1.1c0.5-0.2,1.2-0.3,2-0.3
			c0.8,0,1.8,0.1,2.9,0.3l0,1c-1.1-0.2-2-0.3-2.8-0.3c-1.1,0-1.9,0.3-2.3,1s-0.6,1.8-0.6,3.5c0,0.8,0,1.5,0.1,2
			c0.1,0.5,0.2,1,0.4,1.4c0.2,0.4,0.5,0.7,0.9,0.9c0.4,0.2,0.9,0.3,1.7,0.3c0.7,0,1.6-0.1,2.6-0.3L99.5,343.1z"/>
		<path class="st0" d="M100.4,333.6v-1.1h7.8v1.1h-3.3v9.7h-1.2v-9.7H100.4z"/>
		<path class="st0" d="M109.7,343.3v-10.8h1.2v10.8H109.7z"/>
		<path class="st0" d="M119.7,332.5h1.2l-2.8,10.8h-2.7l-2.8-10.8h1.2l2.5,9.7h0.9L119.7,332.5z"/>
		<path class="st0" d="M130.6,338c0,1.9-0.3,3.3-0.9,4.2c-0.6,0.9-1.7,1.3-3.3,1.3c-1.6,0-2.7-0.4-3.3-1.3s-0.9-2.3-0.9-4.2
			s0.3-3.3,0.9-4.2c0.6-0.9,1.7-1.4,3.3-1.4c1.6,0,2.7,0.5,3.3,1.4C130.3,334.6,130.6,336.1,130.6,338z M123.3,338
			c0,1.6,0.2,2.7,0.6,3.4s1.2,1,2.4,1s2-0.3,2.4-1s0.6-1.8,0.6-3.4c0-1.6-0.2-2.8-0.6-3.5s-1.2-1.1-2.4-1.1s-2,0.4-2.4,1.1
			C123.5,335.2,123.3,336.4,123.3,338z"/>
	</g>
	<g>
		<path class="st0" d="M293.7,59.6v-1.1h7.8v1.1h-3.3v9.7H297v-9.7H293.7z"/>
		<path class="st0" d="M303,69.3V58.5h1.2v10.8H303z"/>
		<path class="st0" d="M306.9,69.3V58.5h6.6v1.1h-5.4v3.7h4.4v1h-4.4v3.9h5.4v1.1H306.9z"/>
		<path class="st0" d="M315.5,69.3V58.5h2.2l4.1,9.7h0.3v-9.7h1.2v10.8h-2.2l-4.2-9.7h-0.3v9.7H315.5z"/>
		<path class="st0" d="M326.1,69.3V58.5h6.6v1.1h-5.4v3.7h4.4v1h-4.4v3.9h5.4v1.1H326.1z"/>
	</g>
	<g>
		<path class="st0" d="M294.8,77.3h3.9c1.1,0,1.9,0.2,2.4,0.7s0.8,1.1,0.8,2.1c0,0.7-0.1,1.2-0.4,1.6c-0.2,0.4-0.6,0.7-1,0.9
			c1.1,0.4,1.7,1.2,1.7,2.5c0,1.1-0.3,1.9-0.9,2.3c-0.6,0.5-1.4,0.7-2.5,0.7h-4.1V77.3z M298.7,78.3H296v3.7h2.8
			c0.7,0,1.2-0.2,1.5-0.5c0.3-0.3,0.5-0.8,0.5-1.4c0-0.6-0.2-1.1-0.5-1.4C299.9,78.5,299.4,78.3,298.7,78.3z M298.8,83.1H296V87h2.9
			c0.7,0,1.2-0.1,1.6-0.4c0.4-0.3,0.6-0.8,0.6-1.6c0-0.4-0.1-0.7-0.2-1c-0.2-0.3-0.4-0.5-0.6-0.6C299.8,83.2,299.3,83.1,298.8,83.1z
			"/>
		<path class="st0" d="M304.4,88.1V77.3h6.6v1.1h-5.4v3.7h4.4v1h-4.4V87h5.4v1.1H304.4z"/>
		<path class="st0" d="M313.1,88.1V77.3h2.2l4.1,9.7h0.3v-9.7h1.2v10.8h-2.2l-4.2-9.7h-0.3v9.7H313.1z"/>
		<path class="st0" d="M323.6,88.1V77.3h6.6v1.1h-5.4v3.7h4.4v1h-4.4V87h5.4v1.1H323.6z"/>
		<path class="st0" d="M332.3,88.1V77.3h6.5v1.1h-5.3v4.2h4.4v1.1h-4.4v4.5H332.3z"/>
		<path class="st0" d="M340.5,88.1V77.3h1.2v10.8H340.5z"/>
		<path class="st0" d="M350.8,87.9c-1.1,0.2-2,0.3-2.9,0.3s-1.5-0.1-2.1-0.4c-0.5-0.2-0.9-0.6-1.2-1.1c-0.3-0.5-0.5-1.1-0.6-1.7
			c-0.1-0.6-0.2-1.4-0.2-2.4c0-1,0.1-1.8,0.2-2.4s0.3-1.2,0.6-1.7c0.3-0.5,0.7-0.9,1.2-1.1c0.5-0.2,1.2-0.3,2-0.3s1.8,0.1,2.9,0.3
			l0,1c-1.1-0.2-2-0.3-2.8-0.3c-1.1,0-1.9,0.3-2.3,1c-0.4,0.7-0.6,1.8-0.6,3.5c0,0.8,0,1.5,0.1,2c0.1,0.5,0.2,1,0.4,1.4
			c0.2,0.4,0.5,0.7,0.9,0.9s0.9,0.3,1.7,0.3s1.6-0.1,2.6-0.3L350.8,87.9z"/>
		<path class="st0" d="M352.8,88.1V77.3h1.2v10.8H352.8z"/>
		<path class="st0" d="M364.7,82.8c0,1.9-0.3,3.3-0.9,4.2s-1.7,1.3-3.3,1.3c-1.6,0-2.7-0.4-3.3-1.3s-0.9-2.3-0.9-4.2
			s0.3-3.3,0.9-4.2c0.6-0.9,1.7-1.4,3.3-1.4c1.6,0,2.7,0.5,3.3,1.4C364.4,79.4,364.7,80.8,364.7,82.8z M357.4,82.7
			c0,1.6,0.2,2.7,0.6,3.4s1.2,1,2.4,1c1.2,0,2-0.3,2.4-1c0.4-0.7,0.6-1.8,0.6-3.4c0-1.6-0.2-2.8-0.6-3.5s-1.2-1.1-2.4-1.1
			s-2,0.4-2.4,1.1C357.7,80,357.4,81.1,357.4,82.7z"/>
		<path class="st0" d="M369.9,78.2c-1.6,0-2.3,0.6-2.3,1.8c0,0.7,0.2,1.1,0.5,1.4c0.4,0.2,1.1,0.5,2.2,0.7c1.1,0.2,1.9,0.6,2.3,1
			c0.5,0.4,0.7,1,0.7,1.9c0,2.2-1.1,3.3-3.4,3.3c-0.8,0-1.7-0.1-2.9-0.3l-0.6-0.1l0.1-1c1.4,0.2,2.5,0.3,3.2,0.3
			c1.5,0,2.3-0.7,2.3-2.2c0-0.6-0.2-1-0.5-1.3s-1-0.5-1.9-0.6c-1.2-0.3-2.1-0.6-2.6-1s-0.8-1.1-0.8-2.1c0-1.9,1.2-2.9,3.5-2.9
			c0.8,0,1.7,0.1,2.7,0.2l0.5,0.1l-0.1,1C371.6,78.3,370.5,78.2,369.9,78.2z"/>
	</g>
	<g>
		<path class="st0" d="M294.8,106.8V96h2.2l3.1,9.1l3.1-9.1h2.2v10.8h-1.2v-9.5h-0.2l-3.1,9.1h-1.3l-3.1-9.1H296v9.5H294.8z"/>
		<path class="st0" d="M307.9,106.8V96h6.6v1.1h-5.4v3.7h4.4v1h-4.4v3.9h5.4v1.1H307.9z"/>
		<path class="st0" d="M320.4,106.8h-3.9V96h3.9c1.8,0,2.9,0.7,3.5,2.1c0.3,0.8,0.5,1.9,0.5,3.2c0,2.7-0.7,4.4-2,5.1
			C321.9,106.7,321.2,106.8,320.4,106.8z M323.2,101.3c0-2.1-0.5-3.4-1.4-3.9c-0.4-0.2-0.8-0.3-1.4-0.3h-2.7v8.7h2.7
			C322.3,105.8,323.2,104.3,323.2,101.3z"/>
		<path class="st0" d="M326.6,106.8V96h1.2v10.8H326.6z"/>
		<path class="st0" d="M337,106.6c-1.1,0.2-2,0.3-2.9,0.3s-1.5-0.1-2.1-0.4c-0.5-0.2-0.9-0.6-1.2-1.1c-0.3-0.5-0.5-1.1-0.6-1.7
			c-0.1-0.6-0.2-1.4-0.2-2.4c0-1,0.1-1.8,0.2-2.4s0.3-1.2,0.6-1.7c0.3-0.5,0.7-0.9,1.2-1.1c0.5-0.2,1.2-0.3,2-0.3s1.8,0.1,2.9,0.3
			l0,1c-1.1-0.2-2-0.3-2.8-0.3c-1.1,0-1.9,0.3-2.3,1c-0.4,0.7-0.6,1.8-0.6,3.5c0,0.8,0,1.5,0.1,2c0.1,0.5,0.2,1,0.4,1.4
			c0.2,0.4,0.5,0.7,0.9,0.9s0.9,0.3,1.7,0.3s1.6-0.1,2.6-0.3L337,106.6z"/>
		<path class="st0" d="M339,106.8V96h1.2v10.8H339z"/>
		<path class="st0" d="M342.8,106.8V96h2.2l4.1,9.7h0.3V96h1.2v10.8h-2.2l-4.2-9.7H344v9.7H342.8z"/>
		<path class="st0" d="M352.4,106.8l3-10.8h2.6l3,10.8h-1.2L359,104h-4.6l-0.8,2.8H352.4z M356.3,97l-1.6,5.9h4.1l-1.6-5.9H356.3z"
			/>
		<path class="st0" d="M368.6,106.8h-5.9V96h1.2v9.7h4.7V106.8z"/>
		<path class="st0" d="M370.1,106.8V96h6.6v1.1h-5.4v3.7h4.4v1h-4.4v3.9h5.4v1.1H370.1z"/>
		<path class="st0" d="M381.7,96.9c-1.6,0-2.3,0.6-2.3,1.8c0,0.7,0.2,1.1,0.5,1.4c0.4,0.2,1.1,0.5,2.2,0.7c1.1,0.2,1.9,0.6,2.3,1
			c0.5,0.4,0.7,1,0.7,1.9c0,2.2-1.2,3.3-3.5,3.3c-0.8,0-1.7-0.1-2.9-0.3l-0.6-0.1l0.1-1c1.4,0.2,2.5,0.3,3.2,0.3
			c1.5,0,2.3-0.7,2.3-2.2c0-0.6-0.2-1-0.5-1.3s-1-0.5-1.9-0.6c-1.2-0.3-2.1-0.6-2.6-1s-0.8-1.1-0.8-2.1c0-1.9,1.2-2.9,3.5-2.9
			c0.8,0,1.7,0.1,2.7,0.2l0.5,0.1l-0.1,1C383.3,97,382.3,96.9,381.7,96.9z"/>
	</g>
	<g>
		<path class="st0" d="M32.6,59.4c-1.6,0-2.3,0.6-2.3,1.8c0,0.7,0.2,1.1,0.5,1.4s1.1,0.5,2.2,0.7c1.1,0.2,1.9,0.6,2.3,1
			c0.5,0.4,0.7,1,0.7,1.9c0,2.2-1.2,3.3-3.5,3.3c-0.8,0-1.7-0.1-2.9-0.3l-0.6-0.1l0.1-1c1.4,0.2,2.5,0.3,3.2,0.3
			c1.5,0,2.3-0.7,2.3-2.2c0-0.6-0.2-1-0.5-1.3s-1-0.5-1.9-0.6c-1.2-0.3-2.1-0.6-2.6-1S29,62.2,29,61.3c0-1.9,1.2-2.9,3.5-2.9
			c0.8,0,1.7,0.1,2.7,0.2l0.5,0.1l-0.1,1C34.2,59.5,33.2,59.4,32.6,59.4z"/>
		<path class="st0" d="M38,69.3V58.5h6.6v1.1h-5.4v3.7h4.4v1h-4.4v3.9h5.4v1.1H38z"/>
		<path class="st0" d="M58.2,64c0,1.9-0.3,3.3-0.9,4.2s-1.7,1.3-3.3,1.3c-1.6,0-2.7-0.4-3.3-1.3s-0.9-2.3-0.9-4.2
			c0-1.9,0.3-3.3,0.9-4.2c0.6-0.9,1.7-1.4,3.3-1.4c1.6,0,2.7,0.5,3.3,1.4C57.9,60.7,58.2,62.1,58.2,64z M50.9,64
			c0,1.6,0.2,2.7,0.6,3.4s1.2,1,2.4,1c1.2,0,2-0.3,2.4-1c0.4-0.7,0.6-1.8,0.6-3.4c0-1.6-0.2-2.8-0.6-3.5s-1.2-1.1-2.4-1.1
			s-2,0.4-2.4,1.1C51.1,61.3,50.9,62.4,50.9,64z"/>
		<path class="st0" d="M60.4,58.5h3.9c1.1,0,1.9,0.2,2.4,0.7c0.5,0.4,0.8,1.1,0.8,2.1c0,0.7-0.1,1.2-0.4,1.6s-0.6,0.7-1,0.9
			c1.1,0.4,1.7,1.2,1.7,2.5c0,1.1-0.3,1.9-0.9,2.3c-0.6,0.5-1.4,0.7-2.5,0.7h-4.1V58.5z M64.3,59.6h-2.7v3.7h2.8
			c0.7,0,1.2-0.2,1.5-0.5c0.3-0.3,0.5-0.8,0.5-1.4c0-0.6-0.2-1.1-0.5-1.4C65.5,59.8,65,59.6,64.3,59.6z M64.4,64.4h-2.8v3.9h2.9
			c0.7,0,1.2-0.1,1.6-0.4c0.4-0.3,0.6-0.8,0.6-1.6c0-0.4-0.1-0.7-0.2-1c-0.2-0.3-0.4-0.5-0.6-0.6C65.4,64.5,64.9,64.4,64.4,64.4z"/>
		<path class="st0" d="M68.7,59.6v-1.1h7.8v1.1h-3.3v9.7H72v-9.7H68.7z"/>
		<path class="st0" d="M78,69.3V58.5h1.2v10.8H78z"/>
		<path class="st0" d="M81.8,69.3V58.5h6.6v1.1H83v3.7h4.4v1H83v3.9h5.4v1.1H81.8z"/>
		<path class="st0" d="M90.5,69.3V58.5h2.2l4.1,9.7h0.3v-9.7h1.2v10.8h-2.2L92,59.6h-0.3v9.7H90.5z"/>
		<path class="st0" d="M101,69.3V58.5h6.6v1.1h-5.4v3.7h4.4v1h-4.4v3.9h5.4v1.1H101z"/>
	</g>
	<g>
		<path class="st0" d="M33.4,88.1h-3.9V77.3h3.9c1.8,0,2.9,0.7,3.5,2.1c0.3,0.8,0.5,1.9,0.5,3.2c0,2.7-0.7,4.4-2,5.1
			C34.9,87.9,34.2,88.1,33.4,88.1z M36.2,82.5c0-2.1-0.5-3.4-1.4-3.9c-0.4-0.2-0.8-0.3-1.4-0.3h-2.7V87h2.7
			C35.3,87,36.2,85.5,36.2,82.5z"/>
		<path class="st0" d="M39.6,88.1V77.3h6.6v1.1h-5.4v3.7h4.4v1h-4.4V87h5.4v1.1H39.6z"/>
		<path class="st0" d="M54.2,88.1h-5.9V77.3h1.2V87h4.7V88.1z"/>
		<path class="st0" d="M65.7,87.9c-1.1,0.2-2,0.3-2.9,0.3s-1.5-0.1-2.1-0.4c-0.5-0.2-0.9-0.6-1.2-1.1c-0.3-0.5-0.5-1.1-0.6-1.7
			c-0.1-0.6-0.2-1.4-0.2-2.4c0-1,0.1-1.8,0.2-2.4s0.3-1.2,0.6-1.7c0.3-0.5,0.7-0.9,1.2-1.1c0.5-0.2,1.2-0.3,2-0.3
			c0.8,0,1.8,0.1,2.9,0.3l0,1c-1.1-0.2-2-0.3-2.8-0.3c-1.1,0-1.9,0.3-2.3,1c-0.4,0.7-0.6,1.8-0.6,3.5c0,0.8,0,1.5,0.1,2
			c0.1,0.5,0.2,1,0.4,1.4c0.2,0.4,0.5,0.7,0.9,0.9s0.9,0.3,1.7,0.3c0.7,0,1.6-0.1,2.6-0.3L65.7,87.9z"/>
		<path class="st0" d="M66.7,88.1l3-10.8h2.6l3,10.8h-1.2l-0.8-2.8h-4.6l-0.8,2.8H66.7z M70.6,78.3L69,84.2h4.1l-1.6-5.9H70.6z
			 M69.3,75.1l3.4-1.6l0.4,1l-3.4,1.4L69.3,75.1z"/>
		<path class="st0" d="M77,88.1V77.3h2.2l4.1,9.7h0.3v-9.7h1.2v10.8h-2.2l-4.2-9.7h-0.3v9.7H77z M82.2,75.5c-0.2,0-0.7-0.1-1.3-0.4
			s-1-0.4-1.2-0.4c-0.2,0-0.5,0.2-1,0.6l-0.2,0.2l-0.3-0.9c0.2-0.2,0.4-0.4,0.7-0.6c0.3-0.2,0.5-0.3,0.8-0.3s0.7,0.1,1.3,0.4
			s1,0.4,1.1,0.4c0.2,0,0.5-0.2,0.9-0.5l0.2-0.2l0.3,0.9C83,75.3,82.6,75.5,82.2,75.5z"/>
		<path class="st0" d="M86.6,88.1l3-10.8h2.6l3,10.8H94l-0.8-2.8h-4.6l-0.8,2.8H86.6z M90.5,78.3l-1.6,5.9h4.1l-1.6-5.9H90.5z"/>
		<path class="st0" d="M96.8,88.1V77.3H99l3.1,9.1l3.1-9.1h2.2v10.8h-1.2v-9.5h-0.2l-3.1,9.1h-1.3l-3.1-9.1H98v9.5H96.8z"/>
		<path class="st0" d="M118.1,82.8c0,1.9-0.3,3.3-0.9,4.2s-1.7,1.3-3.3,1.3c-1.6,0-2.7-0.4-3.3-1.3c-0.6-0.9-0.9-2.3-0.9-4.2
			s0.3-3.3,0.9-4.2c0.6-0.9,1.7-1.4,3.3-1.4c1.6,0,2.7,0.5,3.3,1.4C117.7,79.4,118.1,80.8,118.1,82.8z M110.8,82.7
			c0,1.6,0.2,2.7,0.6,3.4c0.4,0.7,1.2,1,2.4,1c1.2,0,2-0.3,2.4-1c0.4-0.7,0.6-1.8,0.6-3.4c0-1.6-0.2-2.8-0.6-3.5
			c-0.4-0.7-1.2-1.1-2.4-1.1c-1.2,0-2,0.4-2.4,1.1C111,80,110.8,81.1,110.8,82.7z"/>
	</g>
</g>
</svg>
