<?xml version="1.0" encoding="utf-8"?>
<!-- Generator: Adobe Illustrator 23.0.0, SVG Export Plug-In . SVG Version: 6.00 Build 0)  -->
<svg version="1.1" id="Capa_1" xmlns="http://www.w3.org/2000/svg" xmlns:xlink="http://www.w3.org/1999/xlink" x="0px" y="0px"
	 viewBox="0 0 50.7 50.6" style="enable-background:new 0 0 50.7 50.6;" xml:space="preserve">
<style type="text/css">
	.st0{fill-rule:evenodd;clip-rule:evenodd;fill:#17A3C8;}
</style>
<path class="st0" d="M3.8,46.1l2.8-8.4l0-0.1h0.1h1.9h0.1l0,0.1l2.8,8.4l0.1,0.2h-0.3H9.8H9.6l0-0.1l-0.5-1.6H6.4l-0.5,1.6l0,0.1
	H5.7H4H3.7L3.8,46.1z M4.1,49.4l42.4-0.1c0,0,2.7,0.1,2.7-2.4l0-43.3c0-1.3-1-2.2-2.3-2.2L34.8,1.4l-0.2,8.9L47,35.7l-42.7,0
	L16.2,9.9l0.2-8.5l-12.5,0c-1.7,0-2.5,1.2-2.4,2.2l0,43.4C1.6,48.5,3,49.3,4.1,49.4L4.1,49.4z M3.6,50.6l43.7,0
	c1.6,0,3.4-1.3,3.4-4.2l0-43.5c-0.1-1.5-1.5-3-3.7-3L27.9,0v11.6l4.2,9l2.3,5l0.1,0.2l3.8,8.2l-12.5,0H13.4l0.6-1.3l8.4-19.1
	l0.2-0.4l0.8-1.8V0L3.5,0C2,0,0,0.7,0,3.4l0,43.7C0.2,48.7,1.1,50.3,3.6,50.6L3.6,50.6z M7.8,40.2L7,42.8h1.5L7.8,40.2z M12.9,46.1
	v-8.4v-0.2h0.2h3.7c0.2,0,0.4,0,0.6,0.1c0.2,0,0.4,0.1,0.5,0.2c0.2,0.1,0.3,0.2,0.5,0.3c0.1,0.1,0.3,0.2,0.4,0.4
	c0.1,0.1,0.2,0.3,0.3,0.4c0.1,0.2,0.2,0.3,0.2,0.5v0c0.1,0.2,0.1,0.3,0.1,0.5c0,0.2,0,0.4,0,0.6c0,0.4-0.1,0.8-0.2,1.1
	c-0.1,0.3-0.3,0.7-0.5,0.9c-0.2,0.3-0.5,0.5-0.9,0.6c-0.3,0.1-0.8,0.2-1.2,0.2v0H15v2.9v0.2h-0.2h-1.7h-0.2V46.1z M15,41.5h1.4
	c0.2,0,0.3,0,0.4,0c0.1,0,0.2-0.1,0.3-0.1c0.1,0,0.1-0.1,0.2-0.2c0-0.1,0.1-0.1,0.1-0.2c0-0.1,0-0.2,0-0.3c0-0.1,0-0.2,0-0.3
	c0-0.2,0-0.3-0.1-0.5c0-0.1-0.1-0.2-0.2-0.3c-0.1-0.1-0.2-0.1-0.3-0.2c-0.2,0-0.4-0.1-0.7-0.1H15V41.5z M20.5,46.1v-8.4v-0.2h0.2
	h1.7h0.2v0.2v8.4v0.2h-0.2h-1.7h-0.2V46.1z M26,46.1v-6.7h-2.2h-0.2v-0.2v-1.5v-0.2h0.2h6.5h0.2v0.2v1.5v0.2h-0.2h-2.2v6.7v0.2h-0.2
	h-1.7H26V46.1z M31.7,46.1v-8.4v-0.2h0.2h5.9H38v0.2v1.5v0.2h-0.2h-4.1v1.4h3.5v1.7h-3.5v0.2h0v1.7H38h0v1.9h0h-6.1h-0.2L31.7,46.1z
	 M39.9,46.1v-8.4v-0.2h0.2h4.1c0.3,0,0.6,0,0.8,0.1c0.3,0.1,0.5,0.2,0.7,0.3c0.2,0.1,0.4,0.3,0.5,0.4c0.2,0.2,0.3,0.3,0.4,0.5
	c0.1,0.2,0.2,0.4,0.2,0.6c0.1,0.2,0.1,0.4,0.1,0.6l0,0c0,0.2,0,0.3,0,0.5c0,0.2-0.1,0.3-0.1,0.5h0c-0.1,0.2-0.1,0.3-0.2,0.4
	c-0.2,0.3-0.4,0.5-0.8,0.7c1,0.6,0.8,2.1,0.9,3.1c0,0.4,0.2,0.8,0.4,1.1l-2.1,0c-0.3-0.5-0.2-1-0.4-2c-0.2-1.1-0.9-1.4-1.7-1.4l-1,0
	v3.3v0.2h-0.2h-1.6h-0.2V46.1z M41.9,41.2h1.9v0c0.2,0,0.4,0,0.5-0.1c0.1,0,0.2-0.1,0.3-0.2c0.1-0.1,0.1-0.2,0.2-0.3
	c0-0.1,0.1-0.3,0.1-0.4c0-0.1,0-0.2-0.1-0.4c0-0.1-0.1-0.2-0.2-0.3c-0.1-0.1-0.2-0.1-0.3-0.2c-0.1,0-0.3-0.1-0.5-0.1h-1.9V41.2z"/>
</svg>
