<?xml version="1.0" encoding="utf-8"?>
<!-- Generator: Adobe Illustrator 23.0.0, SVG Export Plug-In . SVG Version: 6.00 Build 0)  -->
<svg version="1.1" id="Capa_1" xmlns="http://www.w3.org/2000/svg" xmlns:xlink="http://www.w3.org/1999/xlink" x="0px" y="0px"
	 viewBox="0 0 277.3 73" style="enable-background:new 0 0 277.3 73;" xml:space="preserve">
<style type="text/css">
	.st0{fill:#17A3C8;}
	.st1{fill:#FFFFFF;}
</style>
<g>
	<path class="st0" d="M31.9,43.8v3.1c0,0.4-0.3,0.7-0.7,0.7H19c-0.4,0-0.7,0.3-0.7,0.7v12.2c0,0.4-0.3,0.7-0.7,0.7h-3.2
		c-0.4,0-0.7-0.3-0.7-0.7V48.3c0-0.4-0.3-0.7-0.7-0.7H0.7c-0.4,0-0.7-0.3-0.7-0.7v-3.1c0-0.4,0.3-0.7,0.7-0.7h12.2
		c0.4,0,0.7-0.3,0.7-0.7V30.1c0-0.4,0.3-0.7,0.7-0.7h3.1c0.4,0,0.7,0.3,0.7,0.7v12.2c0,0.4,0.3,0.7,0.7,0.7h12.2
		C31.5,43.1,31.9,43.4,31.9,43.8"/>
	<path class="st0" d="M30,56h-7c-0.1,0-0.2,0.1-0.2,0.2v0.3c0,0.1,0.1,0.2,0.2,0.2h7c0.1,0,0.2-0.1,0.2-0.2v-0.3
		C30.2,56.1,30,56,30,56 M31.3,54.7V55c0,0.1-0.1,0.2-0.2,0.2h-7c-0.1,0-0.2-0.1-0.2-0.2v-0.3c0-0.1,0.1-0.2,0.2-0.2h7
		C31.2,54.4,31.3,54.6,31.3,54.7 M29.1,57.8v0.3c0,0.1-0.1,0.2-0.2,0.2h-6.5c-0.5,0-0.9-0.1-1.3-0.3c-0.8-0.5-1.3-1.3-1.3-2.2
		c0-0.7,0.3-1.3,0.7-1.7c0.2-0.2,0.3-0.3,0.6-0.4c0.2-0.2,0.5-0.2,0.7-0.3c0.1,0,0.2-0.1,0.2-0.2v0c0.1-0.2,0.2-0.5,0.3-0.7
		c0.5-0.8,1.3-1.3,2.2-1.3c0.7,0,1.3,0.2,1.8,0.7c0.1,0.1,0.2,0.3,0.4,0.4l0.1,0.1c0.1,0.1,0.2,0.1,0.3,0.1c0,0,0,0,0.1,0l0,0
		c0.2-0.1,0.4-0.2,0.7-0.2c0.2,0,0.5,0.1,0.6,0.2c0.2,0.1,0.5,0.3,0.6,0.6c0.1,0.1,0.1,0.3,0.2,0.4v0.1c0,0.1-0.1,0.2-0.2,0.2h-0.3
		c-0.1,0-0.2-0.1-0.2-0.2v-0.1c0-0.1,0-0.1-0.1-0.2c-0.1-0.2-0.4-0.3-0.6-0.3c-0.2,0-0.5,0.1-0.6,0.3c0,0.1-0.1,0.1-0.1,0.2
		c0,0.1-0.1,0.2-0.2,0.2h-0.3c-0.1,0-0.2-0.1-0.2-0.2v-0.1c0-0.2-0.1-0.5-0.2-0.6C25.6,52.3,25,52,24.4,52c-0.6,0-1.2,0.3-1.5,0.9
		c-0.2,0.3-0.2,0.6-0.2,0.9v0.1c0,0.1-0.1,0.2-0.2,0.2h-0.2c-0.3,0-0.6,0.1-0.9,0.2c-0.6,0.3-0.9,0.9-0.9,1.5s0.3,1.2,0.9,1.5
		c0.3,0.2,0.6,0.2,0.9,0.2h6.6C29,57.5,29.1,57.6,29.1,57.8 M26.9,52.4L26.9,52.4C26.9,52.5,26.9,52.5,26.9,52.4
		C26.9,52.4,26.9,52.4,26.9,52.4"/>
	<path class="st0" d="M6.3,52.1c-1.5,0-2.8,1.2-2.8,2.8c0,1.5,1.2,2.8,2.8,2.8c1.5,0,2.8-1.2,2.8-2.8C9.1,53.3,7.9,52.1,6.3,52.1
		 M5.9,51.3v-1.8c0-0.1,0.1-0.2,0.2-0.2h0.3c0.1,0,0.2,0.1,0.2,0.2v1.8c0,0.1-0.1,0.2-0.2,0.2H6.2C6.1,51.5,5.9,51.4,5.9,51.3
		 M12,54.7V55c0,0.1-0.1,0.2-0.2,0.2H10c-0.1,0-0.2-0.1-0.2-0.2v-0.3c0-0.1,0.1-0.2,0.2-0.2h1.8C11.9,54.5,12,54.6,12,54.7
		 M6.7,58.5v1.8c0,0.1-0.1,0.2-0.2,0.2H6.2c-0.1,0-0.2-0.1-0.2-0.2v-1.8c0-0.1,0.1-0.2,0.2-0.2h0.3C6.6,58.3,6.7,58.3,6.7,58.5
		 M2.7,55.3H0.9c-0.1,0-0.2-0.1-0.2-0.2v-0.3c0-0.1,0.1-0.2,0.2-0.2h1.8c0.1,0,0.2,0.1,0.2,0.2V55C2.9,55.2,2.8,55.3,2.7,55.3
		 M7.8,51.7c0-0.1,0-0.1,0-0.2L8.8,50c0.1-0.1,0.2-0.2,0.3-0.1l0.2,0.2c0.1,0.1,0.2,0.2,0.1,0.3L8.5,52c0,0.1-0.1,0.1-0.2,0.1
		c0,0-0.1,0-0.1,0l-0.2-0.2C7.9,51.8,7.8,51.8,7.8,51.7 M11.3,57.6l-0.2,0.2c0,0.1-0.1,0.1-0.2,0.1c0,0-0.1,0-0.1,0L9.2,57
		c-0.1-0.1-0.2-0.2-0.1-0.3l0.2-0.2c0.1-0.1,0.2-0.2,0.3-0.1l1.6,0.9C11.3,57.3,11.3,57.5,11.3,57.6 M4.9,58.2l-0.9,1.6
		c0,0.1-0.1,0.1-0.2,0.1c0,0-0.1,0-0.1,0l-0.2-0.2c-0.1,0-0.1-0.1-0.1-0.2c0-0.1,0-0.1,0-0.2l0.9-1.6c0.1-0.1,0.2-0.2,0.3-0.1
		l0.2,0.2C4.9,57.9,4.9,58.1,4.9,58.2 M1.4,52.1l0.2-0.2c0.1-0.1,0.2-0.2,0.3-0.1l1.6,0.9c0.1,0,0.1,0.1,0.1,0.2c0,0.1,0,0.1,0,0.2
		l-0.2,0.2c0,0.1-0.1,0.1-0.2,0.1c0,0-0.1,0-0.1,0l-1.6-0.9C1.4,52.4,1.3,52.2,1.4,52.1 M9.2,52.7l1.6-0.9c0.1-0.1,0.3,0,0.3,0.1
		l0.2,0.2c0.1,0.1,0,0.3-0.1,0.3l-1.6,0.9c0,0-0.1,0-0.1,0c-0.1,0-0.2,0-0.2-0.1L9.2,53C9.1,52.9,9.1,52.8,9.2,52.7 M9.4,59.4
		c0,0.1,0,0.1,0,0.2c0,0.1-0.1,0.1-0.1,0.2l-0.2,0.2c0,0-0.1,0-0.1,0c-0.1,0-0.2,0-0.2-0.1l-0.9-1.6c-0.1-0.1,0-0.3,0.1-0.3l0.2-0.2
		c0.1-0.1,0.3,0,0.3,0.1L9.4,59.4z M3.4,57L1.8,58c0,0-0.1,0-0.1,0c-0.1,0-0.2,0-0.2-0.1l-0.2-0.2c-0.1-0.1,0-0.3,0.1-0.3L3,56.4
		c0.1-0.1,0.3,0,0.3,0.1l0.2,0.2C3.6,56.8,3.5,57,3.4,57 M3.2,50.4c-0.1-0.1,0-0.3,0.1-0.3l0.2-0.2c0.1-0.1,0.3,0,0.3,0.1l0.9,1.6
		c0,0.1,0,0.1,0,0.2c0,0.1-0.1,0.1-0.1,0.2l-0.2,0.2c0,0-0.1,0-0.1,0c-0.1,0-0.2,0-0.2-0.1L3.2,50.4z"/>
	<path class="st0" d="M28.1,37.2v0.3c0,0.5-0.2,1-0.5,1.4c-0.1,0.2-0.3,0.4-0.4,0.6c-0.3,0.3-0.6,0.6-1,0.7
		c-0.4,0.2-0.8,0.2-1.2,0.2c-0.9,0-1.7-0.3-2.2-0.9c-0.2-0.2-0.3-0.3-0.4-0.6c-0.3-0.5-0.5-1-0.5-1.7c0-0.5,0.1-1,0.4-1.5
		c0.1-0.2,0.2-0.5,0.4-0.7c0.1-0.1,0.2-0.3,0.4-0.7c0.1-0.2,0.3-0.4,0.5-0.7c0.2-0.2,0.3-0.6,0.6-0.8c0.1-0.2,0.2-0.4,0.4-0.6v0
		c0.1-0.2,0.2-0.4,0.3-0.6c0.1-0.2,0.1-0.3,0.2-0.4c0.1-0.2,0.3-0.2,0.4,0l0,0.1c0.2,0.5,0.5,1,0.8,1.5c0.8,1.3,1.3,2.1,1.4,2.2
		C27.8,35.7,28.1,36.5,28.1,37.2 M27.2,37.2c0-0.1,0-0.1-0.1-0.2l0,0c0,0-0.1-0.1-0.2-0.1h-0.2c-0.1,0-0.2,0.1-0.2,0.2v0.1
		c-0.1,0.9-0.7,1.5-1.6,1.6h0c-0.1,0-0.2,0.1-0.2,0.2v0.2c0,0.1,0.1,0.2,0.1,0.2c0,0,0.1,0,0.1,0c0.6,0,1-0.2,1.5-0.6
		c0.1-0.1,0.2-0.2,0.3-0.3C27,38.2,27.2,37.7,27.2,37.2"/>
	<path class="st0" d="M7.7,31.1l4,8.7c0.1,0.2-0.1,0.4-0.2,0.4H1.6c-0.2,0-0.3-0.2-0.3-0.4L4,33c0.1-0.2,0.3-0.2,0.5-0.1l0.9,0.9
		c0.1,0.2,0.4,0.1,0.5-0.1L7.2,31C7.3,30.9,7.6,30.9,7.7,31.1 M7.1,35.6c0.1,0.1,0.2,0.2,0.3,0.2c0.2,0.1,0.3,0,0.4-0.1
		c0.3-0.2,0.8-0.4,0.6-0.9c-0.2-0.6-0.6-1.4-0.7-1.9c-0.1-0.2-0.4-0.3-0.5,0c-0.4,0.7-0.7,1.6-1.1,2.3c-0.1,0.2-0.3,0.2-0.5,0.1
		C5.3,35,5,34.7,4.8,34.5c-0.1-0.1-0.4-0.1-0.4,0.1c-0.6,1.5-0.7,1.6,0.2,2.2c0.1,0.1,0.3,0.1,0.4-0.1c0.1-0.2,0.3-0.3,0.4-0.5
		c0.1-0.1,0.3-0.1,0.4,0c0.1,0.1,0.2,0.2,0.2,0.2c0.1,0.1,0.3,0.1,0.4-0.1c0.1-0.2,0.2-0.4,0.4-0.6C6.8,35.5,6.9,35.5,7.1,35.6"/>
	<path class="st1" d="M59,35.5c0-0.2-0.2-0.2-0.3-0.2h-6.9c-0.2,0-0.3,0.1-0.3,0.2l-6.5,20.6c-0.1,0.2,0.1,0.5,0.3,0.5h5.2
		c0.2,0,0.3-0.1,0.3-0.2l0.7-2.7c0-0.2,0.2-0.2,0.3-0.2h6.8c0.2,0,0.3,0.1,0.3,0.2l0.7,2.7c0,0.2,0.2,0.2,0.3,0.2h5.2
		c0.2,0,0.4-0.2,0.3-0.5L59,35.5z M57.1,48.7h-3.7c-0.2,0-0.4-0.2-0.3-0.4l1.9-6.8c0.1-0.3,0.6-0.3,0.7,0l1.9,6.8
		C57.5,48.5,57.3,48.7,57.1,48.7 M86.7,35.3h-5.4c-0.2,0-0.3,0.2-0.3,0.3v14c0,1.4-0.9,2.2-3.2,2.2c-2.3,0-3.2-0.7-3.2-2.2v-14
		c0-0.2-0.2-0.3-0.3-0.3h-5.4c-0.2,0-0.3,0.2-0.3,0.3v14.7c0,3.3,2,6.7,9.2,6.7c7.2,0,9.2-3.4,9.2-6.7V35.6
		C87,35.4,86.9,35.3,86.7,35.3 M108.2,49.9c-0.1-0.2-0.1-0.4,0.1-0.5c1.7-1.3,2.3-2.6,2.3-4.9v-2.9c0-4.1-1.9-6.4-7.8-6.4h-9.8
		c-0.2,0-0.3,0.2-0.3,0.3v20.6c0,0.2,0.2,0.3,0.3,0.3h5.4c0.2,0,0.3-0.2,0.3-0.3v-5c0-0.2,0.2-0.3,0.3-0.3h3c0.1,0,0.2,0.1,0.3,0.2
		l3.6,5.4c0.1,0.1,0.2,0.2,0.3,0.2h6c0.3,0,0.4-0.3,0.3-0.6L108.2,49.9z M104.7,44.3c0,1.2-0.6,1.8-2.1,1.8H99
		c-0.2,0-0.3-0.2-0.3-0.3v-5.3c0-0.2,0.2-0.3,0.3-0.3h3.6c1.5,0,2.1,0.6,2.1,1.8V44.3z M125,34.9c-6.7,0-9.4,3.3-9.4,6.9v8.3
		c0,3.7,2.7,6.9,9.4,6.9c6.7,0,9.4-3.3,9.4-7v-8.3C134.3,38.1,131.6,34.9,125,34.9 M128.3,49.3c0,1.5-1,2.4-3.3,2.4
		c-2.3,0-3.3-0.9-3.3-2.4v-6.8c0-1.5,1-2.4,3.3-2.4c2.3,0,3.3,0.9,3.3,2.4V49.3z M155.1,49.9c-0.1-0.2-0.1-0.4,0.1-0.5
		c1.7-1.3,2.3-2.6,2.3-4.9v-2.9c0-4.1-1.9-6.4-7.8-6.4h-9.8c-0.2,0-0.3,0.2-0.3,0.3v20.6c0,0.2,0.2,0.3,0.3,0.3h5.4
		c0.2,0,0.3-0.2,0.3-0.3v-5c0-0.2,0.2-0.3,0.3-0.3h3c0.1,0,0.2,0.1,0.3,0.2l3.6,5.4c0.1,0.1,0.2,0.2,0.3,0.2h6
		c0.3,0,0.4-0.3,0.3-0.6L155.1,49.9z M151.6,44.3c0,1.2-0.6,1.8-2.1,1.8h-3.6c-0.2,0-0.3-0.2-0.3-0.3v-5.3c0-0.2,0.2-0.3,0.3-0.3
		h3.6c1.5,0,2.1,0.6,2.1,1.8V44.3z M182.5,56.2L176,35.5c0-0.2-0.2-0.2-0.3-0.2h-7c-0.2,0-0.3,0.1-0.3,0.2l-6.5,20.6
		c-0.1,0.2,0.1,0.5,0.3,0.5h5.2c0.2,0,0.3-0.1,0.3-0.2l0.7-2.7c0-0.2,0.2-0.2,0.3-0.2h6.8c0.2,0,0.3,0.1,0.3,0.2l0.7,2.7
		c0,0.2,0.2,0.2,0.3,0.2h5.2C182.4,56.6,182.6,56.4,182.5,56.2 M174,48.7h-3.7c-0.2,0-0.4-0.2-0.3-0.4l1.9-6.8
		c0.1-0.3,0.6-0.3,0.7,0l1.9,6.8C174.4,48.5,174.3,48.7,174,48.7"/>
	<path class="st1" d="M182.6,35.1c1,0,1.8,0.8,1.8,1.8c0,1-0.8,1.8-1.8,1.8c-1,0-1.8-0.8-1.8-1.8C180.8,35.9,181.6,35.1,182.6,35.1
		 M182.6,38.3c0.8,0,1.5-0.7,1.5-1.5c0-0.8-0.7-1.5-1.5-1.5c-0.8,0-1.5,0.7-1.5,1.5C181.1,37.7,181.8,38.3,182.6,38.3 M182.1,37.9
		h-0.3v-2.1h0.8c0.3,0,0.7,0.1,0.7,0.6c0,0.4-0.2,0.6-0.5,0.6l0.5,0.8h-0.3l-0.5-0.8H182L182.1,37.9L182.1,37.9z M182.7,36.8
		c0.2,0,0.4,0,0.4-0.4s-0.2-0.4-0.4-0.4h-0.6v0.7H182.7z"/>
	<polygon class="st0" points="276.9,0 276.9,0 208.7,0 203.2,0 203.2,65.8 203.2,73 277.3,73 277.3,0 	"/>
	<rect x="219.5" y="48.6" class="st1" width="1.6" height="8.1"/>
	<path class="st1" d="M228,56.6c-0.5,0.1-1.6,0.3-2.4,0.3c-2.5,0-3.1-1.4-3.1-4.2c0-3.1,0.7-4.2,3.1-4.2c0.8,0,1.9,0.2,2.4,0.3
		l0,1.3c-0.5-0.1-1.6-0.2-2.1-0.2c-1.3,0-1.6,0.4-1.6,2.7c0,2.2,0.3,2.7,1.7,2.7c0.5,0,1.6-0.1,2-0.2L228,56.6z"/>
	<path class="st1" d="M234.5,56.6c-0.5,0.1-1.6,0.3-2.4,0.3c-2.5,0-3.1-1.4-3.1-4.2c0-3.1,0.7-4.2,3.1-4.2c0.8,0,1.9,0.2,2.4,0.3
		l0,1.3c-0.5-0.1-1.5-0.2-2.1-0.2c-1.3,0-1.7,0.4-1.7,2.7c0,2.2,0.3,2.7,1.7,2.7c0.5,0,1.6-0.1,2-0.2L234.5,56.6z"/>
	<polygon class="st1" points="236,56.8 236,48.5 236.9,48.5 236.9,55.9 240.5,55.9 240.5,56.8 	"/>
	<path class="st1" d="M243.2,48.5h2l2.3,8.3h-0.9l-0.6-2.1h-3.5l-0.6,2.1H241L243.2,48.5z M242.7,53.8h3.1l-1.3-4.5h-0.6L242.7,53.8
		z"/>
	<path class="st1" d="M251.8,48.5c1.6,0,2.5,0.6,2.5,2.1c0,1.1-0.4,1.6-1.1,1.9c0.7,0.3,1.3,0.8,1.3,1.9c0,1.7-1,2.3-2.6,2.3h-3.1
		v-8.3H251.8z M249.7,49.3v2.9h2.1c1,0,1.5-0.5,1.5-1.5c0-1-0.5-1.4-1.6-1.4H249.7z M249.7,53v3h2.2c1,0,1.7-0.3,1.7-1.5
		c0-1.3-1.1-1.4-1.7-1.4H249.7z"/>
	<path class="st1" d="M260.8,49.4c0,0-1.7-0.2-2.3-0.2c-1.2,0-1.8,0.4-1.8,1.3c0,1.1,0.6,1.3,2,1.6c1.6,0.4,2.4,0.8,2.4,2.2
		c0,1.8-1,2.5-2.6,2.5c-1,0-2.6-0.3-2.6-0.3l0.1-0.8c0,0,1.6,0.2,2.5,0.2c1.2,0,1.8-0.5,1.8-1.7c0-0.9-0.5-1.2-1.8-1.5
		c-1.7-0.4-2.6-0.8-2.6-2.3c0-1.6,1.1-2.2,2.7-2.2c1,0,2.5,0.2,2.5,0.2L260.8,49.4z"/>
	<path class="st1" d="M238.8,41.7c-0.5,0-0.9-0.4-0.9-0.9c0-0.4,0.3-0.8,0.7-0.8v-2.5c-0.1,0-0.2,0-0.2-0.1l-2,2.2
		c0.1,0.1,0.2,0.3,0.2,0.5c0,0.5-0.4,0.9-0.9,0.9s-0.9-0.4-0.9-0.9c0-0.5,0.4-0.9,0.9-0.9c0.2,0,0.3,0,0.4,0.1l2-2.2
		c-0.1-0.1-0.2-0.2-0.2-0.4h-6c-0.1,0.4-0.4,0.7-0.8,0.7c-0.5,0-0.9-0.4-0.9-0.9c0-0.5,0.4-0.9,0.9-0.9c0.4,0,0.8,0.3,0.8,0.7h6
		c0.1-0.2,0.1-0.2,0.1-0.3l-8.1-9c-0.1,0.1-0.3,0.1-0.4,0.1c-0.5,0-0.9-0.4-0.9-0.9c0-0.5,0.4-0.9,0.9-0.9c0.5,0,0.9,0.4,0.9,0.9
		c0,0.2-0.1,0.4-0.2,0.5l8.1,9.1c0.1,0,0.1,0,0.2-0.1V20.9c-0.4-0.1-0.7-0.4-0.7-0.8c0-0.5,0.4-0.9,0.9-0.9c0.5,0,0.9,0.4,0.9,0.9
		c0,0.4-0.3,0.7-0.7,0.8v15c0.1,0,0.1,0,0.2,0.1l8.1-9c-0.1-0.2-0.2-0.3-0.2-0.5c0-0.5,0.4-0.9,0.9-0.9c0.5,0,0.9,0.4,0.9,0.9
		c0,0.5-0.4,0.9-0.9,0.9c-0.1,0-0.3,0-0.4-0.1l-8.1,9.1c0,0.1,0.1,0.1,0.1,0.2h6.6c0.1-0.4,0.4-0.7,0.8-0.7c0.5,0,0.9,0.4,0.9,0.9
		c0,0.5-0.4,0.9-0.9,0.9c-0.4,0-0.7-0.3-0.8-0.7h-6.6c0,0.1-0.1,0.2-0.1,0.3l2,2.2c0.1-0.1,0.3-0.1,0.4-0.1c0.5,0,0.9,0.4,0.9,0.9
		c0,0.5-0.4,0.9-0.9,0.9c-0.5,0-0.9-0.4-0.9-0.9c0-0.2,0-0.4,0.2-0.5l-2-2.2c-0.1,0-0.1,0.1-0.2,0.1V40c0.4,0.1,0.7,0.4,0.7,0.8
		C239.7,41.3,239.3,41.7,238.8,41.7"/>
	<path class="st1" d="M248.1,25.6c-0.4,0-0.8,0.4-0.8,0.8c0,0.2,0.1,0.4,0.2,0.5l-8.1,9.1c-0.2-0.1-0.2-0.1-0.3-0.1V20.8
		c0.4-0.1,0.7-0.4,0.7-0.8c0-0.4-0.4-0.8-0.8-0.8c-0.4,0-0.8,0.4-0.8,0.8c0,0.4,0.3,0.7,0.7,0.8v15c-0.1,0.1-0.1,0.1-0.3,0.1
		l-8.2-9.2c0.1-0.1,0.2-0.3,0.2-0.5c0-0.4-0.3-0.8-0.8-0.8c-0.4,0-0.8,0.4-0.8,0.8s0.4,0.8,0.8,0.8c0.2,0,0.3-0.1,0.4-0.1l8.1,9.1
		c-0.1,0.2-0.1,0.2-0.2,0.4h-6.1c-0.1-0.4-0.4-0.7-0.8-0.7c-0.4,0-0.8,0.4-0.8,0.8c0,0.4,0.4,0.8,0.8,0.8c0.4,0,0.7-0.3,0.8-0.7h6.1
		c0,0.2,0.1,0.3,0.2,0.4l-2,2.3c-0.1-0.1-0.3-0.1-0.4-0.1c-0.4,0-0.8,0.4-0.8,0.8c0,0.4,0.4,0.8,0.8,0.8c0.4,0,0.8-0.4,0.8-0.8
		c0-0.2-0.1-0.4-0.2-0.5l2.1-2.3c0.1,0.1,0.2,0.1,0.3,0.1V40c-0.4,0.1-0.7,0.4-0.7,0.8c0,0.4,0.4,0.8,0.8,0.8c0.4,0,0.8-0.4,0.8-0.8
		c0-0.4-0.3-0.7-0.7-0.8v-2.6c0.1,0,0.2-0.1,0.3-0.1l2,2.3c-0.1,0.1-0.2,0.3-0.2,0.5c0,0.4,0.4,0.8,0.8,0.8c0.4,0,0.8-0.4,0.8-0.8
		c0-0.4-0.4-0.8-0.8-0.8c-0.2,0-0.3,0-0.4,0.1l-2-2.3c0.1-0.1,0.1-0.2,0.1-0.4h6.7c0.1,0.4,0.4,0.7,0.8,0.7c0.4,0,0.8-0.4,0.8-0.8
		c0-0.4-0.4-0.8-0.8-0.8c-0.4,0-0.7,0.3-0.8,0.7h-6.7c-0.1-0.1-0.1-0.2-0.1-0.3l8.2-9.1c0.1,0.1,0.3,0.1,0.4,0.1
		c0.4,0,0.8-0.4,0.8-0.8C248.9,26,248.5,25.6,248.1,25.6"/>
</g>
</svg>
