<?xml version="1.0" encoding="utf-8"?>
<!-- Generator: Adobe Illustrator 23.0.0, SVG Export Plug-In . SVG Version: 6.00 Build 0)  -->
<svg version="1.1" id="Capa_1" xmlns="http://www.w3.org/2000/svg" xmlns:xlink="http://www.w3.org/1999/xlink" x="0px" y="0px"
	 viewBox="0 0 185.6 106.6" style="enable-background:new 0 0 185.6 106.6;" xml:space="preserve">
<style type="text/css">
	.st0{fill:#FFFFFF;}
	.st1{fill:#17A3C8;}
</style>
<g>
	<rect x="48.2" y="86.3" class="st0" width="3.1" height="15.5"/>
	<path class="st0" d="M64.5,101.5c-1,0.2-3.1,0.5-4.5,0.5c-4.8,0-5.9-2.6-5.9-8c0-5.9,1.3-8,5.9-8c1.6,0,3.6,0.4,4.5,0.6l-0.1,2.5
		c-1.1-0.2-3-0.3-4-0.3c-2.4,0-3.1,0.8-3.1,5.3c0,4.2,0.5,5.2,3.2,5.2c1,0,3-0.2,3.9-0.3L64.5,101.5z"/>
	<path class="st0" d="M76.9,101.5c-1,0.2-3.1,0.5-4.5,0.5c-4.8,0-5.9-2.6-5.9-8c0-5.9,1.3-8,5.9-8c1.6,0,3.6,0.4,4.5,0.6l-0.1,2.5
		c-1.1-0.2-3-0.3-4-0.3c-2.4,0-3.1,0.8-3.1,5.3c0,4.2,0.5,5.2,3.2,5.2c1,0,3-0.2,3.9-0.3L76.9,101.5z"/>
	<polygon class="st0" points="79.7,101.8 79.7,86 81.5,86 81.5,100.2 88.4,100.2 88.4,101.8 	"/>
	<path class="st0" d="M93.6,86h3.8l4.3,15.8H100l-1.1-4.1h-6.8l-1.1,4.1h-1.7L93.6,86z M92.5,96.1h6l-2.4-8.6h-1.2L92.5,96.1z"/>
	<path class="st0" d="M110,86c3.1,0,4.7,1.2,4.7,4c0,2.1-0.8,3-2,3.6c1.4,0.5,2.5,1.4,2.5,3.7c0,3.3-1.9,4.4-4.9,4.4h-6V86H110z
		 M106,87.5V93h4.1c2,0,2.8-0.9,2.8-2.8c0-1.8-1-2.6-3-2.6H106z M106,94.5v5.7h4.2c1.9,0,3.2-0.6,3.2-2.9c0-2.4-2.1-2.8-3.3-2.8H106
		z"/>
	<path class="st0" d="M127.1,87.7c0,0-3.2-0.4-4.5-0.4c-2.2,0-3.4,0.8-3.4,2.6c0,2.1,1.1,2.4,3.9,3c3.1,0.7,4.5,1.5,4.5,4.2
		c0,3.5-1.9,4.9-5,4.9c-1.9,0-5-0.5-5-0.5l0.2-1.5c0,0,3.1,0.4,4.7,0.4c2.2,0,3.4-1,3.4-3.2c0-1.8-0.9-2.3-3.5-2.8
		c-3.3-0.7-4.9-1.5-4.9-4.5c0-3.1,2-4.2,5.1-4.2c1.9,0,4.8,0.5,4.8,0.5L127.1,87.7z"/>
	<path class="st0" d="M33.2,79.4c-0.8,0-1.5,0.7-1.5,1.5c0,0.3,0.1,0.6,0.3,0.8L18.1,96.9c-0.1-0.1-0.2-0.1-0.4-0.2V71.6
		c0.7-0.2,1.1-0.8,1.1-1.4c0-0.8-0.7-1.5-1.5-1.5c-0.8,0-1.5,0.7-1.5,1.5c0,0.7,0.5,1.3,1.1,1.4v25.2c-0.1,0-0.2,0-0.3,0.1l-14-15.3
		C2.9,81.3,3,81,3,80.7c0-0.8-0.7-1.5-1.5-1.5c-0.8,0-1.5,0.6-1.5,1.5c0,0.8,0.7,1.5,1.5,1.5c0.2,0,0.5-0.1,0.7-0.2l13.9,15.2
		c-0.1,0.1-0.2,0.3-0.3,0.5H5.6c-0.2-0.7-0.8-1.1-1.5-1.1c-0.8,0-1.5,0.7-1.5,1.5c0,0.8,0.7,1.5,1.5,1.5c0.7,0,1.3-0.5,1.5-1.1h10.2
		c0,0.2,0.1,0.4,0.3,0.6l-3.3,3.7c-0.2-0.1-0.5-0.2-0.7-0.2c-0.8,0-1.5,0.7-1.5,1.5c0,0.8,0.7,1.5,1.5,1.5c0.8,0,1.5-0.7,1.5-1.5
		c0-0.3-0.1-0.6-0.3-0.8l3.4-3.7c0.1,0.1,0.2,0.1,0.4,0.1v4.1c-0.7,0.2-1.1,0.7-1.1,1.4c0,0.8,0.7,1.5,1.5,1.5
		c0.8,0,1.5-0.7,1.5-1.5c0-0.7-0.5-1.3-1.1-1.4v-4.1c0.2,0,0.3-0.1,0.4-0.2l3.3,3.7c-0.2,0.2-0.3,0.5-0.3,0.8c0,0.8,0.7,1.5,1.5,1.5
		c0.8,0,1.5-0.7,1.5-1.5c0-0.8-0.7-1.5-1.5-1.5c-0.3,0-0.5,0.1-0.7,0.2l-3.4-3.7c0.1-0.1,0.1-0.3,0.2-0.4H30
		c0.2,0.7,0.8,1.1,1.5,1.1c0.8,0,1.5-0.7,1.5-1.5c0-0.8-0.7-1.5-1.5-1.5c-0.7,0-1.3,0.5-1.5,1.1H18.7c0-0.1-0.1-0.2-0.2-0.4
		l13.9-15.2c0.2,0.1,0.5,0.2,0.7,0.2c0.8,0,1.5-0.7,1.5-1.5C34.7,80,34,79.4,33.2,79.4"/>
	<path class="st1" d="M33.2,14.4v3.1c0,0.4-0.3,0.7-0.7,0.7H20.3c-0.4,0-0.7,0.3-0.7,0.7v12.2c0,0.4-0.3,0.7-0.7,0.7h-3.2
		c-0.4,0-0.7-0.3-0.7-0.7V18.9c0-0.4-0.3-0.7-0.7-0.7H2c-0.4,0-0.7-0.3-0.7-0.7v-3.1c0-0.4,0.3-0.7,0.7-0.7h12.2
		c0.4,0,0.7-0.3,0.7-0.7V0.7c0-0.4,0.3-0.7,0.7-0.7h3.1c0.4,0,0.7,0.3,0.7,0.7v12.2c0,0.4,0.3,0.7,0.7,0.7h12.2
		C32.9,13.6,33.2,13.9,33.2,14.4"/>
	<path class="st1" d="M31.3,26.6h-7c-0.1,0-0.2,0.1-0.2,0.2v0.3c0,0.1,0.1,0.2,0.2,0.2h7c0.1,0,0.2-0.1,0.2-0.2v-0.3
		C31.5,26.7,31.3,26.6,31.3,26.6 M32.6,25.3v0.3c0,0.1-0.1,0.2-0.2,0.2h-7c-0.1,0-0.2-0.1-0.2-0.2v-0.3c0-0.1,0.1-0.2,0.2-0.2h7
		C32.5,25,32.6,25.2,32.6,25.3 M30.4,28.4v0.3c0,0.1-0.1,0.2-0.2,0.2h-6.5c-0.5,0-0.9-0.1-1.3-0.3c-0.8-0.5-1.3-1.3-1.3-2.2
		c0-0.7,0.3-1.3,0.7-1.7c0.2-0.2,0.3-0.3,0.6-0.4c0.2-0.2,0.5-0.2,0.7-0.3c0.1,0,0.2-0.1,0.2-0.2v0c0.1-0.2,0.2-0.5,0.3-0.7
		c0.5-0.8,1.3-1.3,2.2-1.3c0.7,0,1.3,0.2,1.8,0.7c0.1,0.1,0.2,0.3,0.4,0.4l0.1,0.1c0.1,0.1,0.2,0.1,0.3,0.1c0,0,0,0,0.1,0l0,0
		c0.2-0.1,0.4-0.2,0.7-0.2c0.2,0,0.5,0.1,0.6,0.2c0.2,0.1,0.5,0.3,0.6,0.6c0.1,0.1,0.1,0.3,0.2,0.4v0.1c0,0.1-0.1,0.2-0.2,0.2h-0.3
		c-0.1,0-0.2-0.1-0.2-0.2v-0.1c0-0.1,0-0.1-0.1-0.2c-0.1-0.2-0.4-0.3-0.6-0.3c-0.2,0-0.5,0.1-0.6,0.3c0,0.1-0.1,0.1-0.1,0.2
		c0,0.1-0.1,0.2-0.2,0.2h-0.3c-0.1,0-0.2-0.1-0.2-0.2v-0.1c0-0.2-0.1-0.5-0.2-0.6c-0.3-0.6-0.9-0.9-1.5-0.9c-0.6,0-1.2,0.3-1.5,0.9
		C24.1,23.7,24,24,24,24.3v0.1c0,0.1-0.1,0.2-0.2,0.2h-0.2c-0.3,0-0.6,0.1-0.9,0.2c-0.6,0.3-0.9,0.9-0.9,1.5c0,0.6,0.3,1.2,0.9,1.5
		c0.3,0.2,0.6,0.2,0.9,0.2h6.6C30.3,28.1,30.4,28.2,30.4,28.4 M28.2,23L28.2,23C28.2,23,28.2,23.1,28.2,23C28.2,23,28.2,23,28.2,23"
		/>
	<path class="st1" d="M7.6,22.7c-1.5,0-2.8,1.2-2.8,2.8c0,1.5,1.2,2.8,2.8,2.8c1.5,0,2.8-1.2,2.8-2.8C10.4,23.9,9.2,22.7,7.6,22.7
		 M7.2,21.9v-1.8c0-0.1,0.1-0.2,0.2-0.2h0.3c0.1,0,0.2,0.1,0.2,0.2v1.8c0,0.1-0.1,0.2-0.2,0.2H7.5C7.4,22.1,7.2,22,7.2,21.9
		 M13.3,25.3v0.3c0,0.1-0.1,0.2-0.2,0.2h-1.8c-0.1,0-0.2-0.1-0.2-0.2v-0.3c0-0.1,0.1-0.2,0.2-0.2h1.8C13.2,25.1,13.3,25.2,13.3,25.3
		 M8,29.1v1.8c0,0.1-0.1,0.2-0.2,0.2H7.5c-0.1,0-0.2-0.1-0.2-0.2v-1.8c0-0.1,0.1-0.2,0.2-0.2h0.3C7.9,28.8,8,28.9,8,29.1 M4,25.9
		H2.2c-0.1,0-0.2-0.1-0.2-0.2v-0.3c0-0.1,0.1-0.2,0.2-0.2H4c0.1,0,0.2,0.1,0.2,0.2v0.3C4.3,25.7,4.1,25.9,4,25.9 M9.1,22.3
		c0-0.1,0-0.1,0-0.2l0.9-1.6c0.1-0.1,0.2-0.2,0.3-0.1l0.2,0.2c0.1,0.1,0.2,0.2,0.1,0.3l-0.9,1.6c0,0.1-0.1,0.1-0.2,0.1
		c0,0-0.1,0-0.1,0l-0.2-0.2C9.2,22.4,9.1,22.4,9.1,22.3 M12.6,28.2l-0.2,0.2c0,0.1-0.1,0.1-0.2,0.1c0,0-0.1,0-0.1,0l-1.6-0.9
		c-0.1-0.1-0.2-0.2-0.1-0.3l0.2-0.2c0.1-0.1,0.2-0.2,0.3-0.1l1.6,0.9C12.6,27.9,12.6,28.1,12.6,28.2 M6.2,28.8l-0.9,1.6
		c0,0.1-0.1,0.1-0.2,0.1c0,0-0.1,0-0.1,0l-0.2-0.2c-0.1,0-0.1-0.1-0.1-0.2c0-0.1,0-0.1,0-0.2l0.9-1.6c0.1-0.1,0.2-0.2,0.3-0.1
		l0.2,0.2C6.2,28.5,6.2,28.7,6.2,28.8 M2.7,22.7l0.2-0.2c0.1-0.1,0.2-0.2,0.3-0.1l1.6,0.9c0.1,0,0.1,0.1,0.1,0.2c0,0.1,0,0.1,0,0.2
		l-0.2,0.2c0,0.1-0.1,0.1-0.2,0.1c0,0-0.1,0-0.1,0L2.7,23C2.7,23,2.6,22.8,2.7,22.7 M10.6,23.3l1.6-0.9c0.1-0.1,0.3,0,0.3,0.1
		l0.2,0.2c0.1,0.1,0,0.3-0.1,0.3L10.9,24c0,0-0.1,0-0.1,0c-0.1,0-0.2,0-0.2-0.1l-0.2-0.2C10.4,23.5,10.4,23.4,10.6,23.3 M10.7,30
		c0,0.1,0,0.1,0,0.2c0,0.1-0.1,0.1-0.1,0.2l-0.2,0.2c0,0-0.1,0-0.1,0c-0.1,0-0.2,0-0.2-0.1l-0.9-1.6c-0.1-0.1,0-0.3,0.1-0.3l0.2-0.2
		c0.1-0.1,0.3,0,0.3,0.1L10.7,30z M4.7,27.6l-1.6,0.9c0,0-0.1,0-0.1,0c-0.1,0-0.2,0-0.2-0.1l-0.2-0.2c-0.1-0.1,0-0.3,0.1-0.3
		l1.6-0.9c0.1-0.1,0.3,0,0.3,0.1l0.2,0.2C4.9,27.4,4.8,27.6,4.7,27.6 M4.5,21c-0.1-0.1,0-0.3,0.1-0.3l0.2-0.2c0.1-0.1,0.3,0,0.3,0.1
		l0.9,1.6c0,0.1,0,0.1,0,0.2c0,0.1-0.1,0.1-0.1,0.2l-0.2,0.2c0,0-0.1,0-0.1,0c-0.1,0-0.2,0-0.2-0.1L4.5,21z"/>
	<path class="st1" d="M29.4,7.7V8c0,0.5-0.2,1-0.5,1.4c-0.1,0.2-0.3,0.4-0.4,0.6c-0.3,0.3-0.6,0.6-1,0.7c-0.4,0.2-0.8,0.2-1.2,0.2
		c-0.9,0-1.7-0.3-2.2-0.9c-0.2-0.2-0.3-0.3-0.4-0.6c-0.3-0.5-0.5-1-0.5-1.7c0-0.5,0.1-1,0.4-1.5c0.1-0.2,0.2-0.5,0.4-0.7
		c0.1-0.1,0.2-0.3,0.4-0.7c0.1-0.2,0.3-0.4,0.5-0.7c0.2-0.2,0.3-0.6,0.6-0.8c0.1-0.2,0.2-0.4,0.4-0.6v0c0.1-0.2,0.2-0.4,0.3-0.6
		c0.1-0.2,0.1-0.3,0.2-0.4c0.1-0.2,0.3-0.2,0.4,0l0,0.1c0.2,0.5,0.5,1,0.8,1.5c0.8,1.3,1.3,2.1,1.4,2.2C29.1,6.3,29.4,7.1,29.4,7.7
		 M28.5,7.8c0-0.1,0-0.1-0.1-0.2l0,0c0,0-0.1-0.1-0.2-0.1H28c-0.1,0-0.2,0.1-0.2,0.2v0.1c-0.1,0.9-0.7,1.5-1.6,1.6h0
		c-0.1,0-0.2,0.1-0.2,0.2v0.2c0,0.1,0.1,0.2,0.1,0.2c0,0,0.1,0,0.1,0c0.6,0,1-0.2,1.5-0.6c0.1-0.1,0.2-0.2,0.3-0.3
		C28.3,8.8,28.5,8.3,28.5,7.8"/>
	<path class="st1" d="M9,1.7l4,8.7c0.1,0.2-0.1,0.4-0.2,0.4H2.9c-0.2,0-0.3-0.2-0.3-0.4l2.7-6.8c0.1-0.2,0.3-0.2,0.5-0.1l0.9,0.9
		C6.8,4.5,7,4.5,7.1,4.3l1.4-2.7C8.6,1.5,8.9,1.5,9,1.7 M8.4,6.2c0.1,0.1,0.2,0.2,0.3,0.2c0.2,0.1,0.3,0,0.4-0.1
		c0.3-0.2,0.8-0.4,0.6-0.9C9.5,4.9,9.2,4,9,3.5c-0.1-0.2-0.4-0.3-0.5,0C8.1,4.2,7.8,5,7.4,5.8C7.3,6,7.1,6,6.9,5.9
		C6.6,5.6,6.3,5.3,6.1,5C5.9,4.9,5.7,4.9,5.6,5.1C5.1,6.6,5,6.7,5.9,7.2C6,7.3,6.1,7.3,6.2,7.2C6.3,7,6.5,6.9,6.6,6.7
		c0.1-0.1,0.3-0.1,0.4,0c0.1,0.1,0.2,0.2,0.2,0.2C7.4,7,7.6,6.9,7.7,6.8c0.1-0.2,0.2-0.4,0.4-0.6C8.1,6.1,8.2,6.1,8.4,6.2"/>
	<path class="st0" d="M60.3,6.1c0-0.2-0.2-0.2-0.3-0.2H53c-0.2,0-0.3,0.1-0.3,0.2l-6.5,20.6c-0.1,0.2,0.1,0.5,0.3,0.5h5.2
		c0.2,0,0.3-0.1,0.3-0.2l0.7-2.7c0-0.2,0.2-0.2,0.3-0.2h6.8c0.2,0,0.3,0.1,0.3,0.2L61,27c0,0.2,0.2,0.2,0.3,0.2h5.2
		c0.2,0,0.4-0.2,0.3-0.5L60.3,6.1z M58.4,19.3h-3.7c-0.2,0-0.4-0.2-0.3-0.4l1.9-6.9c0.1-0.3,0.6-0.3,0.7,0l1.9,6.9
		C58.8,19.1,58.6,19.3,58.4,19.3 M88,5.9h-5.4c-0.2,0-0.3,0.2-0.3,0.3v14c0,1.4-0.9,2.1-3.2,2.1c-2.3,0-3.2-0.7-3.2-2.1v-14
		c0-0.2-0.2-0.3-0.3-0.3h-5.4c-0.2,0-0.3,0.2-0.3,0.3v14.7c0,3.3,2,6.7,9.2,6.7c7.2,0,9.2-3.4,9.2-6.7V6.2C88.3,6,88.2,5.9,88,5.9
		 M109.5,20.5c-0.1-0.2-0.1-0.4,0.1-0.5c1.7-1.3,2.3-2.6,2.3-4.9v-2.9c0-4.1-1.9-6.4-7.8-6.4h-9.8c-0.2,0-0.3,0.2-0.3,0.3v20.6
		c0,0.2,0.2,0.3,0.3,0.3h5.4c0.2,0,0.3-0.2,0.3-0.3v-5c0-0.2,0.2-0.3,0.3-0.3h3c0.1,0,0.2,0.1,0.3,0.2l3.6,5.4
		c0.1,0.1,0.2,0.2,0.3,0.2h6c0.3,0,0.4-0.3,0.3-0.6L109.5,20.5z M106,14.9c0,1.2-0.6,1.8-2.1,1.8h-3.6c-0.2,0-0.3-0.2-0.3-0.3v-5.3
		c0-0.2,0.2-0.3,0.3-0.3h3.6c1.5,0,2.1,0.6,2.1,1.8V14.9z M126.3,5.5c-6.7,0-9.4,3.3-9.4,6.9v8.3c0,3.7,2.7,6.9,9.4,6.9
		c6.7,0,9.4-3.3,9.4-7v-8.3C135.6,8.7,132.9,5.5,126.3,5.5 M129.6,19.9c0,1.5-1,2.4-3.3,2.4c-2.3,0-3.3-0.9-3.3-2.4v-6.8
		c0-1.5,1-2.4,3.3-2.4c2.3,0,3.3,0.9,3.3,2.4V19.9z M156.4,20.5c-0.1-0.2-0.1-0.4,0.1-0.5c1.7-1.3,2.3-2.6,2.3-4.9v-2.9
		c0-4.1-1.9-6.4-7.8-6.4h-9.8c-0.2,0-0.3,0.2-0.3,0.3v20.6c0,0.2,0.2,0.3,0.3,0.3h5.4c0.2,0,0.3-0.2,0.3-0.3v-5
		c0-0.2,0.2-0.3,0.3-0.3h3c0.1,0,0.2,0.1,0.3,0.2l3.6,5.4c0.1,0.1,0.2,0.2,0.3,0.2h6c0.3,0,0.4-0.3,0.3-0.6L156.4,20.5z M152.9,14.9
		c0,1.2-0.6,1.8-2.1,1.8h-3.6c-0.2,0-0.3-0.2-0.3-0.3v-5.3c0-0.2,0.2-0.3,0.3-0.3h3.6c1.5,0,2.1,0.6,2.1,1.8V14.9z M183.8,26.8
		l-6.6-20.6c0-0.2-0.2-0.2-0.3-0.2h-7c-0.2,0-0.3,0.1-0.3,0.2l-6.5,20.6c-0.1,0.2,0.1,0.5,0.3,0.5h5.2c0.2,0,0.3-0.1,0.3-0.2
		l0.7-2.7c0-0.2,0.2-0.2,0.3-0.2h6.8c0.2,0,0.3,0.1,0.3,0.2l0.7,2.7c0,0.2,0.2,0.2,0.3,0.2h5.2C183.7,27.2,183.9,27,183.8,26.8
		 M175.3,19.3h-3.7c-0.2,0-0.4-0.2-0.3-0.4l1.9-6.9c0.1-0.3,0.6-0.3,0.7,0l1.9,6.9C175.7,19.1,175.6,19.3,175.3,19.3"/>
	<path d="M183.9,5.7c1,0,1.8,0.8,1.8,1.8c0,1-0.8,1.8-1.8,1.8c-1,0-1.8-0.8-1.8-1.8C182.1,6.5,182.9,5.7,183.9,5.7 M183.9,8.9
		c0.8,0,1.5-0.7,1.5-1.5c0-0.8-0.7-1.5-1.5-1.5s-1.5,0.7-1.5,1.5C182.4,8.3,183.1,8.9,183.9,8.9 M183.4,8.4h-0.3V6.4h0.8
		c0.3,0,0.7,0.1,0.7,0.6c0,0.4-0.2,0.6-0.5,0.6l0.5,0.8h-0.3l-0.5-0.8h-0.6L183.4,8.4L183.4,8.4z M184,7.4c0.2,0,0.4,0,0.4-0.4
		c0-0.3-0.2-0.4-0.4-0.4h-0.6v0.7H184z"/>
</g>
</svg>
