<?xml version="1.0" encoding="utf-8"?>
<!-- Generator: Adobe Illustrator 23.0.0, SVG Export Plug-In . SVG Version: 6.00 Build 0)  -->
<svg version="1.1" id="Capa_1" xmlns="http://www.w3.org/2000/svg" xmlns:xlink="http://www.w3.org/1999/xlink" x="0px" y="0px"
	 viewBox="0 0 31.9 31.8" style="enable-background:new 0 0 31.9 31.8;" xml:space="preserve">
<style type="text/css">
	.st0{fill:#17A3C8;}
	@media (prefers-color-scheme: dark) {
      .st0{fill:#ffffff !important}
    }
</style>
<path class="st0" d="M31.9,14.4v3.1c0,0.4-0.3,0.7-0.7,0.7H19c-0.4,0-0.7,0.3-0.7,0.7v12.2c0,0.4-0.3,0.7-0.7,0.7h-3.2
	c-0.4,0-0.7-0.3-0.7-0.7V18.9c0-0.4-0.3-0.7-0.7-0.7H0.7c-0.4,0-0.7-0.3-0.7-0.7v-3.1c0-0.4,0.3-0.7,0.7-0.7h12.2
	c0.4,0,0.7-0.3,0.7-0.7V0.7c0-0.4,0.3-0.7,0.7-0.7h3.1c0.4,0,0.7,0.3,0.7,0.7v12.2c0,0.4,0.3,0.7,0.7,0.7H31
	C31.5,13.7,31.9,14,31.9,14.4"/>
<path class="st0" d="M30,26.6h-7c-0.1,0-0.2,0.1-0.2,0.2v0.3c0,0.1,0.1,0.2,0.2,0.2h7c0.1,0,0.2-0.1,0.2-0.2v-0.3
	C30.2,26.7,30,26.6,30,26.6 M31.3,25.3v0.3c0,0.1-0.1,0.2-0.2,0.2h-7c-0.1,0-0.2-0.1-0.2-0.2v-0.3c0-0.1,0.1-0.2,0.2-0.2h7
	C31.2,25,31.3,25.2,31.3,25.3 M29.1,28.4v0.3c0,0.1-0.1,0.2-0.2,0.2h-6.5c-0.5,0-0.9-0.1-1.3-0.3c-0.8-0.5-1.3-1.3-1.3-2.2
	c0-0.7,0.3-1.3,0.7-1.7c0.2-0.2,0.3-0.3,0.6-0.4c0.2-0.2,0.5-0.2,0.7-0.3c0.1,0,0.2-0.1,0.2-0.2l0,0c0.1-0.2,0.2-0.5,0.3-0.7
	c0.5-0.8,1.3-1.3,2.2-1.3c0.7,0,1.3,0.2,1.8,0.7c0.1,0.1,0.2,0.3,0.4,0.4l0.1,0.1c0.1,0.1,0.2,0.1,0.3,0.1c0,0,0,0,0.1,0l0,0
	c0.2-0.1,0.4-0.2,0.7-0.2c0.2,0,0.5,0.1,0.6,0.2c0.2,0.1,0.5,0.3,0.6,0.6c0.1,0.1,0.1,0.3,0.2,0.4v0.1c0,0.1-0.1,0.2-0.2,0.2h-0.3
	c-0.1,0-0.2-0.1-0.2-0.2v-0.1c0-0.1,0-0.1-0.1-0.2c-0.1-0.2-0.4-0.3-0.6-0.3s-0.5,0.1-0.6,0.3c0,0.1-0.1,0.1-0.1,0.2
	c0,0.1-0.1,0.2-0.2,0.2h-0.3c-0.1,0-0.2-0.1-0.2-0.2V24c0-0.2-0.1-0.5-0.2-0.6c-0.7-0.5-1.3-0.8-1.9-0.8s-1.2,0.3-1.5,0.9
	c-0.2,0.3-0.2,0.6-0.2,0.9v0.1c0,0.1-0.1,0.2-0.2,0.2h-0.2c-0.3,0-0.6,0.1-0.9,0.2c-0.6,0.3-0.9,0.9-0.9,1.5s0.3,1.2,0.9,1.5
	c0.3,0.2,0.6,0.2,0.9,0.2h6.6C29,28.1,29.1,28.2,29.1,28.4 M26.9,23L26.9,23C26.9,23.1,26.9,23.1,26.9,23L26.9,23"/>
<path class="st0" d="M6.3,22.7c-1.5,0-2.8,1.2-2.8,2.8c0,1.5,1.2,2.8,2.8,2.8c1.5,0,2.8-1.2,2.8-2.8S7.9,22.7,6.3,22.7 M5.9,21.9
	v-1.8c0-0.1,0.1-0.2,0.2-0.2h0.3c0.1,0,0.2,0.1,0.2,0.2v1.8c0,0.1-0.1,0.2-0.2,0.2H6.2C6.1,22.1,5.9,22,5.9,21.9 M12,25.3v0.3
	c0,0.1-0.1,0.2-0.2,0.2H10c-0.1,0-0.2-0.1-0.2-0.2v-0.3c0-0.1,0.1-0.2,0.2-0.2h1.8C11.9,25.1,12,25.2,12,25.3 M6.7,29.1v1.8
	c0,0.1-0.1,0.2-0.2,0.2H6.2C6.1,31.1,6,31,6,30.9v-1.8c0-0.1,0.1-0.2,0.2-0.2h0.3C6.6,28.9,6.7,28.9,6.7,29.1 M2.7,25.9H0.9
	c-0.1,0-0.2-0.1-0.2-0.2v-0.3c0-0.1,0.1-0.2,0.2-0.2h1.8c0.1,0,0.2,0.1,0.2,0.2v0.2C2.9,25.8,2.8,25.9,2.7,25.9 M7.8,22.3
	c0-0.1,0-0.1,0-0.2l1-1.5c0.1-0.1,0.2-0.2,0.3-0.1l0.2,0.2c0.1,0.1,0.2,0.2,0.1,0.3l-0.9,1.6c0,0.1-0.1,0.1-0.2,0.1H8.2L8,22.5
	C7.9,22.4,7.8,22.4,7.8,22.3 M11.3,28.2l-0.2,0.2c0,0.1-0.1,0.1-0.2,0.1h-0.1l-1.6-0.9c-0.1-0.1-0.2-0.2-0.1-0.3l0.2-0.2
	C9.4,27,9.5,26.9,9.6,27l1.6,0.9C11.3,27.9,11.3,28.1,11.3,28.2 M4.9,28.8L4,30.4c0,0.1-0.1,0.1-0.2,0.1H3.7l-0.2-0.2
	c-0.1,0-0.1-0.1-0.1-0.2c0-0.1,0-0.1,0-0.2l0.9-1.6c0.1-0.1,0.2-0.2,0.3-0.1l0.2,0.2C4.9,28.5,4.9,28.7,4.9,28.8 M1.4,22.7l0.2-0.2
	c0.1-0.1,0.2-0.2,0.3-0.1l1.6,0.9c0.1,0,0.1,0.1,0.1,0.2c0,0.1,0,0.1,0,0.2l-0.2,0.2C3.4,24,3.3,24,3.2,24H3.1l-1.6-0.9
	C1.4,23,1.3,22.8,1.4,22.7 M9.2,23.3l1.6-0.9c0.1-0.1,0.3,0,0.3,0.1l0.2,0.2c0.1,0.1,0,0.3-0.1,0.3l-1.6,0.9H9.5
	c-0.1,0-0.2,0-0.2-0.1l-0.1-0.2C9.1,23.5,9.1,23.4,9.2,23.3 M9.4,30c0,0.1,0,0.1,0,0.2c0,0.1-0.1,0.1-0.1,0.2l-0.2,0.2H9
	c-0.1,0-0.2,0-0.2-0.1l-0.9-1.6c-0.1-0.1,0-0.3,0.1-0.3l0.2-0.2c0.1-0.1,0.3,0,0.3,0.1L9.4,30z M3.4,27.6l-1.6,1H1.7
	c-0.1,0-0.2,0-0.2-0.1l-0.2-0.2c-0.1-0.1,0-0.3,0.1-0.3L3,27c0.1-0.1,0.3,0,0.3,0.1l0.2,0.2C3.6,27.4,3.5,27.6,3.4,27.6 M3.2,21
	c-0.1-0.1,0-0.3,0.1-0.3l0.2-0.2c0.1-0.1,0.3,0,0.3,0.1l0.9,1.6c0,0.1,0,0.1,0,0.2c0,0.1-0.1,0.1-0.1,0.2l-0.2,0.2H4.3
	c-0.1,0-0.2,0-0.2-0.1L3.2,21z"/>
<path class="st0" d="M28.1,7.8v0.3c0,0.5-0.2,1-0.5,1.4c-0.1,0.2-0.3,0.4-0.4,0.6c-0.3,0.3-0.6,0.6-1,0.7C25.8,11,25.4,11,25,11
	c-0.9,0-1.7-0.3-2.2-0.9c-0.2-0.2-0.3-0.3-0.4-0.6c-0.3-0.5-0.5-1-0.5-1.7c0-0.5,0.1-1,0.4-1.5c0.1-0.2,0.2-0.5,0.4-0.7
	c0.1-0.1,0.2-0.3,0.4-0.7c0.1-0.2,0.3-0.4,0.5-0.7c0.2-0.2,0.3-0.6,0.6-0.8c0.1-0.2,0.2-0.4,0.4-0.6l0,0c0.1-0.2,0.2-0.4,0.3-0.6
	C25,2,25,1.9,25.1,1.8c0.1-0.2,0.3-0.2,0.4,0v0.1c0.2,0.5,0.5,1,0.8,1.5c0.8,1.3,1.3,2.1,1.4,2.2C27.8,6.3,28.1,7.1,28.1,7.8
	 M27.2,7.8c0-0.1,0-0.1-0.1-0.2l0,0c0,0-0.1-0.1-0.2-0.1h-0.2c-0.1,0-0.2,0.1-0.2,0.2v0.1c-0.1,0.9-0.7,1.5-1.6,1.6l0,0
	c-0.1,0-0.2,0.1-0.2,0.2v0.2c0,0.1,0.1,0.2,0.1,0.2h0.1c0.6,0,1-0.2,1.5-0.6c0.1-0.1,0.2-0.2,0.3-0.3C27,8.8,27.2,8.3,27.2,7.8"/>
<path class="st0" d="M7.7,1.7l4,8.7c0.1,0.2-0.1,0.4-0.2,0.4H1.6c-0.2,0-0.3-0.2-0.3-0.4L4,3.6c0.1-0.2,0.3-0.2,0.5-0.1l0.9,0.9
	c0.1,0.2,0.4,0.1,0.5-0.1l1.3-2.7C7.3,1.5,7.6,1.5,7.7,1.7 M7.1,6.2c0.1,0.1,0.2,0.2,0.3,0.2c0.2,0.1,0.3,0,0.4-0.1
	c0.3-0.2,0.8-0.4,0.6-0.9C8.2,4.8,7.8,4,7.7,3.5c-0.1-0.2-0.4-0.3-0.5,0C6.8,4.2,6.5,5.1,6.1,5.8C6,6,5.8,6,5.6,5.9
	C5.3,5.6,5,5.3,4.8,5.1C4.7,5,4.4,5,4.4,5.2C3.8,6.7,3.7,6.8,4.6,7.4C4.7,7.5,4.9,7.5,5,7.3C5.1,7.1,5.3,7,5.4,6.8
	c0.1-0.1,0.3-0.1,0.4,0S6,7,6,7c0.1,0.1,0.3,0.1,0.4-0.1c0.1-0.2,0.2-0.4,0.4-0.6C6.8,6.1,6.9,6.1,7.1,6.2"/>
</svg>
