<?xml version="1.0" encoding="utf-8"?>
<!-- Generator: Adobe Illustrator 23.0.0, SVG Export Plug-In . SVG Version: 6.00 Build 0)  -->
<svg version="1.1" id="Capa_1" xmlns="http://www.w3.org/2000/svg" xmlns:xlink="http://www.w3.org/1999/xlink" x="0px" y="0px"
	 viewBox="0 0 70 70" style="enable-background:new 0 0 70 70;" xml:space="preserve">
<style type="text/css">
	.st0{fill:#6F6F6E;}
</style>
<g>
	<path class="st0" d="M70,35c0,19.3-15.7,35-35,35C15.7,70,0,54.3,0,35C0,15.7,15.7,0,35,0C54.3,0,70,15.7,70,35 M35,1.1
		C16.3,1.1,1.2,16.3,1.2,35c0,18.7,15.2,33.9,33.9,33.9c18.7,0,33.9-15.2,33.9-33.9C68.9,16.3,53.7,1.1,35,1.1"/>
	<path class="st0" d="M7.9,39.9L7.1,40l-0.4-1.9l1.8-0.3c0.2,0.2,0.4,0.4,0.6,0.7c0.2,0.3,0.3,0.7,0.4,1c0.1,0.5,0.1,0.9-0.1,1.3
		c-0.1,0.4-0.4,0.7-0.7,0.9c-0.3,0.2-0.7,0.4-1.1,0.5c-0.5,0.1-0.9,0.1-1.3-0.1c-0.4-0.1-0.7-0.4-1-0.7c-0.2-0.3-0.3-0.6-0.4-1
		c-0.1-0.6-0.1-1,0.1-1.4c0.2-0.4,0.5-0.6,0.9-0.8l0.3,0.9c-0.2,0.1-0.4,0.3-0.5,0.4c-0.1,0.2-0.1,0.4-0.1,0.7
		c0.1,0.4,0.3,0.7,0.5,0.9c0.3,0.2,0.7,0.2,1.2,0.1C8,41.2,8.4,41,8.6,40.7c0.2-0.3,0.3-0.6,0.2-1c0-0.2-0.1-0.4-0.2-0.5
		c-0.1-0.2-0.2-0.3-0.4-0.4l-0.6,0.1L7.9,39.9z"/>
	<path class="st0" d="M6.8,37c-0.5,0-0.8-0.1-1.2-0.2c-0.2-0.1-0.4-0.3-0.6-0.4c-0.2-0.2-0.3-0.4-0.4-0.6c-0.1-0.3-0.2-0.6-0.2-1
		c0-0.7,0.2-1.2,0.6-1.6c0.4-0.4,1-0.6,1.7-0.6c0.7,0,1.3,0.2,1.7,0.6c0.4,0.4,0.6,0.9,0.6,1.6c0,0.7-0.2,1.2-0.6,1.6S7.5,37,6.8,37
		 M6.8,36.1c0.5,0,0.9-0.1,1.2-0.3c0.3-0.2,0.4-0.5,0.4-0.9c0-0.4-0.1-0.7-0.4-0.9c-0.3-0.2-0.7-0.4-1.2-0.4c-0.5,0-0.9,0.1-1.2,0.3
		c-0.3,0.2-0.4,0.5-0.4,0.9c0,0.4,0.1,0.7,0.4,0.9C5.9,35.9,6.3,36,6.8,36.1"/>
	<path class="st0" d="M7,31.7c-0.5-0.1-0.8-0.2-1.1-0.4c-0.2-0.1-0.4-0.3-0.5-0.5c-0.1-0.2-0.2-0.4-0.3-0.7c-0.1-0.3-0.1-0.6,0-1
		C5.2,28.5,5.5,28,6,27.7c0.5-0.3,1.1-0.4,1.8-0.3c0.7,0.1,1.2,0.4,1.6,0.9c0.3,0.5,0.4,1,0.3,1.7c-0.1,0.7-0.4,1.1-0.9,1.5
		C8.3,31.8,7.7,31.9,7,31.7 M7.1,30.8c0.5,0.1,0.9,0.1,1.2-0.1c0.3-0.2,0.5-0.5,0.6-0.8c0.1-0.4,0-0.7-0.2-1
		c-0.2-0.3-0.6-0.5-1.1-0.6c-0.5-0.1-0.9-0.1-1.2,0.1c-0.3,0.2-0.5,0.4-0.5,0.8c-0.1,0.4,0,0.7,0.2,1C6.2,30.5,6.6,30.7,7.1,30.8"/>
	<path class="st0" d="M6,25.5L6.6,24c0.1-0.3,0.3-0.6,0.4-0.8c0.2-0.2,0.4-0.4,0.6-0.5c0.3-0.1,0.5-0.1,0.8-0.1
		c0.3,0,0.7,0.1,1.1,0.3c0.3,0.1,0.6,0.3,0.8,0.5c0.3,0.2,0.5,0.5,0.6,0.7c0.1,0.2,0.1,0.4,0.1,0.7c0,0.2-0.1,0.5-0.2,0.8l-0.6,1.6
		L6,25.5z M7.1,25l2.8,1.1l0.3-0.6c0.1-0.2,0.1-0.4,0.2-0.5c0-0.2,0-0.3,0-0.4c0-0.1-0.2-0.3-0.3-0.4c-0.2-0.1-0.4-0.3-0.7-0.4
		c-0.3-0.1-0.6-0.2-0.8-0.2c-0.2,0-0.4,0-0.5,0.1c-0.1,0.1-0.3,0.2-0.4,0.3c-0.1,0.1-0.2,0.3-0.3,0.7L7.1,25z"/>
	<polygon class="st0" points="13,21.3 9.3,18.7 9.8,18 12.9,20.1 14.2,18.3 14.8,18.7 	"/>
	<path class="st0" d="M18.2,15.2l-0.7,0.7l-1-0.4l-1.3,1.3l0.5,1L15,18.4L13,14l0.7-0.7L18.2,15.2z M15.7,15.1l-1.6-0.7l0.8,1.6
		L15.7,15.1z"/>
	<path class="st0" d="M15.9,11.2l1.5-1c0.3-0.2,0.5-0.3,0.7-0.4c0.2-0.1,0.3-0.1,0.5-0.1c0.2,0,0.3,0,0.5,0.1
		c0.2,0.1,0.3,0.2,0.4,0.4c0.1,0.2,0.2,0.4,0.2,0.6c0,0.2,0,0.4-0.1,0.6c0.3-0.1,0.5-0.1,0.8,0c0.2,0.1,0.4,0.2,0.6,0.4
		c0.1,0.2,0.2,0.4,0.2,0.6c0,0.2,0,0.4-0.1,0.6s-0.2,0.4-0.4,0.5c-0.1,0.1-0.4,0.3-0.9,0.7l-1.3,0.9L15.9,11.2z M17.1,11.3l0.6,0.9
		l0.5-0.3c0.3-0.2,0.5-0.3,0.5-0.4c0.1-0.1,0.2-0.2,0.2-0.3c0-0.1,0-0.2-0.1-0.4c-0.1-0.1-0.2-0.2-0.3-0.2c-0.1,0-0.2,0-0.4,0.1
		c-0.1,0-0.3,0.2-0.6,0.4L17.1,11.3z M18.2,12.8l0.7,1l0.7-0.5c0.3-0.2,0.4-0.3,0.5-0.4c0.1-0.1,0.2-0.2,0.2-0.3
		c0-0.1,0-0.3-0.1-0.4C20,12,19.9,12,19.8,11.9c-0.1,0-0.2,0-0.4,0c-0.1,0-0.4,0.2-0.7,0.4L18.2,12.8z"/>
	<path class="st0" d="M21.1,10.4c-0.2-0.4-0.3-0.8-0.3-1.1c0-0.3,0-0.5,0.1-0.7c0.1-0.2,0.2-0.4,0.4-0.6c0.2-0.2,0.5-0.4,0.8-0.6
		c0.6-0.3,1.2-0.3,1.7-0.1c0.5,0.2,1,0.6,1.3,1.3c0.3,0.7,0.4,1.3,0.2,1.8c-0.2,0.5-0.6,1-1.2,1.2c-0.6,0.3-1.2,0.3-1.7,0.1
		C21.8,11.5,21.4,11.1,21.1,10.4 M21.9,10c0.2,0.5,0.5,0.8,0.8,0.9c0.3,0.1,0.7,0.1,1,0c0.3-0.2,0.5-0.4,0.6-0.7
		c0.1-0.3,0-0.7-0.2-1.2C24,8.5,23.7,8.2,23.4,8c-0.3-0.1-0.6-0.1-1,0c-0.3,0.2-0.6,0.4-0.7,0.7S21.7,9.5,21.9,10"/>
	<path class="st0" d="M26.7,10.4L25.5,6l1.9-0.5c0.5-0.1,0.8-0.2,1.1-0.1c0.2,0,0.4,0.1,0.6,0.3c0.2,0.2,0.3,0.4,0.4,0.6
		c0.1,0.3,0.1,0.6-0.1,0.9c-0.1,0.3-0.4,0.5-0.8,0.6C28.8,7.9,29,8,29.2,8.1c0.2,0.1,0.4,0.3,0.7,0.6l0.8,0.7l-1.1,0.3l-0.9-0.8
		c-0.3-0.3-0.5-0.5-0.6-0.5c-0.1-0.1-0.2-0.1-0.3-0.1c-0.1,0-0.3,0-0.5,0.1l-0.2,0l0.5,1.8L26.7,10.4z M26.9,7.6l0.7-0.2
		c0.4-0.1,0.7-0.2,0.8-0.3c0.1-0.1,0.2-0.1,0.2-0.3c0-0.1,0-0.2,0-0.4c0-0.1-0.1-0.3-0.2-0.3c-0.1-0.1-0.2-0.1-0.4-0.1
		c-0.1,0-0.3,0.1-0.7,0.2l-0.7,0.2L26.9,7.6z"/>
	<path class="st0" d="M35.4,9l-1,0.1l-0.5-1l-1.8,0.1l-0.3,1.1l-1,0.1l1.4-4.6l1-0.1L35.4,9z M33.6,7.3l-0.7-1.6l-0.5,1.7L33.6,7.3z
		"/>
	<polygon class="st0" points="36.4,9.1 36.7,5.4 35.3,5.3 35.4,4.5 39,4.8 38.9,5.5 37.6,5.4 37.3,9.2 	"/>
	<path class="st0" d="M39.4,7.1c0.1-0.4,0.3-0.8,0.5-1.1c0.2-0.2,0.3-0.4,0.6-0.5c0.2-0.1,0.4-0.2,0.7-0.3c0.3-0.1,0.6,0,1,0.1
		c0.6,0.2,1.1,0.5,1.4,1c0.3,0.5,0.4,1.1,0.2,1.8c-0.2,0.7-0.5,1.2-1,1.5c-0.5,0.3-1,0.4-1.7,0.2c-0.7-0.2-1.1-0.5-1.4-1
		C39.3,8.4,39.3,7.8,39.4,7.1 M40.4,7.3c-0.1,0.5-0.1,0.9,0.1,1.2c0.2,0.3,0.4,0.5,0.8,0.6c0.4,0.1,0.7,0,1-0.2
		c0.3-0.2,0.5-0.6,0.6-1.1c0.1-0.5,0.1-0.9-0.1-1.2c-0.2-0.3-0.4-0.5-0.8-0.6c-0.4-0.1-0.7,0-1,0.2C40.7,6.5,40.5,6.8,40.4,7.3"/>
	<polygon class="st0" points="44.7,11 45.4,9.2 44.9,6.1 45.9,6.6 46.2,8.6 47.8,7.4 48.8,7.8 46.2,9.6 45.5,11.3 	"/>
	<path class="st0" d="M49,13.2l2.7-3.6l1.2,0.9c0.4,0.3,0.7,0.6,0.8,0.7c0.2,0.2,0.3,0.5,0.3,0.7c0,0.3-0.1,0.6-0.3,0.9
		c-0.2,0.2-0.3,0.4-0.5,0.5c-0.2,0.1-0.4,0.1-0.6,0.1c-0.2,0-0.4,0-0.5-0.1c-0.2-0.1-0.5-0.3-0.8-0.5l-0.5-0.4l-1,1.4L49,13.2z
		 M52,10.7l-0.8,1l0.4,0.3c0.3,0.2,0.5,0.3,0.6,0.4c0.1,0,0.2,0,0.4,0c0.1,0,0.2-0.1,0.3-0.2c0.1-0.1,0.1-0.3,0.1-0.4
		c0-0.1-0.1-0.3-0.2-0.4c-0.1-0.1-0.2-0.2-0.5-0.4L52,10.7z"/>
	<path class="st0" d="M52.3,15.6l3.2-3.2l1.3,1.4c0.3,0.3,0.6,0.6,0.6,0.8c0.1,0.2,0.1,0.4,0.1,0.7c-0.1,0.2-0.2,0.5-0.4,0.6
		c-0.2,0.2-0.5,0.4-0.8,0.4c-0.3,0-0.6-0.1-0.9-0.3c0.1,0.2,0.1,0.4,0.1,0.6c0,0.2-0.1,0.5-0.2,0.9l-0.2,1l-0.8-0.8l0.2-1.2
		c0.1-0.4,0.1-0.7,0.1-0.8c0-0.1,0-0.2-0.1-0.3c0-0.1-0.1-0.2-0.3-0.4L54.3,15l-1.4,1.3L52.3,15.6z M54.8,14.5l0.5,0.5
		c0.3,0.3,0.5,0.5,0.6,0.5c0.1,0.1,0.2,0.1,0.3,0.1c0.1,0,0.2-0.1,0.3-0.2c0.1-0.1,0.2-0.2,0.2-0.3c0-0.1,0-0.2-0.1-0.4
		c0-0.1-0.2-0.2-0.5-0.5l-0.5-0.5L54.8,14.5z"/>
	<path class="st0" d="M57.8,22.5l-0.6-0.8l0.6-0.9l-1-1.5l-1.1,0.3l-0.5-0.8l4.7-1l0.5,0.8L57.8,22.5z M58.4,20.1l1.1-1.5l-1.7,0.4
		L58.4,20.1z"/>
	<path class="st0" d="M60.6,24.7l0.1,0.9c-0.5,0.1-0.9,0-1.3-0.2c-0.3-0.2-0.6-0.5-0.8-0.9c-0.2-0.5-0.3-1.1,0-1.6
		c0.2-0.5,0.6-0.9,1.3-1.2c0.7-0.3,1.3-0.4,1.8-0.2c0.5,0.2,0.9,0.6,1.2,1.1c0.2,0.5,0.3,1,0.1,1.4c-0.1,0.3-0.3,0.5-0.6,0.8
		l-0.6-0.7c0.2-0.1,0.3-0.3,0.4-0.5c0.1-0.2,0-0.4-0.1-0.6c-0.1-0.3-0.4-0.5-0.7-0.6c-0.3-0.1-0.7,0-1.2,0.2c-0.5,0.2-0.9,0.5-1,0.8
		s-0.1,0.6,0,0.9c0.1,0.2,0.3,0.4,0.5,0.5C60,24.8,60.3,24.8,60.6,24.7"/>
	<polygon class="st0" points="59.9,27.9 63.6,26.9 63.2,25.6 64,25.4 64.9,28.9 64.1,29.1 63.8,27.8 60.2,28.8 	"/>
	<rect x="60.6" y="30.3" transform="matrix(0.9887 -0.1502 0.1502 0.9887 -3.9053 9.7866)" class="st0" width="4.5" height="0.9"/>
	<path class="st0" d="M62.6,35.3l-0.3,0.9c-0.5-0.1-0.9-0.3-1.1-0.6c-0.2-0.3-0.4-0.7-0.4-1.2c0-0.6,0.2-1.1,0.6-1.5
		c0.4-0.4,1-0.6,1.7-0.6c0.8,0,1.3,0.2,1.8,0.5c0.4,0.4,0.7,0.9,0.7,1.5c0,0.6-0.1,1-0.5,1.4c-0.2,0.2-0.5,0.4-0.8,0.5L64,35.2
		c0.2-0.1,0.4-0.2,0.5-0.4c0.1-0.2,0.2-0.4,0.2-0.6c0-0.3-0.1-0.6-0.4-0.8c-0.2-0.2-0.6-0.3-1.2-0.3c-0.6,0-1,0.1-1.2,0.3
		c-0.2,0.2-0.4,0.5-0.3,0.8c0,0.2,0.1,0.4,0.2,0.6C62,35.1,62.3,35.2,62.6,35.3"/>
	<polygon class="st0" points="60.9,36.9 65.4,37.5 64.9,40.9 64.2,40.8 64.5,38.3 63.5,38.2 63.2,40.5 62.4,40.4 62.7,38.1 
		61.5,37.9 61.2,40.4 60.4,40.3 	"/>
	<path class="st0" d="M21.3,61.5l0.6,0.7c-0.4,0.4-0.7,0.6-1.1,0.6c-0.4,0.1-0.8,0-1.2-0.3c-0.5-0.3-0.9-0.7-1-1.3
		c-0.1-0.5,0-1.1,0.3-1.8c0.4-0.7,0.8-1.1,1.4-1.2c0.5-0.2,1.1-0.1,1.6,0.2c0.5,0.3,0.8,0.6,0.9,1.1c0.1,0.3,0.1,0.6,0,1l-0.9-0.3
		c0.1-0.2,0.1-0.4,0-0.7c-0.1-0.2-0.2-0.4-0.4-0.5c-0.3-0.2-0.6-0.2-0.9-0.1c-0.3,0.1-0.6,0.4-0.8,0.9c-0.3,0.5-0.4,0.9-0.3,1.2
		c0.1,0.3,0.2,0.5,0.5,0.7c0.2,0.1,0.4,0.2,0.7,0.1C20.8,61.9,21,61.8,21.3,61.5"/>
	<polygon class="st0" points="22.4,64 24,59.7 27.1,60.9 26.9,61.6 24.6,60.7 24.2,61.7 26.4,62.5 26.1,63.2 24,62.4 23.5,63.6 
		25.9,64.4 25.6,65.2 	"/>
	<path class="st0" d="M27,65.5l0.9-4.4l1.9,0.4c0.5,0.1,0.8,0.2,1,0.3c0.2,0.1,0.3,0.3,0.4,0.5c0.1,0.2,0.1,0.5,0.1,0.7
		c-0.1,0.3-0.2,0.6-0.5,0.8c-0.2,0.2-0.6,0.3-1,0.2c0.2,0.2,0.3,0.3,0.4,0.5c0.1,0.2,0.2,0.4,0.4,0.8l0.4,1l-1.1-0.2L29.4,65
		c-0.2-0.4-0.3-0.6-0.3-0.7c-0.1-0.1-0.1-0.2-0.2-0.2c-0.1-0.1-0.2-0.1-0.4-0.1l-0.2,0l-0.4,1.9L27,65.5z M28.4,63.2l0.7,0.1
		c0.4,0.1,0.7,0.1,0.8,0.1c0.1,0,0.2-0.1,0.3-0.1c0.1-0.1,0.1-0.2,0.2-0.3c0-0.1,0-0.3,0-0.4c-0.1-0.1-0.2-0.2-0.3-0.2
		c-0.1,0-0.3-0.1-0.7-0.1L28.6,62L28.4,63.2z"/>
	<polygon class="st0" points="33,66.5 33.2,62.7 31.8,62.6 31.9,61.9 35.5,62 35.4,62.8 34.1,62.7 33.9,66.5 	"/>
	
		<rect x="36.1" y="62" transform="matrix(0.9987 -5.058856e-02 5.058856e-02 0.9987 -3.2018 1.9298)" class="st0" width="0.9" height="4.5"/>
	<polygon class="st0" points="38.4,66.4 37.7,61.9 40.8,61.4 40.9,62.2 38.8,62.5 38.9,63.6 40.8,63.3 40.9,64 39,64.3 39.3,66.2 	
		"/>
	<rect x="41.9" y="61" transform="matrix(0.9678 -0.2516 0.2516 0.9678 -14.5649 12.7012)" class="st0" width="0.9" height="4.5"/>
	<polygon class="st0" points="44.7,65 43.1,60.8 46.2,59.6 46.5,60.3 44.2,61.2 44.6,62.1 46.7,61.3 47,62 44.9,62.8 45.3,64 
		47.7,63.1 47.9,63.8 	"/>
	<path class="st0" d="M46.9,59.3l1.4-0.8c0.3-0.2,0.6-0.3,0.8-0.4c0.3-0.1,0.5-0.1,0.8,0c0.3,0.1,0.5,0.2,0.7,0.4
		c0.2,0.2,0.5,0.5,0.7,0.9c0.2,0.3,0.3,0.6,0.4,0.9c0.1,0.3,0.1,0.7,0,0.9c-0.1,0.2-0.2,0.4-0.4,0.6c-0.1,0.2-0.4,0.3-0.7,0.5
		l-1.5,0.9L46.9,59.3z M48.1,59.5l1.5,2.6l0.6-0.3c0.2-0.1,0.4-0.2,0.5-0.3c0.1-0.1,0.2-0.2,0.2-0.3c0-0.1,0-0.3,0-0.5
		c0-0.2-0.2-0.5-0.3-0.8c-0.2-0.3-0.3-0.5-0.5-0.7c-0.1-0.1-0.3-0.2-0.4-0.3c-0.1,0-0.3,0-0.5,0c-0.1,0-0.3,0.2-0.7,0.3L48.1,59.5z"
		/>
	<polygon class="st0" points="8.7,45.2 9.7,46.5 11.1,45.9 10.3,47.2 11.2,48.5 9.7,48 8.8,49.3 8.8,47.8 7.3,47.3 8.7,46.8 	"/>
	<polygon class="st0" points="11.7,50.8 12.7,52 14.1,51.5 13.3,52.8 14.2,54 12.7,53.6 11.8,54.9 11.8,53.3 10.3,52.9 11.7,52.3 	
		"/>
	<polygon class="st0" points="61.3,45.2 60.4,46.5 58.9,45.9 59.8,47.2 58.8,48.5 60.3,48 61.2,49.3 61.2,47.8 62.7,47.3 61.3,46.8 
			"/>
	<polygon class="st0" points="58.3,50.8 57.3,52 55.9,51.5 56.7,52.8 55.8,54 57.3,53.6 58.2,54.9 58.2,53.3 59.7,52.9 58.3,52.3 	
		"/>
	<path class="st0" d="M57.8,35c0,12.6-10.2,22.8-22.8,22.8c-12.6,0-22.8-10.2-22.8-22.8c0-12.6,10.2-22.8,22.8-22.8
		C47.6,12.2,57.8,22.4,57.8,35 M30.8,31.8c0-1.5-0.1-2.6-0.4-3.4s-0.9-1.4-1.8-2c-0.9-0.6-2-0.8-3.4-0.8c-1.4,0-2.5,0.3-3.4,1
		s-1.4,1.4-1.6,2.1c-0.2,0.8-0.3,2-0.3,3.8v5.4c0,1.2,0,2.2,0.1,2.8c0.1,0.6,0.3,1.2,0.7,1.8c0.4,0.6,0.9,1,1.6,1.4
		c0.7,0.4,1.4,0.6,2.2,0.6c0.7,0,1.2-0.1,1.7-0.4c0.5-0.3,0.9-0.7,1.2-1.3l0.4,1.3h2.9v-9.7h-5.5v2.7h0.9v2.1c0,0.8-0.1,1.4-0.2,1.7
		c-0.1,0.3-0.4,0.4-0.7,0.4c-0.3,0-0.5-0.1-0.6-0.4c-0.1-0.3-0.2-0.8-0.2-1.6v-8.7c0-0.9,0.1-1.5,0.2-1.7c0.1-0.2,0.3-0.3,0.6-0.3
		c0.3,0,0.5,0.1,0.6,0.4c0.1,0.3,0.1,0.9,0.1,1.9v1.6h4.7V31.8z M31.9,26v18h7.5v-3.6h-2.9V26H31.9z M40.2,44h4.7v-7.3h1.3
		c1,0,1.9-0.1,2.5-0.4c0.6-0.3,1.1-0.7,1.3-1.2c0.2-0.5,0.4-1.4,0.4-2.5V31c0-1.1-0.1-2-0.2-2.5c-0.1-0.5-0.4-1-0.7-1.4
		c-0.3-0.4-0.9-0.7-1.5-0.9c-0.7-0.2-1.7-0.3-2.9-0.3h-4.7V44z M46,29.3c0.2,0.2,0.3,0.6,0.3,1.2V32c0,0.7-0.1,1.1-0.3,1.3
		c-0.2,0.2-0.5,0.3-0.9,0.3c-0.1,0-0.2,0-0.3,0v-4.6C45.5,29.1,45.9,29.2,46,29.3 M34.3,18.1h-2.4l2,1.4L33,21.8l2-1.4l2,1.4
		l-0.8-2.3l2-1.4h-2.4L35,15.8L34.3,18.1z M27,19.6h-1.6l1.3,0.9l-0.5,1.5l1.3-0.9l1.3,0.9l-0.5-1.5l1.3-0.9h-1.6l-0.5-1.5L27,19.6z
		 M42.1,19.6h-1.6l1.3,0.9l-0.5,1.5l1.3-0.9l1.3,0.9l-0.5-1.5l1.3-0.9H43l-0.5-1.5L42.1,19.6z"/>
</g>
</svg>
