<?xml version="1.0" encoding="utf-8"?>
<!-- Generator: Adobe Illustrator 23.0.0, SVG Export Plug-In . SVG Version: 6.00 Build 0)  -->
<svg version="1.1" id="Capa_1" xmlns="http://www.w3.org/2000/svg" xmlns:xlink="http://www.w3.org/1999/xlink" x="0px" y="0px"
	 viewBox="0 0 70 70" style="enable-background:new 0 0 70 70;" xml:space="preserve">
<style type="text/css">
	.st0{fill:#6F6F6E;}
</style>
<g>
	<path class="st0" d="M70,35c0,19.3-15.7,35-35,35C15.7,70,0,54.3,0,35C0,15.7,15.7,0,35,0C54.3,0,70,15.7,70,35 M35,1.1
		C16.3,1.1,1.2,16.3,1.2,35c0,18.7,15.2,33.9,33.9,33.9c18.7,0,33.9-15.2,33.9-33.9C68.9,16.3,53.7,1.1,35,1.1"/>
	<path class="st0" d="M7.1,35.4l-0.9,0l0-2.3l2.1,0c0.2,0.2,0.4,0.5,0.6,1c0.2,0.4,0.3,0.9,0.3,1.3c0,0.6-0.1,1-0.3,1.5
		c-0.2,0.4-0.6,0.7-1,1C7.4,37.9,7,38,6.5,38c-0.6,0-1.1-0.1-1.5-0.3c-0.4-0.2-0.8-0.6-1-1c-0.2-0.3-0.3-0.8-0.3-1.3
		c0-0.7,0.1-1.2,0.4-1.6c0.3-0.4,0.7-0.6,1.1-0.7l0.2,1.1c-0.3,0.1-0.5,0.2-0.6,0.4c-0.1,0.2-0.2,0.5-0.2,0.8c0,0.5,0.2,0.8,0.5,1.1
		c0.3,0.3,0.7,0.4,1.3,0.4c0.6,0,1.1-0.2,1.4-0.4c0.3-0.3,0.5-0.7,0.5-1.1c0-0.2-0.1-0.4-0.1-0.7c-0.1-0.2-0.2-0.4-0.3-0.6l-0.7,0
		L7.1,35.4z"/>
	<path class="st0" d="M6.5,31.9c-0.5-0.1-1-0.3-1.3-0.5C5,31.2,4.8,31,4.6,30.7c-0.2-0.2-0.3-0.5-0.3-0.8c-0.1-0.4-0.1-0.7,0-1.2
		c0.2-0.8,0.5-1.3,1.1-1.7c0.6-0.4,1.3-0.5,2.1-0.3C8.4,27,9,27.3,9.4,27.9c0.4,0.6,0.5,1.2,0.3,2c-0.2,0.8-0.5,1.3-1.1,1.7
		C8.1,31.9,7.4,32,6.5,31.9 M6.7,30.8c0.6,0.1,1.1,0.1,1.4-0.1c0.4-0.2,0.6-0.5,0.7-0.9c0.1-0.4,0-0.8-0.2-1.1
		c-0.2-0.3-0.7-0.6-1.3-0.7c-0.6-0.1-1.1-0.1-1.4,0.1c-0.3,0.2-0.6,0.5-0.7,1c-0.1,0.4,0,0.8,0.2,1.1C5.7,30.4,6.1,30.6,6.7,30.8"/>
	<path class="st0" d="M7.9,25.8C7.4,25.5,7,25.3,6.7,25c-0.2-0.2-0.4-0.5-0.5-0.8c-0.1-0.3-0.2-0.6-0.2-0.8c0-0.4,0.1-0.7,0.3-1.1
		c0.3-0.7,0.8-1.2,1.4-1.4c0.6-0.2,1.3-0.2,2.1,0.2c0.8,0.4,1.3,0.8,1.6,1.5c0.3,0.6,0.2,1.3-0.1,2c-0.3,0.7-0.8,1.2-1.4,1.4
		C9.4,26.2,8.6,26.1,7.9,25.8 M8.3,24.7c0.6,0.2,1,0.3,1.4,0.2c0.4-0.1,0.7-0.4,0.9-0.8c0.2-0.4,0.2-0.8,0-1.2
		c-0.2-0.4-0.5-0.7-1.1-0.9c-0.6-0.2-1-0.3-1.4-0.2c-0.4,0.1-0.7,0.4-0.8,0.8C7,23,7,23.4,7.2,23.8C7.4,24.2,7.7,24.5,8.3,24.7"/>
	<path class="st0" d="M8.5,18.4l1.2-1.6c0.3-0.4,0.5-0.6,0.7-0.8c0.3-0.2,0.5-0.3,0.9-0.4c0.3,0,0.7,0,1,0.1
		c0.3,0.1,0.7,0.3,1.1,0.6c0.4,0.3,0.6,0.5,0.8,0.8c0.2,0.3,0.4,0.7,0.4,1c0,0.3,0,0.5-0.1,0.9c-0.1,0.2-0.2,0.5-0.5,0.8l-1.2,1.6
		L8.5,18.4z M9.9,18l2.9,2.1l0.5-0.6c0.2-0.2,0.3-0.4,0.3-0.6c0.1-0.2,0.1-0.3,0.1-0.5c0-0.2-0.1-0.3-0.2-0.5
		c-0.2-0.2-0.4-0.4-0.7-0.7c-0.3-0.2-0.6-0.4-0.8-0.5c-0.2-0.1-0.4-0.1-0.6-0.1c-0.2,0-0.3,0.1-0.5,0.3c-0.1,0.1-0.3,0.3-0.6,0.7
		L9.9,18z"/>
	<polygon class="st0" points="17.5,15.7 14.4,11.4 15.7,10.5 18.6,12.8 17.2,9.3 18.5,8.4 21.7,12.6 20.9,13.2 18.4,9.9 20,13.9 
		19.2,14.5 15.8,11.7 18.3,15.1 	"/>
	<path class="st0" d="M26.9,10.2l-1.1,0.5L25,9.8L23,10.7l0.1,1.3l-1,0.5l-0.3-5.7l1-0.5L26.9,10.2z M24.3,9.1l-1.5-1.5l0.1,2.1
		L24.3,9.1z"/>
	<polygon class="st0" points="27.4,10.1 26.3,4.9 27.3,4.7 30.2,7.7 29.5,4.2 30.4,4 31.6,9.2 30.5,9.5 27.7,6.5 28.4,9.9 	"/>
	<path class="st0" d="M32.5,3.8l1.1,0l0,2.9c0,0.5,0,0.8,0.1,0.9C33.7,7.8,33.8,8,34,8.1c0.2,0.1,0.4,0.2,0.7,0.2
		c0.3,0,0.5-0.1,0.7-0.2c0.2-0.1,0.2-0.3,0.3-0.5c0-0.2,0-0.5,0-0.9l0-2.9l1.1,0l0,2.8c0,0.6,0,1.1-0.1,1.4
		c-0.1,0.3-0.2,0.5-0.3,0.7C36.2,8.8,36,8.9,35.8,9c-0.3,0.1-0.6,0.2-1,0.2c-0.5,0-0.9,0-1.2-0.2c-0.3-0.1-0.5-0.3-0.6-0.4
		c-0.2-0.2-0.3-0.4-0.3-0.6c-0.1-0.3-0.1-0.8-0.1-1.3L32.5,3.8z"/>
	<polygon class="st0" points="37.9,9.2 38.8,3.9 42.4,4.6 42.2,5.5 39.7,5 39.5,6.3 41.7,6.7 41.5,7.5 39.3,7.2 38.9,9.4 	"/>
	<path class="st0" d="M46.3,11.5l-1.1-0.4l0-1.3l-2-0.7l-0.8,1l-1.1-0.4L45,5.4l1.1,0.4L46.3,11.5z M45.2,8.9l0-2.1l-1.3,1.6
		L45.2,8.9z"/>
	<path class="st0" d="M50.4,11.8l0.7,0.8c-0.4,0.4-0.9,0.7-1.4,0.7c-0.5,0-0.9-0.1-1.4-0.4c-0.6-0.4-1-0.9-1.1-1.5
		c-0.1-0.6,0-1.3,0.4-2.1c0.5-0.8,1-1.2,1.7-1.4c0.6-0.2,1.3-0.1,1.9,0.3c0.6,0.3,0.9,0.8,1.1,1.3c0.1,0.3,0.1,0.7,0,1.1l-1-0.3
		c0.1-0.3,0.1-0.5,0-0.8C51.2,9.3,51,9.1,50.7,9c-0.3-0.2-0.7-0.2-1-0.1c-0.4,0.1-0.7,0.4-1,1c-0.3,0.6-0.5,1.1-0.4,1.4
		c0.1,0.4,0.3,0.7,0.6,0.9c0.2,0.1,0.5,0.2,0.8,0.1C49.9,12.2,50.1,12,50.4,11.8"/>
	<polygon class="st0" points="51.8,15.3 54.7,12 53.6,10.9 54.2,10.2 57.3,13.1 56.7,13.7 55.6,12.7 52.6,16 	"/>
	<path class="st0" d="M58.4,14.2l0.7,0.9l-2.3,1.8c-0.4,0.3-0.6,0.5-0.7,0.6c-0.1,0.2-0.2,0.4-0.2,0.6c0,0.2,0.1,0.4,0.3,0.7
		c0.2,0.2,0.4,0.4,0.6,0.4c0.2,0,0.4,0,0.5-0.1c0.2-0.1,0.4-0.3,0.7-0.5l2.3-1.8l0.7,0.8l-2.2,1.7c-0.5,0.4-0.9,0.6-1.1,0.8
		c-0.2,0.1-0.5,0.2-0.7,0.2c-0.2,0-0.5-0.1-0.7-0.2c-0.2-0.1-0.5-0.4-0.8-0.7c-0.3-0.4-0.5-0.7-0.6-1s-0.1-0.5,0-0.8
		c0.1-0.2,0.1-0.4,0.3-0.6c0.2-0.2,0.5-0.5,1-0.9L58.4,14.2z"/>
	<path class="st0" d="M57.3,21.7l4.8-2.3l1,2c0.3,0.5,0.4,0.9,0.4,1.2c0,0.3,0,0.5-0.2,0.8c-0.2,0.2-0.4,0.4-0.7,0.6
		c-0.4,0.2-0.7,0.2-1,0.1c-0.3-0.1-0.6-0.3-0.9-0.7c0,0.3-0.1,0.5-0.1,0.7s-0.2,0.5-0.5,0.9l-0.6,1l-0.6-1.2l0.7-1.2
		c0.3-0.4,0.4-0.7,0.5-0.9c0.1-0.1,0.1-0.3,0.1-0.4c0-0.1-0.1-0.3-0.2-0.5l-0.1-0.2l-2,1L57.3,21.7z M60.6,21.3l0.4,0.7
		c0.2,0.5,0.4,0.7,0.5,0.8c0.1,0.1,0.2,0.2,0.3,0.2c0.1,0,0.3,0,0.4-0.1c0.2-0.1,0.3-0.2,0.3-0.3c0.1-0.1,0.1-0.3,0-0.5
		c0-0.1-0.1-0.3-0.3-0.7l-0.4-0.8L60.6,21.3z"/>
	<rect x="59.5" y="25.7" transform="matrix(0.9516 -0.3073 0.3073 0.9516 -5.0518 20.3845)" class="st0" width="5.3" height="1.1"/>
	<polygon class="st0" points="60.2,28.5 65.4,27.7 65.6,28.7 62.5,31.4 66,30.8 66.1,31.8 60.9,32.7 60.7,31.7 63.8,29 60.4,29.5 	
		"/>
	<path class="st0" d="M62.8,36.2l0.9,0l-0.1,2.3l-2.1-0.1c-0.2-0.2-0.4-0.6-0.5-1c-0.1-0.4-0.2-0.9-0.2-1.3c0-0.6,0.2-1,0.4-1.4
		s0.6-0.7,1-0.9c0.4-0.2,0.9-0.3,1.4-0.3c0.6,0,1,0.2,1.5,0.4c0.4,0.2,0.7,0.6,0.9,1.1c0.2,0.3,0.2,0.8,0.2,1.3
		c0,0.7-0.2,1.2-0.5,1.5c-0.3,0.4-0.7,0.6-1.2,0.7l-0.2-1.1c0.3-0.1,0.5-0.2,0.6-0.4c0.2-0.2,0.2-0.5,0.3-0.8c0-0.5-0.1-0.8-0.4-1.1
		c-0.3-0.3-0.7-0.4-1.3-0.5c-0.6,0-1.1,0.1-1.4,0.4c-0.3,0.3-0.5,0.6-0.5,1.1c0,0.2,0,0.5,0.1,0.7c0.1,0.2,0.2,0.4,0.3,0.6l0.7,0
		L62.8,36.2z"/>
	<path class="st0" d="M15.6,59.9l3-4.4l1.4,1c0.5,0.4,0.9,0.6,1,0.8c0.2,0.2,0.3,0.5,0.3,0.9c0,0.3-0.1,0.7-0.3,1
		c-0.2,0.3-0.4,0.5-0.6,0.6c-0.2,0.1-0.4,0.2-0.7,0.2c-0.2,0-0.4,0-0.6-0.1c-0.2-0.1-0.6-0.3-1-0.6l-0.6-0.4l-1.1,1.7L15.6,59.9z
		 M19,56.9l-0.9,1.2l0.5,0.3c0.3,0.2,0.6,0.4,0.7,0.4c0.1,0,0.3,0,0.4,0c0.1-0.1,0.2-0.1,0.3-0.3c0.1-0.2,0.2-0.3,0.1-0.5
		c0-0.2-0.1-0.3-0.2-0.4c-0.1-0.1-0.3-0.2-0.6-0.5L19,56.9z"/>
	<path class="st0" d="M20.3,63l2.2-4.9l2.1,0.9c0.5,0.2,0.9,0.4,1.1,0.6c0.2,0.2,0.3,0.4,0.4,0.7c0,0.3,0,0.6-0.1,0.9
		c-0.2,0.4-0.4,0.6-0.7,0.8c-0.3,0.1-0.7,0.2-1.2,0c0.2,0.2,0.3,0.4,0.3,0.6c0.1,0.2,0.1,0.6,0.2,1l0.2,1.2l-1.2-0.5L23.2,63
		c-0.1-0.5-0.2-0.8-0.2-0.9c0-0.1-0.1-0.3-0.2-0.3s-0.2-0.2-0.5-0.3l-0.2-0.1l-0.9,2L20.3,63z M22.5,60.6l0.7,0.3
		c0.5,0.2,0.8,0.3,0.9,0.3c0.1,0,0.3,0,0.4-0.1c0.1-0.1,0.2-0.2,0.3-0.3c0.1-0.2,0.1-0.3,0-0.5c0-0.1-0.1-0.3-0.3-0.4
		c-0.1,0-0.3-0.2-0.7-0.3l-0.8-0.3L22.5,60.6z"/>
	<path class="st0" d="M31,66.4l-1.1-0.2l-0.2-1.3l-2.1-0.4l-0.7,1.1l-1.1-0.2l3.1-4.8l1.1,0.2L31,66.4z M29.5,63.9l-0.3-2.1
		l-1.1,1.8L29.5,63.9z"/>
	<path class="st0" d="M35.5,64.6l1,0.4c-0.2,0.6-0.4,1-0.8,1.3c-0.4,0.3-0.9,0.4-1.4,0.4c-0.7,0-1.3-0.3-1.7-0.8
		c-0.4-0.5-0.7-1.2-0.6-2c0-0.9,0.3-1.6,0.7-2c0.5-0.5,1.1-0.7,1.8-0.7c0.7,0,1.2,0.2,1.6,0.6c0.2,0.2,0.4,0.6,0.5,1l-1.1,0.2
		c-0.1-0.3-0.2-0.5-0.4-0.7C35,62.1,34.7,62,34.4,62c-0.4,0-0.7,0.1-1,0.4c-0.3,0.3-0.4,0.7-0.4,1.4c0,0.7,0.1,1.2,0.3,1.4
		c0.2,0.3,0.5,0.4,0.9,0.5c0.3,0,0.5-0.1,0.7-0.3C35.3,65.3,35.4,65,35.5,64.6"/>
	<polygon class="st0" points="39.3,66.2 38.6,61.9 37.1,62.1 36.9,61.2 41.1,60.6 41.2,61.5 39.7,61.7 40.3,66.1 	"/>
	
		<rect x="42.3" y="60.1" transform="matrix(0.9628 -0.2703 0.2703 0.9628 -15.3759 13.9168)" class="st0" width="1.1" height="5.3"/>
	<path class="st0" d="M48,61.6l1.1-0.1c0.1,0.6,0,1.1-0.2,1.5c-0.2,0.4-0.6,0.7-1.1,1c-0.6,0.3-1.3,0.3-1.9,0
		c-0.6-0.3-1.1-0.8-1.4-1.5c-0.4-0.8-0.4-1.5-0.2-2.2c0.2-0.6,0.7-1.1,1.4-1.4c0.6-0.3,1.2-0.3,1.7-0.1c0.3,0.1,0.6,0.3,0.9,0.7
		l-0.9,0.7c-0.2-0.2-0.4-0.4-0.6-0.4c-0.2-0.1-0.5,0-0.8,0.1c-0.4,0.2-0.6,0.4-0.7,0.8c-0.1,0.4,0,0.8,0.2,1.4
		c0.3,0.6,0.6,1,0.9,1.2c0.3,0.2,0.7,0.2,1,0c0.3-0.1,0.4-0.3,0.6-0.5C48.1,62.3,48.1,62,48,61.6"/>
	<polygon class="st0" points="51.1,62.2 48.1,57.8 51.4,55.5 51.9,56.3 49.5,57.9 50.2,58.9 52.4,57.4 52.9,58.1 50.7,59.6 
		51.5,60.8 54,59.1 54.5,59.9 	"/>
	<polygon class="st0" points="8.7,45.2 9.7,46.5 11.1,45.9 10.3,47.2 11.2,48.5 9.7,48 8.8,49.3 8.8,47.8 7.3,47.3 8.7,46.8 	"/>
	<polygon class="st0" points="61.3,45.2 60.4,46.5 58.9,45.9 59.8,47.2 58.8,48.5 60.3,48 61.2,49.3 61.2,47.8 62.7,47.3 61.3,46.8 
			"/>
	<path class="st0" d="M57.8,35c0,12.6-10.2,22.8-22.8,22.8c-12.6,0-22.8-10.2-22.8-22.8c0-12.6,10.2-22.8,22.8-22.8
		C47.6,12.3,57.8,22.4,57.8,35 M27.1,30.7c0-1.5-0.1-2.6-0.4-3.4c-0.3-0.8-0.9-1.4-1.8-2c-0.9-0.6-2-0.8-3.4-0.8
		c-1.4,0-2.5,0.3-3.4,1c-0.9,0.6-1.4,1.4-1.6,2.1c-0.2,0.8-0.3,2-0.3,3.8v5.4c0,1.2,0,2.2,0.1,2.8c0.1,0.6,0.3,1.2,0.7,1.8
		c0.4,0.6,0.9,1,1.6,1.4c0.7,0.4,1.4,0.6,2.2,0.6c0.7,0,1.2-0.1,1.7-0.4c0.5-0.3,0.9-0.7,1.2-1.3l0.4,1.3h2.9v-9.7h-5.5v2.7h0.9V38
		c0,0.8-0.1,1.4-0.2,1.7c-0.1,0.3-0.4,0.4-0.7,0.4c-0.3,0-0.5-0.1-0.6-0.4c-0.1-0.3-0.2-0.8-0.2-1.6v-8.7c0-0.9,0.1-1.5,0.2-1.7
		c0.1-0.2,0.3-0.3,0.6-0.3c0.3,0,0.5,0.1,0.6,0.4c0.1,0.3,0.1,0.9,0.1,1.9v1.6h4.7V30.7z M36.6,24.8l-1.1,8.4l-0.7-4.6
		c-0.2-1.5-0.4-2.7-0.6-3.8h-6.1v18h4.1l0-11.9L34,42.8h2.9l1.6-12.2l0,12.2h4.1v-18H36.6z M43.8,42.8h4.7v-7.3h1.3
		c1,0,1.9-0.1,2.5-0.4c0.6-0.3,1.1-0.7,1.3-1.2c0.2-0.5,0.4-1.4,0.4-2.5v-1.6c0-1.1-0.1-2-0.2-2.5c-0.1-0.5-0.4-1-0.7-1.4
		c-0.3-0.4-0.9-0.7-1.5-0.9c-0.7-0.2-1.7-0.3-2.9-0.3h-4.7V42.8z M49.7,28.2c0.2,0.2,0.3,0.6,0.3,1.2v1.5c0,0.7-0.1,1.1-0.3,1.3
		c-0.2,0.2-0.5,0.3-0.9,0.3c-0.1,0-0.2,0-0.3,0v-4.6C49.1,27.9,49.5,28,49.7,28.2 M34.3,18.1h-2.4l2,1.4L33,21.8l2-1.4l2,1.4
		l-0.8-2.3l2-1.4h-2.4L35,15.8L34.3,18.1z M27,19.6h-1.6l1.3,0.9l-0.5,1.5l1.3-0.9l1.3,0.9l-0.5-1.5l1.3-0.9h-1.6l-0.5-1.5L27,19.6z
		 M42.1,19.6h-1.6l1.3,0.9l-0.5,1.5l1.3-0.9l1.3,0.9l-0.5-1.5l1.3-0.9H43l-0.5-1.5L42.1,19.6z M26.1,46.8c-0.1-0.5-0.2-0.9-0.5-1.1
		c-0.3-0.3-0.6-0.4-1-0.4c-0.5,0-1,0.2-1.3,0.7c-0.3,0.5-0.4,1-0.4,1.8c0,0.7,0.1,1.3,0.4,1.7c0.3,0.5,0.7,0.7,1.2,0.7
		c0.5,0,0.8-0.2,1.1-0.5c0.3-0.3,0.4-0.8,0.5-1.4h-0.5c0,0.4-0.1,0.7-0.3,1c-0.2,0.3-0.4,0.4-0.8,0.4c-0.4,0-0.7-0.2-0.9-0.5
		c-0.2-0.4-0.3-0.8-0.3-1.4c0-0.5,0.1-1,0.3-1.3c0.2-0.4,0.5-0.5,0.9-0.5c0.3,0,0.5,0.1,0.7,0.3c0.2,0.2,0.3,0.4,0.3,0.7H26.1z
		 M26.7,50.1h2.5v-0.5h-2v-1.6H29v-0.5h-1.9v-1.5h2v-0.5h-2.5V50.1z M29.7,50.1h0.5v-2h1.2c0.2,0,0.3,0.1,0.4,0.2
		c0.1,0.1,0.2,0.3,0.2,0.7c0,0.1,0,0.3,0,0.6c0,0.3,0,0.5,0.1,0.6h0.5c-0.1-0.1-0.1-0.3-0.2-0.6c0-0.2,0-0.5,0-0.7
		c0-0.2-0.1-0.5-0.1-0.6c-0.1-0.2-0.2-0.3-0.4-0.3c0.2-0.1,0.4-0.2,0.5-0.4c0.1-0.2,0.2-0.5,0.2-0.8c0-0.4-0.1-0.7-0.3-0.9
		s-0.5-0.3-0.8-0.3h-1.7V50.1z M30.1,47.6v-1.6h1.2c0.2,0,0.4,0.1,0.5,0.2c0.1,0.1,0.2,0.3,0.2,0.6c0,0.3-0.1,0.5-0.2,0.7
		c-0.1,0.1-0.3,0.2-0.6,0.2H30.1z M33.9,50.1h0.5v-4.1h1.2v-0.5h-2.9v0.5h1.2V50.1z M35.9,50.1h0.5v-4.6h-0.5V50.1z M37.2,50.1h0.5
		v-2.1h1.6v-0.5h-1.6v-1.5h1.9v-0.5h-2.4V50.1z M39.9,50.1h0.5v-4.6h-0.5V50.1z M41.2,50.1h2.5v-0.5h-2v-1.6h1.9v-0.5h-1.9v-1.5h2
		v-0.5h-2.5V50.1z M44.2,50.1h1.2c0.6,0,1-0.2,1.3-0.6c0.3-0.4,0.4-1,0.4-1.8c0-0.7-0.1-1.3-0.4-1.7c-0.3-0.4-0.7-0.6-1.3-0.6h-1.2
		V50.1z M44.6,45.9h0.8c0.4,0,0.7,0.2,0.9,0.5c0.2,0.3,0.3,0.7,0.3,1.3c0,0.7-0.1,1.2-0.4,1.5c-0.3,0.2-0.5,0.4-0.8,0.4h-0.8V45.9z"
		/>
</g>
</svg>
