<?xml version="1.0" encoding="utf-8"?>
<!-- Generator: Adobe Illustrator 23.0.0, SVG Export Plug-In . SVG Version: 6.00 Build 0)  -->
<svg version="1.1" id="Capa_1" xmlns="http://www.w3.org/2000/svg" xmlns:xlink="http://www.w3.org/1999/xlink" x="0px" y="0px"
	 viewBox="0 0 177.1 63.5" style="enable-background:new 0 0 177.1 63.5;" xml:space="preserve">
<style type="text/css">
	.st0{fill-rule:evenodd;clip-rule:evenodd;fill:#F7DA14;}
	.st1{fill-rule:evenodd;clip-rule:evenodd;fill:#17549D;}
	.st2{fill-rule:evenodd;clip-rule:evenodd;fill:#FFFFFF;}
	.st3{fill:#17549D;}
</style>
<g>
	<path class="st0" d="M34.6,15.2c-0.1-0.1-0.2-0.2-0.3-0.3c0,0,0,0-0.1-0.1c-0.1-0.1-0.2-0.1-0.2-0.2l6.6-1.2l-7.1-1.3
		c4.5-1.9,2.8-3.8,6-3.9c-2.9-1.5-2.8,1.1-6.8,1.2l3.8-5.6L30.8,8c1.9-4.5-0.7-4.6,1.5-7c-2.9,1-1.4,2.6-3.5,5.1
		c-0.1,0.1-0.2,0.3-0.3,0.4c0,0-0.1,0.1-0.1,0.1L27.2,0l-1.3,7.1C24,2.6,22.1,4.3,22,1c-1.5,2.9,1.1,2.8,1.2,6.8l-5.6-3.8l4.1,5.9
		c-4.5-1.9-4.6,0.7-7-1.5c0.9,2.8,2.4,1.6,4.7,3.2c0.1,0.1,0.2,0.1,0.3,0.2c0.2,0.2,0.4,0.4,0.7,0.6l-6.6,1.2l7.1,1.3
		c-4.5,1.9-2.8,3.8-6,3.9c2.9,1.5,2.8-1.1,6.8-1.2L17.6,23l5.9-4.1c-1.9,4.5,0.7,4.6-1.5,7c2.6-0.9,1.7-2.3,3-4.4
		c0-0.1,0.1-0.1,0.1-0.2c0.1-0.1,0.1-0.2,0.2-0.3c0.2-0.2,0.4-0.5,0.6-0.7l1.2,6.6l1.3-7.1c1.9,4.5,3.8,2.8,3.9,6
		c1.3-2.6-0.6-2.8-1.1-5.5c0-0.1,0-0.2-0.1-0.4c0-0.2,0-0.4-0.1-0.6c0-0.1,0-0.2,0-0.3l5.6,3.8l-4.1-5.9c4.5,1.9,4.6-0.7,7,1.5
		C38.7,15.7,37.1,17.2,34.6,15.2"/>
	<path class="st1" d="M32.8,55.8l-0.1,0.1l0-0.1l0.1-0.2l0.1-0.8c0.1-0.5-0.4-1.1-0.5-2.4c-0.1-1.2,0-2.2,0.4-3.4
		c0.1,1.7,0.6,2.5,0.8,3.8l0,0.3v0.2l0,0.3l-0.1,0.6v0.2l-0.1,0.2l-0.2,0.3L33,55.1L33,55.4L32.8,55.8L32.8,55.8z"/>
	<path class="st1" d="M33,54.9c0.2-1,0.1-1.9-0.1-3.1l-0.2-0.8l-0.1-0.5l0-0.8"/>
	<path class="st2" d="M14.1,32.8C14.1,32.8,14.1,32.9,14.1,32.8c0,10,5.7,18.1,12.7,18.2c0.1,0,0.1,0,0.1,0V32.8H14.1z"/>
	<path class="st1" d="M27,32.8v13.1v5v0.2c0.1,0,0.1,0,0.2,0c7.2,0,13-8,13-18.1c0,0,0-0.1,0-0.1h-0.1H27z M27,14.6
		c-7.1,0.1-12.9,8.2-12.9,18.2H27L27,14.6"/>
	<path class="st2" d="M27,32.8h13.2c0-10-5.9-18.2-13.1-18.2c0,0,0,0-0.1,0v5.1V32.8z"/>
	<path class="st1" d="M38.2,15.9c0.4,0.5,0.8,1.1,1.3,1.6c0.7,0.8,1.5,0.8,1.7,0.9c0.4,0.2,0.8,0.5,1.1,0.9c0.1,0.3,0.1,0.7,0.3,0.9
		l0.2,0.2l0.2,0.8c-0.2-0.2-0.4-0.4-0.6-0.6c-0.1-0.5-0.1-0.7-0.7-0.9c-1-0.4-0.8,1,0.1,1.2c0.2,0,0.4-0.1,0.5-0.1l0.7,0.7
		c0-0.2,0.1-0.3,0.1-0.5c-0.3-0.7-0.5-1.2-0.3-1.9c0.1-0.2,0.1-0.3,0.2-0.5c0.7-1.5,1-2.4,0.8-4.1l-0.1-1.3
		c-0.4,1.3-1.1,2.5-1.1,3.8c0,0.7,0.1,1.4,0,2.1c-0.1-0.7-0.1-1.5-0.3-2.2c-0.4-1.3-1.3-2-2.1-2.9c0.2,0.8,0.4,1.4,0.7,2.2
		c0.4,0.8,0.9,1.5,1.3,2.3c0.1,0.3,0.2,0.6,0.3,0.9c-0.5-1-1.3-2.1-2.3-2.6C39.6,16.5,38.9,16.2,38.2,15.9"/>
	<path class="st1" d="M46.5,28.4l0-0.3l-0.1-0.4l-0.2-0.4l0-0.3l0-0.5l0.2-0.5l-0.1-0.1l-0.1,0.3L46,26.7v-0.6
		c0.2-1.1,0.4-2.1,0.5-3.1c0.2-1.7-0.1-3-0.7-4.6c-0.3,1.6-0.9,4.1-0.7,4.5l0.1,0.3v0.4l0.2,0.6l0.1,0.4l0.1,0.9l0.1,0.5l-0.3-0.4
		L45.2,25l-0.6-0.7l-0.5-0.6l-0.6-0.6l-0.8-0.7L42,21.7l-0.6-0.4l-1-0.7l0.8,1.3l0.7,1.1l0.6,0.8l0.7,0.6l0.6,0.3l0.8,0.4l0.5,0.3
		l0.3,0.3l0.2,0.4l0.1,0.2l0.2,0.6l-0.3-0.1L45,26.8h-0.3l0,0.1l0.2,0l0.3,0.1l0.4,0.1l0.3,0.3l0.3,0.6l0.1,0.4v0.1l0.1,0.2l0.1,0.1
		L46.5,28.4z"/>
	<path class="st1" d="M44.2,26.3c-0.5,0-0.9,0.3-0.9,0.7c0,0.4,0.4,0.7,0.9,0.7c0.5,0,0.9-0.3,0.9-0.6l-0.2-0.1l-0.2,0l0-0.1H45
		l0.1,0C45,26.5,44.7,26.3,44.2,26.3 M45.6,26.4l-0.2-0.1l-0.5-0.5c-0.1-0.1-0.3-0.2-0.4-0.3c-2.4-0.7-3.9-1.7-5.6-3.4l1.5,0.4
		l1.4,0.5l0.3,0.1l0.5,0.7l0.7,0.6l0.6,0.3l0.8,0.4l0.3,0.2l0.1,0.1l0.1,0.2l0.2,0.3l0.2,0.2l0.1,0l0,0L45.6,26.4z M43,18.7
		c0.6,1.5,1.4,2.8,2.1,4.3l0.2,0.2v0.3l0.2,0.6l0.1,0.4l0.1,0.9l0.1,0.5l-0.3-0.4L45.2,25l-0.6-0.7l-0.5-0.6l-0.6-0.6l-0.2-0.2
		l-0.1-0.3l-0.3-0.9L42.8,21l0-0.4l0-0.8L43,18.7z M46.8,28.2l-0.3,0.6v0.1l-0.2-0.2l0,0l0,0l0.1-0.3v-0.1l0.1-0.3
		c0.1-0.6,0-1.2,0.2-1.9c0.5-1.6,1.5-3,2.1-4.5C49.2,24.3,48.2,26,46.8,28.2"/>
	<polygon class="st1" points="47.2,35.5 47.2,34.6 47.2,33.9 47.3,33.1 47.5,32 47.4,31.2 47.4,30.6 47.1,30.1 46.9,29.4 46.6,29 
		46.2,28.3 45.9,27.8 45.7,27.3 45.6,27.7 45.6,28.1 45.7,28.6 45.7,29.1 45.9,29.6 46.1,30.2 46.2,30.9 46.4,31.5 46.6,32.1 
		46.7,32.7 46.9,33.5 47,34.1 47,34.8 47,35.6 47.1,35.5 	"/>
	<polygon class="st1" points="47.2,30.2 47.2,29.9 47.3,29.3 47.5,29 47.4,29 47.3,29.1 47.1,29.4 47,29.8 47.1,30.1 	"/>
	<path class="st1" d="M47.9,27.6c-0.3-0.1-0.7,0.1-0.9,0.6c-0.2,0.4-0.1,0.9,0.2,1l0.1-0.1l0.1-0.2l0.1,0.1l-0.2,0.3
		c0.3,0,0.6-0.2,0.8-0.6C48.3,28.2,48.3,27.7,47.9,27.6 M46.1,30.3l-0.3-0.4c-0.5-0.7-1.2-1.3-1.7-2c0.3,1.2,0.6,2.3,1.1,3.4
		l0.1,0.4l0.5,0.6l0.3,0.7l0.3,0.6l0.1,0.4l0.1,0.6l0.2,1l0,0.1l0,0l0-0.8l0-0.8l-0.1-0.6l-0.1-0.7l-0.2-0.7l-0.2-0.6l-0.2-0.6
		L46.1,30.3z"/>
	<path class="st1" d="M42.9,29.1c0.9,0.7,1.5,1.6,2.3,2.4l0.6,0.6l0.3,0.7l0.3,0.6l0.1,0.4l0.1,0.6l0.2,1l0,0.1l0,0v0l0.1-0.1l0.1,0
		l0.1-0.1l1-1c1.5-1.6,4.3-2.3,6.7-2.8c-2.7,3-5.3,2.8-5.7,2.9c-0.7,0.1-1.2,0.4-1.7,0.8l0,0.2l-0.1,0.2l-0.3,0.5L47,36.6l-0.2,0.5
		l-0.1,0.4v0.3l-0.1,0.1l-0.2-0.2l0.1-0.4v-0.6l0-0.2l0.1-0.3l0.2-0.1l-0.1-0.2v-0.4l-0.1-0.4l0,0v-0.1L46.5,35l-0.4-0.5l-0.7-0.8
		L45,33.2l-0.1-0.1l-0.4-0.5C43.9,31.6,43.3,30.4,42.9,29.1"/>
	<polygon class="st1" points="41.7,31.7 42.5,32 43.6,32.5 44.5,33 45,33.2 45.5,33.7 46.2,34.5 46.5,35 46.6,35.2 46.7,35.5 
		46.7,35.9 46.8,36.1 46.7,36.2 46.6,35.6 46.3,35.3 45.7,34.9 45.2,34.6 44.6,34.3 44,34 43.6,33.8 43.2,33.6 42.7,33.2 42.4,32.8 
		42,32.3 	"/>
	<path class="st1" d="M51.2,28.2c-0.3,1.5-0.4,2.4-1.2,3.8c-0.4,0.6-0.9,1.2-1.3,1.7l-0.4,0.4L48,34.5l-0.2,0.4l-0.1,0.2l-0.3,0.3
		l-0.1,0.1l0-0.9l0-0.7l0.1-0.8l0.1-1.1l0-0.8l0-0.3l0.1-0.4l0.1-0.4l0.3-0.6l0.3-0.6l0.3-0.6l0.5-0.8l0,0.5l-0.1,0.8v0.5l-0.1,0.7
		l-0.2,0.8l-0.2,0.8l-0.2,0.7l-0.2,0.5L48,33.2l-0.2,0.5l-0.2,0.4l-0.2,0.4l-0.1,0.3v0.2l0,0.3l0.1,0l0.1-0.2l0.1-0.3l0.1-0.3
		l0.1-0.2l0.2-0.4l0.2-0.4c0.1-0.3,0.2-0.6,0.3-0.9l0.3-0.6C49.4,30.6,50.2,29.3,51.2,28.2 M47.8,35.9c-0.3,0.3-0.4,0.6-0.3,0.9
		l0.1-0.1l0.1,0.1c0,0,0,0-0.1,0.1v0c0.3,0.3,0.8,0.2,1.2-0.1c0.4-0.3,0.5-0.8,0.3-1.1C48.7,35.5,48.1,35.6,47.8,35.9"/>
	<path class="st1" d="M47.6,36.9c0,0-0.2,0.2-0.2,0.2l-0.2,0.2L47,37.6l-0.2,0.2v0.4l0,0.4l-0.1,0.2L46.6,39l-0.1,0.2l-0.1,0.3
		l0,0.2l0.2-0.2l0.3-0.3l0.3-0.4l0.4-0.5c1-1.4,3.1-2.3,4.8-3.1l0.2-0.1c-0.8,0.9-1.4,1.9-2.4,2.6c-0.8,0.6-1.6,0.9-2.5,1.4
		l-0.2,0.1l-0.3,0.2l-0.2,0.1l-0.2,0.2l-0.2,0.1l0,0.2l-0.1,0.1l-0.1,0.1l-0.1,0.2l-0.1,0.2l0,0.1l0.1-0.1l0.1-0.2l0.2-0.1l0,0.1
		l0,0.1l-0.2,0.2l-0.2,0.1l-0.2,0.2L46,41.2v0.1L46,41.5l0,0.2l0,0.2L45.8,42l-0.1,0.2l-0.1,0.2l-0.1,0.3L45.2,43l-0.1,0.3l-0.2,0.4
		l-0.1,0.1l-0.4,0.8l-0.2,0.4l-0.4,0.7l-0.3,0.4l-0.2,0.2v0l0.2-0.4l0.3-0.5l0.2-0.5l0.1-0.3l0.1-0.3l0.1-0.1l0.5-1l0.3-0.7l0.1-0.3
		l0-0.4l0.1-0.2l0.2-0.1l0.1-0.5l-0.1-0.3l-0.1-0.3l-0.1-0.2l-0.1-0.1L45,39.9l0.1,0l0.2,0l0,0.2l0.1,0.2l0.1,0.2l0.1,0.2l0.2-0.4
		l0.1-0.3l0.1-0.4l0-0.3l0.1-0.5l0-0.4l-0.3-0.4l-0.3-0.3l-0.3-0.4l-0.3-0.3l-0.3-0.3l-0.3-0.4L44,36l-0.3-0.4l-0.3-0.3L43.2,35
		l-0.2-0.4l-0.4-0.7l-0.2-0.4l-0.1-0.3l-0.2-0.3L42,32.7l0.4,0.4l0.3,0.3l0.3,0.3l0.3,0.2l0.4,0.3l0.3,0.2l0.4,0.2l0.3,0.3l0.3,0.4
		l0.2,0.2l0.3,0.4l0.3,0.4l0.2,0.3l0.2,0.3l0.1,0.4l0.1,0.3l0,0.2h0v0l0.2,0.2l0.1-0.1v-0.1l0.1,0l0.2-0.3l0.2-0.2l0.2-0.2l0.2-0.1
		L47.6,36.9z"/>
	<polygon class="st1" points="46,39.6 46,39.3 45.9,39 45.7,38.6 45.4,38.2 45.1,37.8 44.7,37.4 44.4,37.1 44.2,36.9 43.9,36.6 
		43.5,36.3 43.2,36.2 42.7,35.9 42.4,35.8 42.1,35.6 41.7,35.3 41.5,35.1 41.7,35.4 41.9,35.8 42.2,36.3 42.4,36.8 42.8,37.2 
		43.1,37.5 43.6,38 43.9,38.3 44.4,38.6 44.9,38.9 45.1,39 45.5,39.3 45.7,39.5 45.9,40 46,39.7 	"/>
	<path class="st1" d="M45,39.1c-0.3-0.4-0.8-0.5-1.1-0.2c-0.3,0.3-0.2,0.8,0.1,1.1c0.3,0.4,0.8,0.5,1.1,0.2l0,0v0l-0.1-0.1L45,39.9
		l0.1,0l0.2,0l0,0.1C45.4,39.8,45.3,39.4,45,39.1"/>
	<path class="st1" d="M49.9,44.2c-1,1-2.2,2.1-3.7,2.6L45,47.3c-0.8,0.3-1.6,0.4-2.4,0.6l-0.3,0.2L42,48.5l-0.2,0.3l-0.3,0.4
		L41,49.6l0,0l0.1-0.4l0-0.1l0.2-0.1l0.1-0.4l0.1-0.3l0-0.4l-0.1-0.3l-0.2-0.2l0-0.1l0.1-0.1l0.2,0.2l0.1,0.2l0.1,0.2l0,0.4l0.1-0.3
		l0.1-0.1l0.3-0.2l0.1-0.4v-0.4L42,46.4c-0.8-0.7-1.2-1.5-1.4-2.5c-0.3-1.1-0.3-2.2-0.3-3.4l0.1-0.4c0.3,1,0.8,2.1,1.5,3l0.1,0.1
		l0,0.4l0.2,0.9l0.3,0.6l0,0.4l0,0.6l0.1,0.6l0,0.7v0.3l-0.1,0.2l0.1,0.1l0.3-0.4v-0.2l0-0.1l0.3-0.5l0.2-0.2l0.2-0.2l0.3-0.4
		l0.4-0.7c0.5-0.8,0.9-1.5,1.5-2.2c1-1.2,2-2.3,3.1-3.3c-0.4,1.4-0.8,2.5-1.7,3.7c-0.6,0.8-1.2,1.4-2,2.1c-0.4,0.3-0.8,0.6-1.2,0.9
		l-0.3,0.3l-0.3,0.3L43.1,47L43,47.3l0.2-0.1l0.3-0.2c0.7-0.7,1.5-1.1,2.4-1.6C47.1,44.7,48.3,44.5,49.9,44.2"/>
	<polygon class="st1" points="43.6,39.1 43.8,39.7 44,40.3 44.2,40.9 44.3,41.5 44.3,42 44.3,42.6 44.3,43.2 44.2,43.8 44,44.6 
		43.9,44.9 43.7,45.5 43.4,46 43.3,46.4 43.3,46.4 43.1,46.6 42.8,47.1 42.8,47.2 42.8,47 43.1,46.2 43.1,45.9 43.2,45.7 43.3,45.2 
		43.3,44.2 43.2,43 43.1,42.7 43.2,42.4 43.3,41.7 43.4,41 43.6,40.2 43.6,39.7 	"/>
	<polygon class="st1" points="41.9,38.7 42.1,39.4 42.4,40.3 42.7,41.2 43,42 43.1,42.4 43.2,43 43.3,44.2 43.3,45.2 43.2,45.7 
		42.9,46.1 42.8,46.5 42.8,47 42.8,47.4 42.4,47.8 42.3,47.7 42.5,47 42.7,46.4 42.6,45.9 42.5,45.6 42.4,45.1 42,44.4 41.8,43.5 
		41.8,42.5 41.8,41.5 41.9,40.2 	"/>
	<path class="st1" d="M41.3,46.3c-0.3-0.4-0.8-0.6-1.2-0.4c-0.3,0.2-0.3,0.8,0,1.2c0.3,0.4,0.9,0.6,1.2,0.4h0l-0.1-0.1l0-0.1
		l0.1-0.1l0.1,0.2C41.6,47.1,41.6,46.7,41.3,46.3 M41,49.8L41,49.8L41,49.8l-0.2,0.4l0.3,0.1l0.5,0.1l0.9,0.1l1.1,0.1l1,0
		c1.3-0.2,2.8-0.4,4-0.9c-1.4-0.2-2.5-0.5-4.2-0.5C43.2,49.1,42.1,49.4,41,49.8"/>
	<path class="st1" d="M46.7,52.6c-0.6-0.5-1.1-1-1.8-1.4L44,50.7l-0.4-0.3h-0.1l-1.1-0.1l-0.9-0.1l-0.5-0.1l-0.3-0.1l0,0.1l0.3,0.2
		l0.5,0.4c1,0.5,1.9,0.9,3,1.2C45.2,52.3,46,52.5,46.7,52.6"/>
	<path class="st1" d="M41.3,47.8l0,0.5l-0.1,0.5l-0.1,0.4l-0.1,0.7l-0.2,0.5l-0.2,0.5l-0.3,0.6L40,51.8c-0.3,0.4-0.6,0.7-1,1.1
		l-0.4,0.3l-0.5,0.3l-0.4,0.3L37.5,54l-0.3,0.1l-0.3,0.1l-0.3,0.3l-0.2,0.1l-0.2,0l-0.3-0.1l-0.1-0.2l0.1-0.3L36,54l0.3-0.5l0.1-0.5
		v-0.4l0-0.6v-0.3l0.3-0.6l0.4-0.9l0.3-1.1l-0.3,0.2l-0.4,0.5L36.5,50l0-0.3c0.3-1.2,0.8-2.1,1.3-3.2l0.2-0.6l0,0.7
		c0,0.8,0.1,1.6,0,2.5L38,49.5l-0.2,1.1l-0.2,1l-0.3,0.6l-0.2,0.4L36.8,53l-0.2,0.3l-0.2,0.4l-0.2,0.4l0,0.1l0.2,0l0.3-0.2l0.3-0.2
		l0.2-0.3l0.3-0.6l0.3-0.5l0.4-0.6l0.3-0.4l0.4-0.5l0.4-0.5l0.3-0.4C40.2,49.3,40.8,48.7,41.3,47.8"/>
	<path class="st1" d="M45.1,53.3c-0.9-0.1-1.9-0.3-2.8-0.4c-1.1-0.1-2.2-0.1-3.3,0l-0.3,0.3l-0.5,0.3l-0.3,0.2l0.4,0.1l0.5,0.1
		l0.6,0c1.1,0.1,2.3,0,3.4-0.2C43.6,53.6,44.3,53.5,45.1,53.3 M43.1,56.4c-0.8-0.6-1.6-1.1-2.5-1.6c-0.5-0.3-1-0.5-1.6-0.7l-0.5-0.2
		l-0.6-0.1l0,0L37.5,54l-0.1,0l0.1,0.1l0.5,0.3c0.8,0.5,1.6,1,2.4,1.3C41.3,56.1,42.2,56.1,43.1,56.4 M35.9,54.6l-0.1-0.2l0.1-0.3
		L36,54l0.1-0.1l-0.1,0l-0.6,0.4l-0.8,0.5l0,0l0,0l-1,0.6l0,0l-0.3,0.1l0.1-0.4v0l-0.1,0L33,55.4l0,0.1l-0.1,0.2l-0.1,0.1l-0.1,0.1
		l0-0.1l0.1-0.2l0-0.1l0,0l-0.5,0.4l-0.8,0.3L31,56.3l-0.4,0.1l-0.7,0.3l-0.7,0.4l-0.5,0.2l-0.3,0.1l-0.5,0v0.1l0.8,0.3l0.3-0.1
		l0.6-0.1l0.5-0.1l0.3-0.1l0.4-0.1l0.2-0.2l0.4-0.2l-0.1,0H31L31,56.7h0.3l0.2,0l0-0.1l0.2-0.1l0.4-0.1l0.2-0.1l0.4-0.1l0,0
		l-0.3-0.1l0.2-0.1l0.2-0.1l0.2-0.1l0.2,0l0,0.1l0.3,0h0.1l0.3-0.2l0.1-0.1l0.3,0h0.7v-0.2l-0.2,0l-0.5-0.1l0.3-0.2l0.3-0.1l0.3-0.1
		l-0.1-0.1l0.1-0.1l0.2,0l0.1,0.1l0.2-0.1L35.9,54.6L35.9,54.6z M39.6,46.1c-0.5,1-1,2-1.4,3L38,49.5l0,0l-0.2,1.1l-0.2,1l-0.2,0.4
		l0,0.4l-0.2,0.5L37,53.3l-0.3,0.3l-0.2,0.1l-0.2,0.4l0,0.1l0.2,0l0.3-0.2l0.3-0.2l0.2-0.3l0.3-0.6l0.3-0.5l0.4-0.6l0.3-0.4l0.4-0.5
		l0.2-0.3l0.1-0.4C39.6,49,39.5,47.6,39.6,46.1"/>
	<path class="st1" d="M35.9,54.6l-0.1-0.2l0.1-0.3L36,54l0.1-0.1l-0.1,0l-0.6,0.4l-0.8,0.5l0,0l0,0l-1,0.6l0,0l-0.3,0.1l0.1-0.4v0
		l-0.1,0L33,55.4l0,0.1l-0.1,0.2l-0.1,0.1l-0.1,0.1l0-0.1l0.1-0.2l0-0.1l0,0l-0.5,0.4l-0.8,0.3L31,56.3l-0.4,0.1l-0.7,0.3l-0.7,0.4
		l-0.5,0.2l-0.3,0.1l-0.5,0v0.1l0.8,0.3l0.3-0.1l0.6-0.1l0.5-0.1l0.3-0.1l0.4-0.1l0.2-0.2l0.4-0.2l-0.1,0H31L31,56.7h0.3l0.2,0
		l0-0.1l0.2-0.1l0.4-0.1l0.2-0.1l0.4-0.1l0,0l-0.3-0.1l0.2-0.1l0.2-0.1l0.2-0.1l0.2,0l0,0.1l0.3,0h0.1l0.3-0.2l0.1-0.1l0.3,0h0.7
		v-0.2l-0.2,0l-0.5-0.1l0.3-0.2l0.3-0.1l0.3-0.1l-0.1-0.1l0.1-0.1l0.2,0l0.1,0.1l0.2-0.1L35.9,54.6L35.9,54.6z M39.6,46.1
		c-0.5,1-1,2-1.4,3L38,49.5l0,0l-0.2,1.1l-0.2,1l-0.2,0.4l0,0.4l-0.2,0.5L37,53.3l-0.3,0.3l-0.2,0.1l-0.2,0.4l0,0.1l0.2,0l0.3-0.2
		l0.3-0.2l0.2-0.3l0.3-0.6l0.3-0.5l0.4-0.6l0.3-0.4l0.4-0.5l0.2-0.3l0.1-0.4C39.6,49,39.5,47.6,39.6,46.1"/>
	<polygon class="st1" points="37.3,49.1 37.1,50.1 36.7,51.1 36.3,52 36.1,52.5 35.7,53.1 35.2,53.9 34.9,54.4 34.7,54.6 34.5,54.8 
		33.5,55.4 33.6,55.4 33.7,55.4 33.9,54.9 34.1,54.6 34.5,54.2 34.7,53.7 35,53 35,52.3 35.2,51.7 35.2,51.6 35.2,51.5 35.7,50.9 
		36.2,50.3 36.7,49.8 37.1,49.3 	"/>
	<path class="st1" d="M35.5,47.8c0,1.1-0.1,2.3-0.3,3.4v0.5L35,52.3L35,53l-0.3,0.7l-0.3,0.5l-0.3,0.5L34,54.9l-0.3,0.4l-0.4,0.2
		l0.1-0.4l0-0.4v-0.6l0.1-0.6l0.1-0.5l0.1-0.8l0.1-0.4C34,50.4,34.9,49.2,35.5,47.8 M35.3,54.8l0.3,0.2c1.1,0.2,1.8,0.1,2.8,0.7
		c1.1,0.6,2,1.5,3.1,2.1c-1.3-0.1-2.5-0.4-3.7-0.9c-0.9-0.4-1.7-1.1-2.5-1.7L35.1,55l-0.1-0.1l0.1-0.1L35.3,54.8z M40,58.1
		c-0.8-0.6-2.1-1.1-3.1-1.4c-1.8-0.5-3.1-0.4-3.7-0.5l-0.2,0l0.1-0.2l-0.2,0L32.8,56l-0.2,0.1l-0.2,0.1l0.3,0.1l0.4,0.1
		c0.5,0.2,1.8,1,3.7,1.3C37.9,57.8,39,57.8,40,58.1"/>
	<polygon class="st1" points="31,56.7 31.3,56.7 31.5,56.7 31.7,56.8 31.9,56.9 32,56.9 32,57 31.9,57 31.7,57 31.6,56.9 31.4,56.9 
		31.3,56.9 31,56.9 	"/>
	<path class="st1" d="M33,56.9c-0.4-0.3-0.9-0.4-1.2-0.1l0,0l0.1,0.1V57l-0.1,0l-0.2,0c-0.1,0.3,0,0.7,0.3,1
		c0.4,0.3,0.9,0.4,1.2,0.1C33.5,57.7,33.4,57.2,33,56.9"/>
	<polygon class="st1" points="40.9,51.7 40.9,51.9 40.6,51.8 40.5,51.8 40.3,51.8 40.1,51.8 40.1,51.8 40.2,51.5 40.3,51.6 
		40.5,51.6 40.7,51.6 40.9,51.7 	"/>
	<path class="st1" d="M41.3,51.2c-0.4-0.1-0.8,0.1-1,0.4l0.2,0l0.1,0l0.2,0.1l0.1,0l-0.1,0.1l-0.2-0.1l-0.2,0h-0.1h0
		c0,0.4,0.3,0.7,0.8,0.8c0.5,0.1,1-0.2,1-0.6C42.2,51.6,41.8,51.2,41.3,51.2"/>
	<polygon class="st1" points="36.3,60.8 36,60.6 35.7,60.4 35.4,60.1 35.2,59.9 35,59.6 34.8,59.4 34.5,59.2 34.4,59.1 34.1,59.1 
		33.7,59 33.7,59.2 33.8,59.6 34.1,60 34.6,60.4 34.8,60.4 35.3,60.5 35.7,60.6 	"/>
	<path class="st1" d="M30.5,58.7l-0.2,0.3l-0.5-0.1l-1.3-0.4L28,58.3l-0.1-0.2l0-0.3l0-0.2l0-0.1l0.8,0.3L29,58l0.3,0.1
		c0.4,0.1,0.8,0.2,1.3,0.3l0.1,0.1L30.5,58.7z M33.8,59.1L33.8,59.1l0,0.2l0.1,0.4l0.3,0.4l0.5,0.4h0h0l-0.3-0.1l-1.1-0.4l-1.1-0.3
		c0.1-0.3,0.3-0.5,0.5-0.7l0.2,0.1l0.4,0.1h0.4H33.8L33.8,59.1z"/>
	<polygon class="st1" points="35.3,60.3 35.1,60 34.9,59.8 34.6,59.6 34.3,59.4 34,59.3 33.9,59.3 33.9,59.4 34,59.6 34.1,59.8 
		34.3,60 34.6,60.1 34.9,60.3 35.1,60.3 	"/>
	<path class="st1" d="M35.4,62.6c-0.3-0.5-0.7-0.7-1.2-1c-0.1-0.1-0.2-1-0.3-1.4l-0.7-0.2l-1-0.3l-0.1,0l-0.2,0.5l-0.1,0.3
		c0.3,0.4,0.3,1.1,0.4,1.5c0.1,0.4,0.7,0.7,0.8,1.5c0.1-0.3,0.7-0.7,0.7-1C34.3,62.5,34.9,62.4,35.4,62.6"/>
	<path class="st1" d="M30.9,62.4L30.9,62.4l0.5-0.7l0.3-0.9l0.2-0.7l0.2-0.5c0.1-0.3,0.3-0.5,0.5-0.7c0,0,0,0,0,0
		c0.3-0.2,0.5-0.1,0.8,0.2l-0.1-0.3c-0.1-0.2-0.6-0.3-0.9-0.3c-0.5,0-0.8-0.1-1.3-0.2c-0.3-0.1-0.4-0.1-0.5,0.1l-0.1,0.1l-0.1,0.2
		l-0.2,0.4c-0.2,0.4-0.5,1.1-0.5,1.1c0,0.1,0,0.3-0.1,0.3l-0.1,0.1l0.2,0.4l0.2,0.5l0.3,0.4l0.1,0.2l0.2,0L30.9,62.4L30.9,62.4z"/>
	<path class="st1" d="M28.5,58.5c0.3,0.8,0.8,1.5,1.1,2.1l0.3,0.5l0.2,0.5l0.3,0.4l0.1,0.2l0.2,0l0.3,0l-0.1,0.1
		c-0.4,0.2-0.6,0.1-1,0c-0.5-0.1-0.9,0.3-1.2-0.2c-0.3-0.4-0.9-1.2-0.9-1.4c-0.1-0.7-0.2-1.4-0.2-2.1l0.2,0h0.2l0.2-0.1l0.1-0.1
		l-0.1-0.1L28,58.3l0.3,0.1L28.5,58.5z"/>
	<polygon class="st1" points="28.5,57.4 28.4,57.2 28.3,57 28.1,56.9 27.8,56.9 27.6,56.8 27.3,56.8 27.1,56.7 27,56.7 26.8,56.7 
		26.6,57 26.5,57.2 26.5,57.5 26.5,57.8 26.5,58 26.6,58.3 26.7,58.5 26.9,58.6 27.3,58.8 27.5,58.8 27.7,58.8 27.9,58.8 28.1,58.7 
		28.1,58.6 28.1,58.4 27.9,58.1 27.9,57.9 27.8,57.6 27.9,57.4 28,57.2 28.2,57.2 28.3,57.3 	"/>
	<path class="st1" d="M27,56.5v0.1h0l0-0.3l0,0L27,56.5z M28.1,56.9L28.1,56.9l-0.3-0.1l-0.2-0.1h-0.3l-0.2-0.1l0-0.4l0-0.1l0,0
		l0.1-0.5c0.3-0.9,0.5-1.9,0.7-2.9c0-0.1,0.1-0.2,0.3-0.3c0.6-0.2,1.9-0.5,2.2-0.6c0.2,0,0.3,0,0.4,0.1c0.2,0.4,0.7,0.8,1,1
		c0.4,0.3,0.5,1.7,0.2,2c-0.3,0.4-0.7,0.7-1.1,1l-0.3,0.2l-0.2,0.1l-0.7,0.3l-0.7,0.4l-0.4,0.1l0.5-0.3l0.5-0.2l0.4-0.2l0.3-0.1
		l0.5-0.3l0.3-0.3l0.2-0.2l0.3-0.3L32,55l0.1-0.3l0.1-0.4l-0.1-0.4L32,53.6l-0.2-0.2l-0.2-0.1l-0.4,0l-0.5,0.3l-0.4,0.2L29.9,54
		l-0.3,0.4l-0.3,0.6l-0.4,0.8l-0.3,0.5L28.1,56.9z"/>
	<path class="st1" d="M27,56.5v0.1h0l0-0.3l0,0L27,56.5z M28.1,56.9L28.1,56.9l-0.3-0.1l-0.2-0.1h-0.3l-0.2-0.1l0-0.4l0-0.1l0,0
		l0.1-0.5c0.3-0.9,0.5-1.9,0.7-2.9c0-0.1,0.1-0.2,0.3-0.3c0.6-0.2,1.9-0.5,2.2-0.6c0.2,0,0.3,0,0.4,0.1c0.2,0.4,0.7,0.8,1,1
		c0.4,0.3,0.5,1.7,0.2,2c-0.3,0.4-0.7,0.7-1.1,1l-0.3,0.2l-0.2,0.1l-0.7,0.3l-0.7,0.4l-0.4,0.1l0.5-0.3l0.5-0.2l0.4-0.2l0.3-0.1
		l0.5-0.3l0.3-0.3l0.2-0.2l0.3-0.3L32,55l0.1-0.3l0.1-0.4l-0.1-0.4L32,53.6l-0.2-0.2l-0.2-0.1l-0.4,0l-0.5,0.3l-0.4,0.2L29.9,54
		l-0.3,0.4l-0.3,0.6l-0.4,0.8l-0.3,0.5L28.1,56.9z"/>
	<path class="st1" d="M30.3,53.8L30.3,53.8c0.3,0.2,0.4,0.7,0.2,1c-0.5,0.4-1,0.9-1.5,1.3l-0.2,0.1l-0.2,0.1l-0.1,0.2l-0.3,0.5
		l0.1,0.1l0.2,0.2l0,0.1l0,0.1l-0.2-0.1l-0.1,0l-0.2,0l-0.1,0.1l0.2,0.1l0.3,0l0.3-0.1l0.1,0l0.5-0.3l0.5-0.2l0.4-0.2l0.3-0.1
		l0.5-0.3l0.3-0.3l0.2-0.2l0.3-0.3L32,55l0.1-0.3l0.1-0.4l-0.1-0.4L32,53.6l-0.2-0.2l-0.2-0.1l-0.4,0l-0.5,0.3L30.3,53.8z M26,56.3
		l-0.1-0.4c-0.5-0.7-0.8-1.4-1.5-2.1v-0.1l-0.1-0.5l-0.1-0.6l-0.2-0.5l0-0.6c0-0.2,0.6-0.3,0.8-0.1l0.2,0.3l0.3,0.4l0.3,0.5l0.3,0.2
		l0.3,0.3l0.3,0.3l0.2,0.5l0.3,0.6l0.1,0.6l0.1,0.6L27,56.5v0.1h0l-0.1,0l-0.1,0.1l-0.3-0.2L26,56.3z"/>
	<path class="st1" d="M26.8,56.8l-0.3-0.2l-0.6-0.4c-0.8-0.7-1.3-1.2-1.5-2.3v-0.1l-0.1-0.5l-0.1-0.6l-0.2-0.5c0-0.2,0-0.4,0-0.6
		c0-0.2,0.6-0.3,0.8-0.1l0.2,0.3l0.3,0.4l0.3,0.5l0.3,0.2l0.3,0.3l0.3,0.3l0.2,0.5l0.3,0.6l0.1,0.6l0.1,0.6L27,56.5v0.1l0.1,0l0.1,0
		l0-0.4l0.1-0.6c0-1-0.2-1.8-1-2.6c-0.4-0.4-0.7-0.9-0.8-1.1c-0.3-0.4-0.5-0.7-1-0.8c-0.4,0-0.4,0.1-0.6,0.4
		c-0.4,0.3-0.8,0.4-1.3,0.5c-0.2,0-0.2,0.1-0.2,0.2c0.1,0.7,0,2,0.1,2.3c0,0.2,0.7,0.8,1.1,1.1l0.2,0.3l0.2,0.1l0.3,0.1l0.4,0.1
		l0.2,0.1l0.2,0.1h0.3l0.2,0.1l0.3,0.1l0.5,0.3h0.2v0l0.1-0.2L26.8,56.8z"/>
	<polygon class="st1" points="27.4,58.8 27.4,59 27.4,59.4 27.4,59.7 27.4,60 27.3,60.3 27.3,60.7 27.1,60.9 26.8,61.3 26.3,61.9 
		25.9,62.2 25.7,62.4 25.4,62.4 25,62.4 24.4,62.4 24,62.3 23.6,62.3 23.3,62.3 23.9,62.2 24.2,62.1 24.6,61.7 25,61.3 25.5,60.5 
		26,59.7 26.4,59.1 26.5,58.6 26.6,58.3 26.7,58.5 26.9,58.6 27.3,58.8 	"/>
	<path class="st1" d="M21.2,58.9c0-0.1,0.1-0.4,0.2-0.4c0.7,0,1.2-0.1,1.7-0.2c0.2-0.1,0.3,0,0.4,0.3l0.3,0.7l0.1,0.4l0.1,0.4
		l0.2,0.5l0.2,0.7l0.2,0.4l0.2,0.1l-0.4,0.4l-0.3,0.1l-0.6,0.1l0.2,0h-0.2l-0.2-0.1L22.8,62l-0.3-0.3l-0.2-0.4l-0.2-0.4L22,60.5
		l-0.1-0.6l-0.1-0.5l-0.1-0.4l0-0.2c0-0.2-0.3-0.2-0.4-0.1C21.3,58.6,21.2,58.8,21.2,58.9"/>
	<path class="st1" d="M22,63.5c0.2-0.4,0.2-1,0.5-1.6l0.1-0.2l0,0l-0.2-0.4l-0.2-0.4L22,60.5l-0.1-0.6l-0.1-0.3l0,0.1l-0.3,0.1
		c0,0-0.2,0.1-0.3,0.1l-0.2,0l0,0.3l0,0.6c0,0.4-0.2,0.9-0.4,1.2c-0.2,0.4-0.5,0.5-0.7,1c0.8-0.3,1.3-0.4,1.6-0.8v0.2
		C21.6,62.6,22,63,22,63.5"/>
	<path class="st1" d="M21.8,59.4l-0.1-0.4l0-0.1h0c-0.3,0.1-0.5,0.1-0.8,0.1c-0.6-0.1-0.7,0-1.1,0.4c-0.3,0.3-0.5,0.6-0.8,0.9
		l-0.4,0.5l-0.4,0.5l0.4-0.3c0.4-0.3,0.9-0.6,1.4-0.6c0.1,0,0.5-0.2,0.5-0.2l0.2-0.1l0.1-0.1c0,0,0.1,0,0.2,0c0.1,0,0.3-0.1,0.3-0.1
		l0.3-0.1L21.8,59.4z M26.6,58.3L26.6,58.3L26.5,58l0-0.1l-0.2,0l-0.5,0.1L25,58.3l-0.7,0.1l-0.9,0.1h0l0,0l0.2,0.6l0.2-0.1l0.4,0
		l0.5,0l0.3,0l0.2-0.2h0.3l0.4-0.2L26.6,58.3z"/>
	<path class="st1" d="M21.8,59.4l-0.1-0.4l0-0.1h0c-0.3,0.1-0.5,0.1-0.8,0.1c-0.6-0.1-0.7,0-1.1,0.4c-0.3,0.3-0.5,0.6-0.8,0.9
		l-0.4,0.5l-0.4,0.5l0.4-0.3c0.4-0.3,0.9-0.6,1.4-0.6c0.1,0,0.5-0.2,0.5-0.2l0.2-0.1l0.1-0.1c0,0,0.1,0,0.2,0c0.1,0,0.3-0.1,0.3-0.1
		l0.3-0.1L21.8,59.4z M26.6,58.3L26.6,58.3L26.5,58l0-0.1l-0.2,0l-0.5,0.1L25,58.3l-0.7,0.1l-0.9,0.1h0l0,0l0.2,0.6l0.2-0.1l0.4,0
		l0.5,0l0.3,0l0.2-0.2h0.3l0.4-0.2L26.6,58.3z"/>
	<path class="st1" d="M20.8,59.2c0.1,0.4-0.3,0.5-0.6,0.6c-0.5,0.2-0.6,0.2-1,0.6c0.3-0.5,0.5-0.7,0.9-1.1
		C20.2,59.2,20.7,58.8,20.8,59.2 M22.4,56.5c-0.4,0-0.7,0.3-0.7,0.7c0,0.4,0.3,0.7,0.7,0.7c0.4,0,0.7-0.3,0.7-0.7
		c0-0.3-0.2-0.6-0.6-0.7L22.4,56.5L22.4,56.5z"/>
	<polygon class="st1" points="22.9,56.1 22.8,56.2 22.7,56.3 22.6,56.5 22.6,56.7 22.5,56.8 22.5,56.8 22.4,56.7 22.4,56.4 
		22.5,56.2 22.6,56.1 22.7,56.1 22.8,56.1 	"/>
	<path class="st1" d="M13,49.7c-0.3,0-0.6,0.3-0.6,0.6c0,0.4,0.3,0.6,0.6,0.6c0.3,0,0.5-0.2,0.6-0.4h0l0-0.1c0,0,0,0,0-0.1
		C13.6,50,13.3,49.7,13,49.7"/>
	<polygon class="st1" points="15.2,51 14.9,50.8 14.6,50.7 14.3,50.6 13.9,50.5 13.5,50.4 13.3,50.3 13.2,50.3 13.2,50.4 13.3,50.6 
		13.5,50.6 14,50.7 14.6,50.9 	"/>
	<polygon class="st1" points="14.5,50.2 14.4,50 14.4,49.8 14.3,49.4 14.4,48.9 14.5,48.6 14.5,48.6 14.4,48.5 14.4,48.6 14.3,48.8 
		14.2,49.1 14.2,49.4 14.2,49.6 14.2,49.8 14.3,50 	"/>
	<path class="st1" d="M14.7,47.8c-0.3,0-0.6,0.3-0.6,0.6c0,0.2,0.1,0.3,0.2,0.4l0.1,0.1v0c0.1,0.1,0.2,0.1,0.3,0.1
		c0.3,0,0.6-0.3,0.6-0.6S15,47.8,14.7,47.8 M6.7,39.7C6.3,39.7,6,40,6,40.3c0,0.4,0.3,0.6,0.7,0.6c0.3,0,0.5-0.1,0.6-0.4l0.1-0.1
		c0,0,0-0.1,0-0.1C7.4,40,7.1,39.7,6.7,39.7"/>
	<polygon class="st1" points="8.9,41.6 8.9,41.7 8.8,41.8 8.7,41.7 8.5,41.5 8.1,41.1 7.7,40.9 7.4,40.6 7.2,40.6 7,40.5 6.9,40.3 
		7.1,40.3 7.2,40.4 7.4,40.5 7.6,40.5 8,40.8 8.3,41 8.5,41.3 	"/>
	<path class="st1" d="M7.4,38.5c-0.4,0-0.7,0.3-0.7,0.6c0,0.4,0.3,0.6,0.7,0.6c0.2,0,0.4-0.1,0.5-0.2L8,39.5
		c0.1-0.1,0.1-0.2,0.1-0.3C8.1,38.8,7.8,38.5,7.4,38.5"/>
	<polygon class="st1" points="8.4,40.2 8.2,39.9 8,39.8 7.8,39.6 7.7,39.5 7.5,39.4 7.5,39.3 7.6,39.2 7.7,39.3 7.8,39.4 8,39.5 
		8.1,39.7 8.4,39.9 	"/>
	<path class="st1" d="M9.3,37.8c-0.4,0-0.7,0.3-0.7,0.6c0,0.2,0.2,0.5,0.4,0.6L9.2,39c0.1,0,0.1,0,0.2,0c0.4,0,0.7-0.3,0.7-0.6
		C10,38,9.7,37.8,9.3,37.8"/>
	<polygon class="st1" points="9.2,38.8 9.2,38.7 9.2,38.7 9,38.7 9,38.8 8.9,39 8.8,39.3 8.7,39.6 8.7,39.8 8.7,40.2 8.7,40.4 
		8.8,40.4 8.8,40.3 8.9,40 8.9,39.6 9,39.2 9.1,38.9 	"/>
	<path class="st1" d="M9.8,30.3c-0.4,0-0.7-0.3-0.7-0.7c0-0.4,0.3-0.7,0.7-0.7c0.4,0,0.7,0.3,0.7,0.7C10.4,29.9,10.1,30.3,9.8,30.3"
		/>
	<path class="st1" d="M9.1,29.8H8.9L8.7,30l-0.2,0.2l0-0.2l0.2-0.2L9,29.6l0.1,0v0C9.1,29.7,9.1,29.8,9.1,29.8 M6.3,28.8
		c-0.3,0-0.7,0.3-0.7,0.7c0,0.4,0.3,0.7,0.7,0.7c0.3,0,0.5-0.2,0.6-0.4l0,0L7,29.6v-0.1C7,29.1,6.7,28.8,6.3,28.8"/>
	<path class="st1" d="M7.7,30.4l-0.1-0.3l-0.1-0.2l-0.3-0.2L7,29.6l-0.2-0.1l-0.1,0.1v0.2l0.2,0l0.2,0.1L7.3,30l0.1,0.2l0.1,0.2v0.2
		l0,0.2C7.6,30.6,7.6,30.5,7.7,30.4 M42.7,18.9c0.3-1.2,0.6-2.3,0.7-3.5c0.1-0.7,0.2-1.4,0.3-2.2 M42.6,19.1
		c-0.4-1.8-1.3-3.5-2.3-5.1"/>
	<polyline class="st1" points="45.9,18.4 45.9,19.8 45.9,21.2 45.9,22.6 45.9,23.7 45.9,24.8 45.9,25.9 45.8,26.1 	"/>
	<polyline class="st1" points="45.6,26 45.1,25.4 44.7,24.9 44.2,24.4 43.7,23.8 43.1,23.2 42.6,22.7 41.9,22.1 41.4,21.5 
		41.1,21.3 40.7,20.9 	"/>
	<polyline class="st1" points="44.8,25.6 44.1,25.2 43.5,24.8 42.7,24.4 42,23.9 41.1,23.4 40.3,22.9 39.6,22.6 39.1,22.3 	"/>
	<path class="st1" d="M47,27.4c0.5-1,0.9-2,1.2-3c0.3-0.8,0.4-1.6,0.6-2.4"/>
	<polyline class="st1" points="48.8,28.1 48.6,28.8 48.3,30 48.1,31 47.8,32 47.5,33.2 47.4,33.7 47.3,34.4 	"/>
	<polyline class="st1" points="45.8,27.9 46.3,29.3 46.6,30.2 46.9,31.2 47,32.2 47.1,33.1 47.1,34 47.1,34.5 	"/>
	<polyline class="st1" points="46.7,34.9 46.3,34.1 46,33.4 45.6,32.7 45,32 44.7,31.5 44.2,30.9 43.8,30.4 43.2,29.5 	"/>
	<polyline class="st1" points="46.7,35.7 46.5,35.3 46.4,35 46.1,34.7 45.8,34.5 45.2,34.1 44.4,33.6 44,33.5 43.7,33.2 42.9,32.8 
		42.4,32.5 41.9,31.8 	"/>
	<polyline class="st1" points="46.4,38.6 46,37.9 45.2,36.9 44.5,35.9 43.6,34.9 42.8,33.8 	"/>
	<polyline class="st1" points="51,28.5 49.8,31.1 49.5,31.7 48.7,32.9 48,34 47.8,34.4 	"/>
	<path class="st1" d="M54.5,32c-1.8,1.1-3.7,1.7-5.6,2.5l-0.5,0.2l-0.3,0.2"/>
	<polyline class="st1" points="45.7,39.3 45.4,39 44.9,38.4 44.4,37.8 43.8,37.3 43.2,36.8 42.7,36.3 42.1,35.8 	"/>
	<polyline class="st1" points="47.2,39.1 48.2,38.3 49,37.8 50,37 51,36.2 51.9,35.6 52.2,35.3 	"/>
	<polyline class="st1" points="49.6,44.3 48.5,44.9 47.5,45.5 46.6,45.9 45.3,46.5 44.3,47 43.5,47.3 42.8,47.7 	"/>
	<polyline class="st1" points="43.7,46.2 44.1,45.8 44.7,45.1 45.4,44.4 46.1,43.5 46.8,42.7 47.4,41.8 48,40.9 48.5,40.1 	"/>
	<polyline class="st1" points="43.3,45.9 43.6,44.7 43.8,43 43.8,41.7 43.8,40.7 43.7,39.8 	"/>
	<polyline class="st1" points="42.9,45.7 42.8,44.4 42.6,43.1 42.4,41.7 42,39.3 	"/>
	<polyline class="st1" points="42.3,46.5 41.9,45.7 41.6,44.7 41.2,43.4 40.8,42.5 40.5,41.6 40.3,40.7 	"/>
	<polyline class="st1" points="48.2,49.6 47.2,49.7 46.1,49.7 45,49.8 43.8,49.9 42.5,49.9 40.9,50 	"/>
	<polyline class="st1" points="41.2,48.2 40.6,49.6 39.8,50.7 39.2,51.6 38.6,52.5 38,53.2 37.3,53.9 36.9,54.2 36.7,54.3 	"/>
	<polyline class="st1" points="39.3,47.2 38.8,49.1 38.5,50.1 38.3,51 38.1,52.1 	"/>
	<polyline class="st1" points="36.1,54.1 36.8,52.5 36.9,51.8 37.3,50.3 37.5,49.2 37.6,47.7 	"/>
	<polyline class="st1" points="43.3,53.3 40.8,53.6 39.9,53.6 39.2,53.6 38.2,53.6 	"/>
	<polyline class="st1" points="42.4,56.1 40.3,55.2 39.1,54.6 38.3,54.2 37.5,54 	"/>
	<polyline class="st1" points="37,49.6 36.4,51 35.9,51.6 35.4,52.6 35,53.1 	"/>
	<polyline class="st1" points="33.9,54.7 34.1,53.6 34.5,52.2 34.8,51.1 35,50 35.4,48.2 	"/>
	<polyline class="st1" points="41,57.5 39.6,56.9 38.4,56.3 37.4,55.9 36.8,55.6 36.2,55.3 35.3,55 	"/>
	<polyline class="st1" points="39.1,57.7 37.6,57.3 36.2,57 35.1,56.7 33.9,56.4 33.3,56.2 32.8,56.1 	"/>
	<polyline class="st1" points="46.9,34.4 46.8,33.7 46.5,32.5 46.1,31.7 45.7,30.9 45.5,30.4 	"/>
	<polyline class="st1" points="46.3,52.4 45.7,52.1 45.1,51.8 44.5,51.5 43.9,51.2 43.3,50.9 42.7,50.7 42.1,50.5 41.7,50.4 	"/>
	<path class="st1" d="M26.5,57.8l-0.4,0c-0.6-0.3-1.3-0.5-2-0.7l-0.3-0.3l-0.7-0.2l-0.4-0.3l0.1-0.1l0.1-0.1l0,0h-0.1l-0.1,0.1
		l-0.1,0.1l-1.1-0.4l-0.3-0.2l-0.1,0l0-0.1l0.2-0.1l-0.1-0.1L21,55.3l-0.2,0.1l-0.1-0.1l-0.4-0.2l-0.5-0.3l0.3-0.1l0.3-0.1l-0.6-0.1
		l-0.2-0.1l-0.5-0.2h-0.1l0.5,0l0.8,0.1l0.2,0l-0.2-0.2l-0.2-0.2L20.1,54l0-0.3l-0.2-0.1l-0.1-0.1l-0.2-0.1v-0.2l-0.2-0.3l0-0.2
		l-0.2-0.3l0-0.3l-0.2-0.3v-0.4l0-0.3l0.1-0.6L19,50.2v-0.9c0,0,0,0,0,0l0-0.3l0.1-0.4l0-0.5L19,47.4l0.3,0.5l0.3,0.4l0.2,0.4
		l0.4,0.3l0.1,0.3l0.3,0.2l0.1,0.2l0.2,0.4l0.3,0.1l0.2,0.4l0.1,0.1l0.2,0.3l0.2,0.4l0,0.2h0.1l0,0.3l0,0.3l0,0.4v0.4v0.4l0,0.3
		L22,53.7l0,0.3L22,54.5l-0.1,0.4v0.3c0.5,0.3,1.2,0.6,1.7,0.9h0.1l0,0l0.2,0.1l0.3,0.1l0.4,0.1l0.2,0.1l0.2,0.1h0.3l0.2,0.1
		l0.3,0.1l0.5,0.3h0.2v0l0,0.3V57.8L26.5,57.8z"/>
	<polyline class="st1" points="21.7,55 21.3,54.1 20.9,53.2 20.6,52.3 20.3,51.3 20.1,50.5 19.9,49.9 19.7,49.1 19.4,48.2 	"/>
	<polygon class="st1" points="19.2,53.8 19.4,53.9 19.5,54 19.8,54.1 20.2,54.3 19.8,54 19.4,53.7 19,53.5 18.9,53.3 18.9,53.3 
		19,53.5 	"/>
	<polygon class="st1" points="18.9,53.3 18.9,53.3 18.6,53.1 18.4,53 18.6,53.1 	"/>
	<polyline class="st1" points="18.3,48.2 18.3,48.1 18.1,47.9 18,47.7 17.7,47.6 17.5,47.3 17.4,47.2 17.3,47.7 17.3,48.1 
		17.3,48.4 17.3,48.7 17.4,49.1 17.1,49.1 17.2,49.4 17.2,49.9 17.2,50.2 17.4,50.7 17.5,51.1 17.5,51.3 17.8,51.7 17.9,51.9 
		18.2,52.8 18.4,53 18.6,53.1 18.9,53.3 18.9,53.3 18.9,53.3 19,53.5 19.4,53.7 19.8,54 20.2,54.3 19.8,54.1 19.5,54 19.4,53.9 
		19.2,53.8 19,53.5 18.9,53.3 18.6,53.1 18.4,53 18.2,52.8 18,52.7 17.6,52.5 17.3,52.2 17,52.2 16.8,52.1 16.5,52.1 16.2,51.9 
		16,51.8 15.6,51.8 15.4,51.7 15.1,51.7 14.9,51.6 14.6,51.5 14.4,51.5 14.2,51.5 13.9,51.5 13.8,51.3 13.4,51.4 13.1,51.5 
		12.7,51.5 12.5,51.4 12.1,51.4 11.9,51.4 11.6,51.3 12.1,51.8 12.3,51.9 12.4,52.1 12.8,52.4 13.1,52.6 13.2,52.7 13.3,52.9 
		13.7,53 14,53.4 14.3,53.4 14.4,53.7 14.7,53.9 15.1,54 15.4,54.3 16,54.3 16.3,54.4 16.8,54.4 17,54.5 17.4,54.5 17.8,54.6 
		18.2,54.5 18.3,54.6 18.9,54.5 19.7,54.4 20.5,54.6 20.6,54.6 20.5,54.4 20.3,54.2 20.1,54 20.1,53.7 19.9,53.6 19.8,53.5 
		19.7,53.4 19.7,53.2 19.5,52.9 19.5,52.7 19.3,52.4 19.3,52.1 19.1,51.7 19.1,51.3 19.1,51 19.2,50.4 19,50.2 19,49.2 19,49.2 
		18.9,49.1 18.8,48.8 18.7,48.6 18.6,48.4 18.3,48.2 	"/>
	<polyline class="st1" points="19.2,53 18.8,51.9 18.4,51 18.1,49.9 17.9,48.8 17.6,47.9 	"/>
	<polyline class="st1" points="19.2,54.1 18.6,53.9 17.6,53.6 16.8,53.2 16,52.9 15.1,52.6 14.1,52.3 13.3,51.9 12.6,51.7 	"/>
	<polygon class="st1" points="19.3,54.4 19.8,54.6 19.9,54.7 20.5,54.8 20.2,54.8 19.7,54.9 19.2,55.2 19.1,55.3 18.8,55.4 
		18.6,55.5 18.3,55.6 18.1,55.9 17.9,56 17.7,56 17.4,56.1 17.2,56.3 16.9,56.4 16.4,56.4 16.1,56.6 15.6,56.6 15.4,56.6 14.9,56.6 
		14.6,56.6 14.2,56.4 14,56.4 13.5,56.3 13.1,56.1 12.9,56.1 12.4,55.9 12,55.9 11.6,55.7 11.1,55.5 11.5,55.5 11.8,55.4 12.3,55.1 
		12.8,54.9 13.2,54.8 13.5,54.7 13.8,54.5 14,54.5 14.4,54.4 14.7,54.3 15.3,54.2 15.4,54.3 16,54.3 16.3,54.4 16.8,54.4 17,54.5 
		17.4,54.5 17.8,54.6 18.2,54.5 18.3,54.6 18.9,54.5 	"/>
	<polyline class="st1" points="19.1,54.9 18.6,54.9 18.2,55 17.5,55 16.7,55.1 15.8,55.2 14.9,55.2 14.1,55.3 13.5,55.4 12.8,55.5 
		12,55.5 	"/>
	<path class="st1" d="M21.3,55.4l-0.2,0.1l-0.1,0.1c0,0.6,0,1-0.4,1.4l-0.1,0.3l-0.1,0.3l-0.3,0.2L20,58l-0.2,0.2l-0.3,0.3l-0.2,0
		l-0.2,0.1l-0.3,0.1l-0.2,0.1l-0.3,0L18.2,59L18.1,59l-0.4,0.1l-0.2,0.1l-0.3,0.1l-0.2,0l-0.2,0l-0.2,0.1l-0.4,0.1l-0.3,0.1
		l-0.4,0.1l0.2-0.3l0.1-0.2l0.2-0.2l0.2-0.2l0.1-0.3l0.2-0.2l0.3-0.3l0.1-0.2l0.3-0.3l0.2-0.3l0.4-0.1l0.2-0.3l0.2-0.1l0.3-0.2
		l0.4-0.2l0.3-0.1l0.6-0.3l0.3-0.1l0-0.1l0.5,0l0.4-0.1l0.3-0.1l0.2-0.1L21.3,55.4L21.3,55.4z"/>
	<polyline class="st1" points="20.5,55.8 19.6,56.3 18.5,57.1 17.3,58 16.8,58.4 16,59.3 15.7,59.4 	"/>
	<path class="st1" d="M14.4,23.9h-0.2l-0.4,0.1l-0.4,0l-0.3,0l-0.4,0.2l-0.3,0l-0.5,0.1l-0.5,0.1l-0.2,0.2l-0.2,0L10.7,25l-0.3,0.1
		c0,0-0.2,0.2-0.3,0.3c-0.1,0-0.2,0.1-0.2,0.1l-0.2,0.2l-0.1,0.1l0,0.1L9.6,26l-0.1,0l-0.2,0.3l-0.1,0.1l-0.1,0.1l-0.2,0.4l-0.1,0.3
		l-0.1,0.3l0,0.2l-0.3,0.4l0.1-0.5l0.1-0.3L8.7,27l0.1-0.4l0.3-0.4l0.3-0.3l0.3-0.5L9.9,25l0.3-0.3l0-0.5l0.1-0.7l-0.1-0.4l0.1-0.8
		L10.1,22L10,21.5l-0.2-0.1v-1.1l0-0.3l-0.1-0.4l-0.2,0.5l-0.1,0.3L9.2,21l-0.1,0.2l-0.2,0.2l-0.1,0.3l-0.1,0.1L8.7,22l-0.1,0.1
		l-0.1,0.4l-0.1,0.2l0,0.2l-0.1,0.3l0,0.3L8.1,24l0.1,0.3l-0.1,0.2L8,24.8l0.1,0.4v0.3L8.3,26l0.1,0.2l0.1,0.3l0,0.3l-0.2,0.4
		l-0.2,0.4L8,28.1l-0.2,0.4l-0.2-0.4l0.1-0.5v-0.4L7.9,27l0.1-0.3l0,0.1l0.1-0.4v-0.4L8,25.4l-0.1-0.4l-0.2-0.6L7.5,24l-0.2-0.2
		l-0.1-0.4L7,22.8l-0.2-0.4l-0.3-0.5v0l-0.2-0.4l0-0.1l0,0l0-0.1l0,0.4l-0.1,0.6L6,22.6l-0.1,0.2l-0.1,0.2v0.2l0.1,0.2l0,0.1l0,0.2
		l-0.1,0.1v0.2v0.2v0.3l0.1,0.1l-0.1,0.1v0.1l0.1,0.2l0,0.1l-0.1,0.5l0.1,0.1v0.1L6,25.9l0,0.4l0,0.2l0.3,0.3L6.4,27l0.2,0.4
		l0.3,0.3L7.1,28l0.3,0.2l0.1,0.3l0.1,0.3v0.4v0.3l0.1,0.3l0.1,0.1l0,0l0.2-0.2l0-0.1v-0.2l0-0.4l0.1-0.4l0.3-0.4L8.7,28L9.4,28
		l0.5-0.2l0.4-0.1l0.4-0.2l0.5-0.1l0.3-0.1l0.6-0.4l0.7-0.4l0.5-0.6l0.3-0.5l0.3-0.4l0.5-0.6l0.2-0.3l0.3-0.4L14.4,23.9z"/>
	<path class="st1" d="M7.8,28L8,27.7l0.1-0.5l0-0.4l0.2-0.4l0.1-0.2l0,0.1l0.1,0.3l0,0.3l-0.2,0.4l-0.2,0.4L8,28.1l-0.2,0.4
		l-0.1-0.2V28z M7.7,28.2L7.8,28v0.4L7.7,28.2z"/>
	<polygon class="st1" points="7.9,28.6 8,28.1 8.1,27.7 8.3,27.2 8.5,26.8 8.6,26.5 8.4,26.2 8.4,26.1 8.3,26.3 8.1,26.8 8.1,27.2 
		8,27.7 7.8,28 7.7,28.2 	"/>
	<polyline class="st1" points="14.1,24.2 12.1,25.3 11.1,26 9.8,26.9 9,27.6 	"/>
	<polyline class="st1" points="8.7,26.4 9,25.2 9.1,24 9.4,22.6 9.4,21.4 9.5,20.9 	"/>
	<polyline class="st1" points="7.5,28.1 7.1,27 6.9,25.7 6.7,24.6 6.5,23.6 6.4,22.4 	"/>
	<polygon class="st1" points="10.2,22.2 10.4,21.9 10.7,21.6 10.9,21.2 11,20.8 11.4,20.4 11.5,20.3 12.1,19.7 12.5,19.2 13.2,18.9 
		13.4,18.8 13.8,18.6 13.9,18.4 14.1,18.4 14.9,17.6 15.4,16.9 16,15.9 16.4,15.2 16.8,14.7 16.4,14.8 15.9,14.9 15.8,15 15.6,15.2 
		15.4,15.2 15,15.5 14.6,15.5 14.5,15.7 14.3,15.7 14.1,15.9 13.8,16 13.7,16 13.7,16.1 13.4,16.2 13.4,16.4 13,16.6 13,16.9 
		12.9,17 12.7,17.2 12.5,17.5 12.5,17.6 12.5,17.8 12.3,18 12.2,18.2 12.2,18.3 12.1,18.5 12.1,18.8 11.9,19.4 11.6,19.9 11.3,19.9 
		11.2,19.9 11,20.4 10.8,20.6 10.6,20.9 10.4,21.2 10.3,21.3 10.2,21.8 10.1,21.9 10.1,22 	"/>
	<polyline class="st1" points="12.2,19.2 12.6,18.5 13.1,18 13.7,17.3 14.3,16.8 14.7,16.3 15.5,15.7 15.9,15.4 	"/>
	<path class="st1" d="M32.6,58.9C32.6,58.8,32.6,58.8,32.6,58.9c0.3-0.2,0.5-0.2,0.8,0.1v0h-0.2L32.7,59L32.6,58.9z M21.2,58.9
		L21.2,58.9c0.2,0,0.3,0,0.5-0.1h0v-0.1c0-0.2-0.3-0.2-0.4-0.1C21.3,58.6,21.2,58.8,21.2,58.9"/>
	<polygon class="st1" points="10.8,15.5 10.9,15.7 11.1,15.9 11.4,16.1 11.5,16.2 11.6,16.6 11.7,16.7 11.7,16.9 11.8,17.1 
		11.7,17.6 11.6,18 11.6,18.4 11.6,18.7 11.5,19.1 11.5,19.2 11.4,19.4 11.3,19.7 11.2,19.9 11,20.5 10.9,20.6 10.6,19.6 10.4,19.2 
		10.4,18.9 10.2,18.6 10.1,18.1 10.2,17.7 10.1,17.5 10.1,17.1 10.3,16.8 10.2,16.5 10.3,16.3 10.4,16.1 10.5,16 10.7,15.8 	"/>
	<polyline class="st1" points="11,19.9 11.1,19.4 11.1,17.7 11,16.8 10.9,16.2 	"/>
	<polygon class="st1" points="16.9,20.7 16.7,20.5 16.7,20.4 16.6,20.4 16.6,20.4 16.5,20.3 16.4,20.1 16.2,20 15.9,20 15.9,19.9 
		15.6,19.9 15.4,19.9 15.4,19.7 15.2,19.6 14.9,19.6 14.7,19.5 14.2,19.5 13.8,19.5 13.2,19.5 12.9,19.6 12.5,19.8 12.2,19.9 
		12,20.1 11.9,20.2 11.7,20.4 11.2,20.8 10.9,21.2 10.6,21.3 10.4,21.5 10.5,21.7 10.6,21.7 10.8,21.5 11,21.4 11.2,21.4 11.6,21.4 
		11.9,21.3 12.2,21.4 12.5,21.5 12.9,21.5 13.1,21.6 13.4,21.6 13.7,21.6 14,21.6 14.3,21.6 14.6,21.6 15,21.6 15.1,21.4 15.3,21.4 
		15.6,21.4 15.9,21.3 16.2,21.2 16.5,21 16.8,20.9 17,20.9 17.2,20.8 	"/>
	<polyline class="st1" points="16,20.6 15.3,20.6 14.7,20.6 14,20.6 13.3,20.6 12.2,20.8 11.4,21.1 	"/>
	<path class="st1" d="M11.4,22.1c-0.4,0-0.7,0.3-0.7,0.7c0,0,0,0.1,0,0.1l0,0V23c0.1,0.3,0.3,0.5,0.7,0.5c0.4,0,0.7-0.3,0.7-0.7
		C12.1,22.4,11.8,22.1,11.4,22.1"/>
	<polygon class="st1" points="11.3,22.7 11.3,22.8 11.1,22.9 10.9,22.9 10.7,23 10.4,23.2 10.2,23.3 10.2,23.2 10.4,23.1 10.7,22.9 
		10.9,22.8 11.1,22.8 11.2,22.7 	"/>
	<polygon class="st1" points="8.3,38.5 8,38.2 7.8,38.1 7.4,37.7 7.2,37.3 7,36.9 6.8,36.5 6.5,36 6.2,35.6 5.9,35.2 5.6,34.8 
		5.4,34.6 5.4,34.6 5,34.1 4.6,33.7 4,33.5 3.4,33.3 3.1,33.2 2.7,33 2.2,32.9 1.9,32.9 1.6,32.9 1.3,32.9 1,32.9 0.7,32.8 
		0.4,32.7 0.4,32.7 0,32.6 0.1,32.8 0.3,33.2 0.5,33.6 0.5,33.7 0.9,34.1 1.4,34.5 1.8,34.9 2.2,35.2 2.4,35.5 2.6,35.6 2.8,35.8 
		3,35.9 3.2,36 3.4,36.1 3.7,36.3 3.9,36.4 4.2,36.6 4.6,36.6 4.8,36.8 4.9,36.8 5.1,36.9 5.3,37.1 5.6,37.3 5.8,37.3 6.2,37.4 
		6.6,37.4 7,37.8 7.4,38.1 8.2,38.9 	"/>
	<polyline class="st1" points="6.9,37.4 6.1,36.8 5.5,36.4 5,36 4.3,35.6 3.3,35.1 2.5,34.4 1.7,34 0.8,33.3 0.5,33 	"/>
	<path class="st1" d="M12.8,32.9C12.8,32.9,12.8,32.9,12.8,32.9C12.8,32.9,12.8,32.9,12.8,32.9 M12.9,32.8
		C12.9,32.8,12.8,32.9,12.9,32.8l-0.1,0.1C12.8,32.9,12.9,32.9,12.9,32.8"/>
	<path class="st1" d="M12.9,32.8c0,0,0,0.1-0.1,0.1L12.9,32.8C12.8,32.9,12.9,32.8,12.9,32.8 M12.8,32.8L12.8,32.8l-0.1,0.1L12.3,33
		L12,33.2l-0.4,0.2l-0.3,0.2l-0.4,0.6l-0.7,0.6l-0.9,0.4l-0.5,0.5L8.8,36l-0.1,0.1l0,0.3l-0.2,0.2l0,0.5l-0.1,0.3l-0.2,0.4l0.1,0.4
		L8.5,38l0.3-0.2l0.6-0.1l0.5-0.2l0.7-0.4l0.6-0.4v0l0.3-0.2l0.4-0.4l0.3-0.4l0.4-0.6l0.2-0.5l0-0.6C12.7,33.5,12.8,33.1,12.8,32.8
		C12.8,32.8,12.8,32.8,12.8,32.8"/>
	<polyline class="st1" points="8.6,37.4 9.2,36.7 9.7,36.1 10.5,35.2 11.2,34.4 11.9,33.9 12.5,33.3 	"/>
	<polygon class="st1" points="12.8,30 12.8,30 12.8,30.1 	"/>
	<polyline class="st1" points="12.8,30 12.8,30 12.2,30.3 11.6,30.6 11.4,30.9 11.1,30.9 10.9,31.1 10.7,31.1 10.4,31.3 10.3,31.5 
		10.1,31.5 9.7,31.7 9.5,31.8 9.4,32 9.2,32 9,32.2 9,32.2 9,32.9 8.9,33.1 8.8,33.8 8.7,34.1 8.7,34.1 8.2,35.3 8.5,34.2 8.4,34.4 
		8.3,35 8.1,35.6 8.1,35.9 8.1,36.2 7.9,36.8 7.7,37.4 7.8,37.8 8.1,37.1 8.2,36.7 8.5,36.2 8.7,35.9 9.4,35.3 10.3,34.8 10.9,34.3 
		11.6,33.3 12.1,32.4 12.3,31.5 12.5,30.8 12.8,30.2 12.8,30.2 12.9,30 12.8,30 12.9,30 12.8,30 12.8,30 12.8,30 	"/>
	<polyline class="st1" points="8.5,35.6 9,34.5 9.6,33.5 10.4,32.5 11.3,31.5 12.3,30.6 	"/>
	<polygon class="st1" points="4.3,30.3 4.4,30.4 4.6,30.8 4.2,30.1 4.2,30.1 	"/>
	<polygon class="st1" points="7.2,36.1 7.1,35.8 7.1,35.1 6.7,33.9 6.7,33.3 6.5,32.9 6.6,33.1 6.7,33.2 6.7,33.2 6.6,33 6.5,32.9 
		6.5,32.8 6.1,32.2 5.8,31.8 5.4,31.3 5,31 4.6,30.6 4.3,30.3 4.2,30.1 4.2,30.1 4.2,30.1 4.2,30.1 3.9,29.9 3.7,29.8 3.5,29.7 
		2.9,29.2 2.8,29.5 2.9,30 3,30.6 3.3,31 3.2,31.2 3.3,31.4 3.3,31.8 3.4,32 3.4,32.2 3.6,32.4 3.7,32.6 3.7,32.9 3.8,33.1 4,33.4 
		4.1,33.6 4.5,33.7 5,34.1 5.4,34.6 5.3,34.6 5.5,34.8 5.8,35.2 6.1,35.6 6.1,35.6 6.6,35.9 6.6,35.9 7,36.4 7.4,37 	"/>
	<polyline class="st1" points="6.8,35.9 6.4,35.1 5.8,34.1 5.1,33.1 4.4,32.1 3.9,31.1 3.2,30.2 3.2,29.8 	"/>
	<path class="st1" d="M9,31.6L8.8,31l0-0.5l-0.2-0.6L8.4,29v0.1l0-0.1l-0.3,0.6l-0.2,0.2l-0.1,0.5c-0.2,0-0.2,0.4-0.2,0.4l-0.2,0
		l0,0.4l-0.1,0l-0.2,0.7l-0.1,0.5l0.1,0.1l-0.2,0.3l-0.1,0.5v0.7l0.4,1.1l0.3,0.5l0.1,0.3l0,0.4l0.1,0.4L7.7,37v-0.4L7.9,36l0.4-0.8
		l0.4-1.1l0.1-0.4l0.2-0.7L9,32.9v-0.7L9,31.6z"/>
	<polyline class="st1" points="7.6,35.9 7.6,35.2 7.7,34.1 7.7,33.2 7.7,32.4 7.8,31.4 7.9,30.6 8.2,29.8 	"/>
	<polygon class="st1" points="14,49.4 14.1,49.6 13.9,49.7 13.6,49.6 13.4,49.4 12.9,49.2 12.4,49.1 11.7,49.1 11.4,49.3 11.1,49.3 
		10.9,49.4 10.4,49.3 10.3,49.4 9.9,49.4 9.7,49.4 9.4,49.4 9.1,49.4 8.6,49.3 8.2,49.1 7.8,49 7.6,48.9 7.1,48.8 6.9,48.5 
		6.6,48.4 6.3,48.1 6.1,48 5.9,47.8 5.8,47.6 5.5,47.5 5.5,47.4 5.4,47.3 5.2,47.1 5,46.7 4.8,46.6 4.7,46.4 4.5,46.2 4.9,46.2 
		5.2,46.2 5.6,46.3 6.1,46.3 6.6,46.2 6.9,46.2 7.4,46.3 7.8,46.4 8.2,46.4 8.3,46.3 8.7,46.3 9.1,46.5 9.3,46.5 9.6,46.6 9.8,46.7 
		10.1,46.7 10.5,47 10.7,47.2 10.9,47.2 11.1,47.4 11.4,47.5 11.6,47.7 11.7,47.8 12,48.1 12.1,48.2 12.4,48.5 12.6,48.7 12.8,48.9 
		13.1,49 13.6,48.4 13.6,48.1 13.5,47.7 13.3,47.4 13.3,46.9 13.1,46.7 13.1,46.2 12.9,46 12.9,45.7 12.9,45.3 12.8,45 13,44.8 
		13,44.5 13,44.3 13.1,44 13.2,43.7 13.3,43.5 13.4,42.9 13.6,42.7 13.9,42.4 14,42.2 14.4,42 14.6,41.7 14.8,41.3 14.9,41.8 
		15.1,42 15.1,42.2 15.2,42.5 15.3,42.8 15.4,43.1 15.4,43.3 15.4,43.8 15.4,44.2 15.4,44.7 15.3,45 15.4,45.1 15.4,45.3 15.5,45.5 
		15.3,45.9 15.2,46.2 15.1,46.3 15.1,46.5 15,46.7 14.9,47 14.7,47.1 14.6,47.4 14.6,47.6 14.3,47.7 14.1,48 14,48.1 13.9,48.2 
		13.9,48.6 	"/>
	<polyline class="st1" points="12,48.9 10.8,48.5 9.4,48.2 7.9,47.7 6.8,47.4 5.6,46.8 	"/>
	<polyline class="st1" points="13.8,47.7 13.8,47.2 13.9,46.6 13.9,45.9 14,45.4 14,44.8 14.1,44.3 14.4,43.8 14.5,43.2 14.6,42.6 
		14.6,42 	"/>
	<polygon class="st1" points="13.4,39.8 13.4,40.5 13.5,41.2 13.7,42 13.8,42.3 13.8,42.5 13.6,42.7 13.4,42.9 13.3,43.5 13.2,43.7 
		13.1,44 13,44.3 13,44.5 13,44.8 12.8,45 12.9,45.3 12.9,45.7 12.9,46 13.1,46.2 13.1,46.7 13.2,46.8 13.1,47 13,47.4 12.8,47.7 
		12.8,48.1 12.7,48.1 12.6,48 12.7,47.9 12.7,47.4 12.7,46.9 12.5,46.4 12.3,46 12.1,45.8 12.1,45.6 12,45.4 11.9,45.1 11.9,45 
		11.9,44.9 12,44.4 12.1,43.7 12.1,42.6 12,42.3 12,42.2 12.2,41.8 12.3,41.3 12.6,40.9 13,40.4 	"/>
	<polyline class="st1" points="12.8,47.8 12.8,46.5 12.7,45.5 12.6,44.4 12.6,43.5 12.7,42.6 12.9,41.5 13.1,40.6 	"/>
	<path class="st1" d="M11.9,42.3l-0.2-0.4l0-0.1c0,0,0-0.2,0-0.2l-0.1-0.4l-0.1-0.3l-0.2-0.3l-0.1-0.2L11.1,40l-0.2-0.3l-0.3-0.4
		l0,0l-0.4-0.8l-0.2,0.5l-0.3,0.4v0.3l-0.1,0.4v0.4L9.7,41l0.1,0.4l0,0.6l0,0.5l0,0.6l0,0.3l0.1,0.6l0.3,0.7l0.3,0.5l0.4,0.5
		l0.3,0.4l0.1,0.3l0.1,0.3l0.1,0.2l0.1-0.1l-0.1-0.2l0-0.4l0.1-0.3l0.2-0.4l0.2-0.4l0-0.6l0.1-0.6v-1.1L11.9,42.3z"/>
	<polyline class="st1" points="11.4,46.1 11.3,45.5 11.3,44.8 11.1,44.1 10.8,43.2 10.7,42.5 10.5,41.9 10.4,40.8 10.3,39.9 
		10.3,39.3 	"/>
	<polygon class="st1" points="10.9,45.8 10.6,45.5 10.2,45.2 9.9,44.6 9.4,44.1 9,43.7 8.8,43.4 8.6,43.3 8.3,42.9 8,42.6 7.7,42.5 
		7.4,42.3 7.1,42.2 6.8,42 6.6,42 6,41.6 5.8,41.6 5.3,41.6 4.8,41.5 4.2,41.2 3.6,41.1 3.2,41.1 2.6,41 2.8,41.2 3.1,41.6 
		3.3,41.9 3.5,42.1 3.7,42.3 3.9,42.6 4.1,43 4.2,43.2 4.4,43.3 4.6,43.5 4.8,43.7 5,44.1 5.3,44.1 5.6,44.4 5.7,44.6 6,44.7 
		6.4,45 6.8,45.1 7,45.1 7.3,45.4 7.8,45.4 8.4,45.4 8.7,45.5 9.1,45.5 9.6,45.5 10.1,45.6 10.5,45.7 11,45.9 	"/>
	<polyline class="st1" points="10.9,45.8 9.8,45.2 8.8,44.7 7.8,44.2 6.5,43.5 5.7,43 4.9,42.5 4,42 3.1,41.3 	"/>
	<path class="st1" d="M13.6,49.3l0.1,0.1l0-0.4l-0.1-0.3l-0.1-0.1l-0.2-0.3L13,47.9l-0.1-0.1l-0.2-0.3L12.3,47l-0.5-0.8l-0.2-0.4
		L11,45.6l-0.3-0.4l0,0l0-0.1l-0.3-0.5l-0.3-0.7l0-0.3c-0.1-0.1-0.1-0.3-0.2-0.4l-0.6-1.8l0.1-0.6l-0.3-0.4l-0.1-0.3l-0.2-0.4
		l-0.1-0.5l-0.1-0.6l0-0.6l-0.2-0.5l0,0l0-0.1L8,37.2l-0.1-0.3l-0.5-1.2l-0.2,0.8l0.3,0.6l0.1,0.2l0.1,0.3l0.1,0.2l0.1,0.3l0.1,0.1
		l0.2,0.4l0,0.4l0.2,0.7l0,0.3l0,0.5L8.5,41l0.1,0.4l0.1,0.3L9.1,43l1.1,2.2l0.2,0.5l0.2,0.2l0.5,0.5l0.5,0.5l0.3,0.5l0.3,0.2
		l0.3,0.4l0.3,0.4l0.2,0.2l0.3,0.4l0.1,0.2l0.2,0.1L13.6,49.3z"/>
	<polygon class="st1" points="16.7,52 16.4,51.6 16.2,51.4 16.1,51.3 15.9,51.2 15.6,50.9 15.2,50.6 15,50.3 14.6,49.9 14.3,49.6 
		14.1,49.6 14.1,49.6 13.9,49.7 13.6,49.6 13.5,49.8 13.6,49.9 13.8,50.1 14,50.3 14.5,50.6 14.7,50.8 14.9,50.9 15.3,51.4 
		15.6,51.7 15.7,51.7 16,51.8 16.2,51.9 16.5,52.1 16.8,52.1 16.8,52.1 	"/>
	<polygon class="st1" points="16.9,47.1 16.8,46.7 16.7,46.4 16.6,46 16.5,45.5 16.4,45.7 16.3,46 16.2,46.2 16,46.3 15.9,46.5 
		15.9,46.8 15.8,47 15.7,47.1 15.7,47.3 15.5,47.6 15.5,47.8 15.2,48.1 15.2,48.4 15.2,48.6 15.1,48.7 15.1,48.9 15.2,49.4 15.4,50 
		15.4,50.1 15.5,50.5 15.7,50.8 15.8,51.1 15.8,51.3 15.9,51.6 16,51.8 16.1,51.8 16.1,51.6 16.1,51.3 16.1,51 16.3,50.6 16.6,50.1 
		16.7,49.7 16.7,49.7 16.8,49.6 16.8,48.3 16.9,47.9 17,47.6 17,47.6 16.9,47.5 	"/>
	<polyline class="st1" points="15.9,50.8 15.9,49.8 16,48.9 16.2,48 16.4,46.2 	"/>
	<path class="st2" d="M24.2,23.7h0.9v0.7h-3.5v0.9l-0.4,1.5l-0.4-1.5v-0.9h-3.4v-0.7c0,0,0.6,0,0.7,0c0.7,0.3,1,0.5,2.7,0
		c0.1-0.4,0.1-2.4,0.1-2.4h0.4c0,0,0.2,2.4,0.2,2.5C22,23.7,23.2,24.3,24.2,23.7L24.2,23.7z"/>
	<path class="st2" d="M21.3,20.9c-0.2,0-0.3-0.1-0.3-0.3c0-0.2,0.1-0.3,0.3-0.3c0.2,0,0.3,0.1,0.3,0.3
		C21.6,20.7,21.4,20.9,21.3,20.9 M21.3,20c-0.3,0-0.6,0.3-0.6,0.6c0,0.3,0.3,0.6,0.6,0.6c0.3,0,0.6-0.3,0.6-0.6
		C21.9,20.3,21.6,20,21.3,20 M24.9,24.3l1.4,5.1c0,0,0,0,0,0.2c-0.1,0.2-1.8,2-3.6,0c0-0.1,0-0.2,0-0.2l1.5-5.1h0.2L23,29.5h1.5
		l0.1-5.2h0.1l0.1,5.2h1.4l-1.3-5.2H24.9z M18.3,24.3l1.4,5.1c0,0,0,0,0,0.2c-0.1,0.2-1.8,2-3.6,0c0-0.1,0-0.2,0-0.2l1.5-5.1h0.2
		l-1.5,5.2h1.5l0.1-5.2H18l0.1,5.2h1.4l-1.3-5.2H18.3z"/>
	<rect x="20.9" y="23.7" class="st2" width="0.8" height="0.7"/>
	<path class="st2" d="M37.5,37.6c-0.1-0.6-0.3-0.5-0.8-0.4c-0.4,0-0.7-0.2-1.1-0.1c-0.8,0.1-1.3,0.4-2.1,0.5c-2-0.2-1.9-0.6-2.3-0.6
		c-0.4,0-0.6,0.1-1,0.2h-0.1c0-0.2,0-0.4-0.1-0.4c-0.2-0.2-0.5-0.1-0.7-0.1c0.2,0.1,0.5,0.1,0.4,0.3c-0.2,0.3-0.8,0.3-0.9,0.2
		L28.6,37c-0.1,0-0.3,0-0.5,0c-0.1,0-0.2,0.1-0.2,0.2c-0.5,0-0.4-0.5-0.4-0.8c-0.2,0.4-0.2,0.6-0.1,1l0.4,0.3l-0.2,0.1l-0.3,0.1
		c0.2,0.2,0.3,0.2,0.6,0.2l0,0.4l-0.1,0.1c0,0.3,0.1,0.4,0.4,0.6c0.5,0,1,0.1,1.2,0.6c0.5,0.4,0.7,0.7,0.9,1.3
		c0.1,0.1,0.2,0.1,0.3,0.2h0c0,0,0,0,0,0c0.2,0.2,0.3,0.4,0.3,0.7l0,0.2l-0.2,0.2c-0.1,0.1-0.2,0.3-0.2,0.4c0,0,0.1,0.1,0.2,0.1
		l0.2,0c0.2-0.1,0.2-0.3,0.3-0.4l0-0.3l0-0.3l0.1-0.1l0.1,0.1v0.2l-0.1,0.3c-0.2,0.4-0.3,0.5-0.3,0.6c0.1,0,0.2,0,0.5,0l0.1-0.3
		c0.1-0.3,0-0.6,0-0.9l0.1-0.4l0.1-0.4c0.5-0.1,1-0.2,1.4-0.2c0.6-0.1,0.4-0.7,1.9-0.8h0c0.1,0.5,0.3,0.8,0.5,1.3l0.1,0.1l0,0.2
		c-0.1,0.3-0.3,0.5-0.5,0.8l-0.2,0.1l0,0.1l-0.1,0.2l0.1,0.2c0.2,0,0.3,0,0.5-0.1l0.1-0.2c0.3-0.4,0.2-0.5,0.2-0.9l0.2-0.3l0.2-0.3
		l0.1-0.1c0.1,0.1,0.1,0.2,0.2,0.2c0.2,0.4,0.3,0.9-0.1,1.3c-0.1,0.2-0.3,0.3-0.3,0.4l0.2,0.1l0.3,0c0.3-0.2,0.5-0.3,0.5-0.7
		C37.1,42.2,37,42,37,41.7c0.1-0.4,0.1-0.4-0.1-0.8l0.1-0.2l0-0.3l0.1-0.5l0-0.5l0.1-0.6l0.1-0.3v-0.4l0-0.2L37,37.6l-0.1-0.1
		l0.2-0.1c0.2,0,0.3,0,0.4,0.2c0.1,0.9-0.1,2-0.2,3L37,40.9c0.2,0.3,0.2,0.4,0.1,0.8v0.2l0.2,0.3c0.2-0.5,0.3-0.9,0.2-1.4
		C37.4,39.7,37.6,38.6,37.5,37.6"/>
	<path class="st1" d="M33.8,23.8c0-0.1-0.1-0.2-0.2-0.2s-0.2,0.1-0.2,0.2c0,0.1,0,0.1,0.1,0.2h0.3C33.8,23.8,33.8,23.8,33.8,23.8"/>
	<path class="st1" d="M33.9,23.9h-0.1h-0.3h-0.2c-0.1,0-0.1,0.1-0.1,0.1c0,0.1,0,0.1,0.1,0.1h0.6c0.1,0,0.1-0.1,0.1-0.1
		C34,24,33.9,23.9,33.9,23.9"/>
	<path class="st1" d="M33.8,25.2h-0.4v-0.4c0-0.1,0.1-0.3,0.2-0.3c0.1,0,0.2,0.1,0.2,0.3V25.2z M34.2,24.1v0.1h-1.2v-0.1h-0.4v0.4
		h0.2v0.8h1.6v-0.8h0.2v-0.4H34.2z"/>
	<path class="st1" d="M37.9,29l-1.4-0.2L35,28.9l-4-0.1L29.7,29L29.1,29l-0.2-0.1l3.3-3.3c0,0,0.3-0.3,0.6-0.3c0.3,0,1.6,0,1.6,0
		s0.3,0,0.6,0.3c0.3,0.4,2.7,2.7,3.3,3.3C38.4,29,37.9,29,37.9,29 M24.7,39.5c0,0.2-0.1,0.4-0.2,0.6c0,0.1,0.1-0.1,0.2-0.1
		c-0.1,0.3-0.1,0.6-0.1,1c0,0,0-0.1,0.1-0.2c0.1,0.5,0.4,0.8,0.7,1.2c0,0-0.1-0.2-0.1-0.2c0.1,0.2,0.3,0.3,0.6,0.4
		c0-0.1-0.3-0.3-0.3-0.5c0.1-0.1,0.1,0.1,0.3,0.1c-0.5-0.4-0.1-1.3-0.1-2c0-0.1,0.1,0.1,0.1,0.1c0-0.2-0.1-0.4-0.2-0.6
		c0-0.1,0.1,0.1,0.1-0.1c-0.3-0.4-0.4-1-1-1.1c-0.2,0-0.3,0.1-0.5,0.1c-0.2,0-0.3-0.2-0.5-0.3c-0.3-0.2-0.8-0.4-1.3-0.3
		c-0.4,0.1-0.8,0.2-1.3,0.3c-0.6,0-1.2-0.1-1.5-0.4c-0.2-0.2-0.3-0.4-0.4-0.7c-0.5-0.6-1.5-1.6-2.5-1.1c-0.1-0.1-0.3-0.3-0.4-0.2
		c0,0.1,0,0.2,0,0.2s-0.1-0.1-0.3,0c0,0.2,0.3,0.2,0.3,0.4c0,0.1-0.1,0.3-0.1,0.5c0,0.1,0,0.1,0,0.2c0,0.6-0.3,1.1-0.1,1.5
		c0.6,0.3,0.6-0.6,1-0.8c0.1-0.1,0.2,0,0.3-0.1c0.4,0.6-0.1,2,0.5,2.5c-0.1,0.2-0.3,0.3-0.4,0.5c-0.1,0.1-0.4,0.3-0.4,0.4
		c0,0.2,0.1,0.5,0.2,0.7c0.1,0.2,0.1,0.4,0.2,0.7c0.3,0.1,0.3,0.5,0.8,0.4c0.1-0.2-0.1-0.4-0.1-0.7c-0.1,0-0.2,0.1-0.3,0.1
		c-0.1-0.3-0.4-0.6-0.3-1c0.1-0.3,0.7-0.2,1-0.4c0,0.3,0.3,0.5,0.4,0.9c0,0.1,0,0.2,0,0.3c0.1,0.3,0.3,0.6,0.3,1
		c0,0.2-0.2,0.3-0.1,0.5c-0.2,0.1-0.3,0.3-0.4,0.6c0.2,0.1,0.5,0.1,0.7,0c0.1-0.3,0-0.5,0.2-0.7c-0.3-0.8-0.2-1.6-0.1-2.5
		c0.9,0,1.6-0.1,2.1-0.4c0.1,0.5,0.8,0.6,0.8,1c0,0.2-0.5,0.7-0.7,0.8c-0.1,0.1-0.3,0.2-0.3,0.3c0,0.4-0.1,0.6-0.1,1
		c0.3,0.1,0.5-0.1,0.7-0.3c0-0.1-0.1-0.2-0.2-0.3c0-0.1,0.2-0.1,0.2-0.2c0-0.6,0.9-0.7,1-1.1c0.1-0.3-0.2-0.5-0.2-0.8
		c0.4,0.1,0.7,0.6,1.1,0.8c0.3,0.4,0.7,1.1,0.6,1.8c0,0.2-0.4,0.4-0.4,0.7c0.1,0.2,0.5,0.2,0.7,0.1c0.2-0.3,0-0.6,0.2-0.8
		c-0.3-0.6-0.2-1.2-0.3-1.9c0-0.1-0.2-0.2-0.3-0.3c-0.6-0.7,0.1-1.4,0-2.4c0.2,0.1,0.3,0.2,0.4,0.4c0.1,0,0-0.1,0-0.1
		c0.2,0.2,0.1,0.7,0,0.9C24.6,39.7,24.6,39.5,24.7,39.5"/>
	<path class="st1" d="M27.1,14.9c-7.1,0-12.8,8.1-12.8,18c0,9.9,5.8,18,12.8,18c7.1,0,12.8-8.1,12.8-18C40,22.9,34.2,14.9,27.1,14.9
		 M27.1,51.2c-3.5,0-6.9-1.9-9.4-5.4c-2.5-3.5-3.9-8.1-3.9-13c0-4.9,1.4-9.5,3.9-13c2.5-3.5,5.8-5.4,9.4-5.4c3.5,0,6.9,1.9,9.4,5.4
		c2.5,3.5,3.9,8.1,3.9,13c0,4.9-1.4,9.5-3.9,13C34,49.3,30.7,51.2,27.1,51.2"/>
	<path class="st1" d="M28.3,31.8c-0.5,0-0.9,0.3-1.3,0.3v0.4c0.5,0,0.9-0.3,1.3-0.3c0.5,0,0.9,0.3,1.3,0.3c0.5,0,0.9-0.3,1.3-0.3
		s0.9,0.3,1.3,0.3c0.5,0,0.9-0.3,1.3-0.3c0.5,0,0.9,0.3,1.3,0.3c0.5,0,0.9-0.3,1.3-0.3c0.5,0,0.9,0.3,1.3,0.3c0.5,0,0.9-0.3,1.3-0.3
		c0.5,0,0.9,0.3,1.3,0.3c0-0.1,0-0.3,0-0.4c-0.5,0-0.9-0.3-1.3-0.3c-0.5,0-0.9,0.3-1.3,0.3c-0.5,0-0.9-0.3-1.3-0.3
		c-0.5,0-0.9,0.3-1.3,0.3c-0.5,0-0.9-0.3-1.3-0.3c-0.5,0-0.9,0.3-1.3,0.3c-0.5,0-0.9-0.3-1.3-0.3S30.1,32,29.7,32
		C29.2,32,28.8,31.8,28.3,31.8 M28.3,31c-0.5,0-0.9,0.3-1.3,0.3v0.4c0.5,0,0.9-0.3,1.3-0.3c0.5,0,0.9,0.3,1.3,0.3
		c0.5,0,0.9-0.3,1.3-0.3s0.9,0.3,1.3,0.3c0.5,0,0.9-0.3,1.3-0.3c0.5,0,0.9,0.3,1.3,0.3c0.5,0,0.9-0.3,1.3-0.3c0.5,0,0.9,0.3,1.3,0.3
		c0.5,0,0.9-0.3,1.3-0.3c0.5,0,0.9,0.2,1.3,0.3c0-0.1,0-0.3,0-0.4c-0.4,0-0.8-0.3-1.3-0.3c-0.5,0-0.9,0.3-1.3,0.3
		c-0.5,0-0.9-0.3-1.3-0.3c-0.5,0-0.9,0.3-1.3,0.3c-0.5,0-0.9-0.3-1.3-0.3c-0.5,0-0.9,0.3-1.3,0.3c-0.5,0-0.9-0.3-1.3-0.3
		s-0.9,0.3-1.3,0.3C29.2,31.2,28.8,31,28.3,31 M28.3,30.1c-0.5,0-0.9,0.3-1.3,0.3v0.4c0.5,0,0.9-0.3,1.3-0.3c0.5,0,0.9,0.3,1.3,0.3
		c0.5,0,0.9-0.3,1.3-0.3s0.9,0.3,1.3,0.3c0.5,0,0.9-0.3,1.3-0.3c0.5,0,0.9,0.3,1.3,0.3c0.5,0,0.9-0.3,1.3-0.3c0.5,0,0.9,0.3,1.3,0.3
		c0.5,0,0.9-0.3,1.3-0.3c0.4,0,0.8,0.2,1.2,0.3c0-0.1,0-0.3,0-0.4c-0.4,0-0.8-0.2-1.2-0.2c-0.5,0-0.9,0.3-1.3,0.3
		c-0.5,0-0.9-0.3-1.3-0.3c-0.5,0-0.9,0.3-1.3,0.3c-0.5,0-0.9-0.3-1.3-0.3c-0.5,0-0.9,0.3-1.3,0.3c-0.5,0-0.9-0.3-1.3-0.3
		s-0.9,0.3-1.3,0.3C29.2,30.4,28.8,30.1,28.3,30.1 M28.3,29.3c-0.5,0-0.9,0.3-1.3,0.3V30c0.5,0,0.9-0.3,1.3-0.3
		c0.5,0,0.9,0.3,1.3,0.3c0.5,0,0.9-0.3,1.3-0.3s0.9,0.3,1.3,0.3c0.5,0,0.9-0.3,1.3-0.3c0.5,0,0.9,0.3,1.3,0.3c0.5,0,0.9-0.3,1.3-0.3
		c0.5,0,0.9,0.3,1.3,0.3c0.5,0,0.9-0.3,1.3-0.3c0.4,0,0.8,0.2,1.1,0.2c0-0.1,0-0.3-0.1-0.4c-0.4-0.1-0.7-0.2-1.1-0.2
		c-0.5,0-0.9,0.3-1.3,0.3c-0.5,0-0.9-0.3-1.3-0.3c-0.5,0-0.9,0.3-1.3,0.3c-0.5,0-0.9-0.3-1.3-0.3c-0.5,0-0.9,0.3-1.3,0.3
		c-0.5,0-0.9-0.3-1.3-0.3s-0.9,0.3-1.3,0.3C29.2,29.6,28.8,29.3,28.3,29.3 M28.3,28.5c-0.5,0-0.9,0.3-1.3,0.3v0.4
		c0.5,0,0.9-0.3,1.3-0.3c0.5,0,0.9,0.3,1.3,0.3c0.5,0,0.9-0.3,1.3-0.3s0.9,0.3,1.3,0.3c0.5,0,0.9-0.3,1.3-0.3c0.5,0,0.9,0.3,1.3,0.3
		c0.5,0,0.9-0.3,1.3-0.3c0.5,0,0.9,0.3,1.3,0.3c0.5,0,0.9-0.3,1.3-0.3c0.3,0,0.7,0.1,1,0.2c0-0.1-0.1-0.3-0.1-0.4
		c-0.3-0.1-0.6-0.2-0.9-0.2c-0.5,0-0.9,0.3-1.3,0.3c-0.5,0-0.9-0.3-1.3-0.3c-0.5,0-0.9,0.3-1.3,0.3c-0.5,0-0.9-0.3-1.3-0.3
		c-0.5,0-0.9,0.3-1.3,0.3c-0.5,0-0.9-0.3-1.3-0.3s-0.9,0.3-1.3,0.3C29.2,28.8,28.8,28.5,28.3,28.5"/>
	<path class="st1" d="M74.4,32.6h-1.2v-8.5c0,0,0,0,0,0.1c0,0,0,0.1,0,0.1c0,0.1,0,0.1,0,0.2c0,0.1,0,0.1,0,0.1
		c-0.3,0.8-0.7,1.5-1,2.2c-0.3,0.7-0.6,1.4-0.9,2c-0.3,0.7-0.6,1.3-0.8,1.9c-0.3,0.6-0.5,1.2-0.8,1.8h-1.2c-0.6-1.3-1.2-2.7-1.8-4
		c-0.6-1.3-1.2-2.7-1.8-4c0-0.1-0.1-0.1-0.1-0.2c0-0.1,0-0.2,0-0.2v8.5h-1.2V22.4h0.9c0.2,0,0.4,0.1,0.5,0.2
		c0.2,0.1,0.3,0.3,0.4,0.4l3.5,8c0,0.1,0,0.1,0.1,0.2c0,0.1,0,0.2,0,0.2c0-0.2,0.1-0.4,0.2-0.6c0.1-0.2,0.2-0.4,0.3-0.6l3.2-7.3
		c0.1-0.2,0.2-0.3,0.4-0.4c0.2-0.1,0.3-0.2,0.5-0.2h0.9V32.6z M78.1,32.6h-1.2v-7.5h1.2V32.6z M76.7,23.1c0-0.1,0-0.2,0.1-0.3
		c0-0.1,0.1-0.2,0.2-0.3c0.1-0.1,0.2-0.1,0.3-0.2c0.1,0,0.2-0.1,0.3-0.1c0.1,0,0.2,0,0.3,0.1c0.1,0,0.2,0.1,0.3,0.2
		c0.1,0.1,0.1,0.2,0.2,0.3s0.1,0.2,0.1,0.3c0,0.1,0,0.2-0.1,0.3s-0.1,0.2-0.2,0.3c-0.1,0.1-0.2,0.1-0.3,0.2c-0.1,0-0.2,0.1-0.3,0.1
		c-0.1,0-0.2,0-0.3-0.1c-0.1,0-0.2-0.1-0.3-0.2c-0.1-0.1-0.1-0.2-0.2-0.3C76.7,23.3,76.7,23.2,76.7,23.1 M81.5,25.1
		c0,0,0,0.1,0.1,0.2c0,0.1,0.1,0.2,0.1,0.4v0.5c0.1-0.2,0.3-0.4,0.5-0.5c0.2-0.1,0.4-0.3,0.6-0.4c0.2-0.1,0.4-0.2,0.7-0.2
		c0.2,0,0.5-0.1,0.7-0.1c0.4,0,0.8,0.1,1.1,0.2c0.3,0.2,0.6,0.4,0.9,0.7c0.2,0.3,0.4,0.6,0.6,1.1c0.1,0.4,0.2,0.9,0.2,1.4v4.3h-1.2
		v-4.3c0-0.7-0.1-1.2-0.4-1.6c-0.3-0.4-0.7-0.6-1.2-0.6c-0.3,0-0.6,0-0.9,0.1s-0.5,0.2-0.7,0.3c-0.2,0.1-0.4,0.3-0.5,0.5
		c-0.1,0.2-0.2,0.4-0.2,0.6v5h-1.2v-7.5H81.5z M90,32.6h-1.2v-7.5H90V32.6z M88.5,23.1c0-0.1,0-0.2,0.1-0.3c0-0.1,0.1-0.2,0.2-0.3
		c0.1-0.1,0.2-0.1,0.3-0.2c0.1,0,0.2-0.1,0.3-0.1c0.1,0,0.2,0,0.3,0.1c0.1,0,0.2,0.1,0.3,0.2c0.1,0.1,0.1,0.2,0.2,0.3
		c0,0.1,0.1,0.2,0.1,0.3c0,0.1,0,0.2-0.1,0.3c0,0.1-0.1,0.2-0.2,0.3c-0.1,0.1-0.2,0.1-0.3,0.2c-0.1,0-0.2,0.1-0.3,0.1
		c-0.1,0-0.2,0-0.3-0.1c-0.1,0-0.2-0.1-0.3-0.2c-0.1-0.1-0.1-0.2-0.2-0.3C88.6,23.3,88.5,23.2,88.5,23.1 M91.6,31.4
		c0.2-0.1,0.3-0.2,0.4-0.2c0.1-0.1,0.3-0.1,0.4-0.1c0.1,0,0.2,0,0.3,0c0.1,0,0.2,0.1,0.4,0.2c0.1,0.1,0.3,0.2,0.4,0.2
		c0.2,0,0.3,0.1,0.5,0.1c0.2,0,0.3,0,0.5-0.1c0.2-0.1,0.3-0.1,0.5-0.2c0.1-0.1,0.3-0.2,0.3-0.4s0.1-0.3,0.1-0.5c0-0.1,0-0.3-0.1-0.4
		c0-0.1-0.1-0.2-0.2-0.3c-0.1-0.1-0.2-0.2-0.4-0.3c-0.2-0.1-0.4-0.2-0.7-0.3l-0.1,0c-0.3-0.1-0.5-0.2-0.8-0.3
		c-0.3-0.1-0.5-0.2-0.7-0.4c-0.2-0.2-0.4-0.4-0.5-0.6c-0.1-0.2-0.2-0.5-0.2-0.9c0-0.3,0.1-0.6,0.2-0.8c0.1-0.2,0.3-0.4,0.5-0.6
		c0.2-0.2,0.4-0.3,0.7-0.4c0.3-0.1,0.5-0.1,0.8-0.1h0c0.3,0,0.5,0.1,0.7,0.1c0.2,0.1,0.4,0.2,0.6,0.3c0.2,0.1,0.3,0.2,0.4,0.4
		c0.1,0.1,0.2,0.2,0.2,0.3l-0.2,0.2c-0.1,0.1-0.2,0.1-0.3,0.2c-0.1,0-0.2,0.1-0.3,0.1c-0.1,0-0.2,0-0.3-0.1c-0.1,0-0.2-0.1-0.3-0.1
		c-0.1-0.1-0.2-0.1-0.3-0.1c-0.1,0-0.2-0.1-0.3-0.1c-0.2,0-0.4,0-0.5,0.1c-0.1,0.1-0.3,0.1-0.3,0.2c-0.1,0.1-0.1,0.2-0.2,0.3
		c0,0.1-0.1,0.2-0.1,0.2c0,0.2,0,0.3,0.1,0.4c0.1,0.1,0.2,0.2,0.3,0.3c0.1,0.1,0.3,0.2,0.4,0.2c0.2,0.1,0.3,0.1,0.5,0.2c0,0,0,0,0,0
		c0,0,0,0,0,0c0.3,0.1,0.6,0.2,0.8,0.3c0.3,0.1,0.5,0.3,0.7,0.5c0.2,0.2,0.4,0.4,0.5,0.6c0.1,0.2,0.2,0.5,0.2,0.9
		c0,0.3-0.1,0.6-0.2,0.9c-0.1,0.3-0.3,0.5-0.5,0.7c-0.2,0.2-0.5,0.4-0.8,0.5c-0.3,0.1-0.7,0.2-1,0.2c-0.2,0-0.5,0-0.7-0.1
		c-0.2-0.1-0.4-0.2-0.6-0.3c-0.2-0.1-0.4-0.3-0.6-0.4C91.9,31.8,91.7,31.6,91.6,31.4 M99.9,30.8c0,0.1,0,0.2,0,0.3
		c0,0.1,0.1,0.2,0.1,0.3c0.1,0.1,0.1,0.2,0.2,0.2c0.1,0.1,0.2,0.1,0.3,0.1l0.2,0c0.2-0.1,0.4-0.1,0.5-0.1c0.2,0,0.3,0,0.5,0.1
		c0.1,0.1,0.2,0.2,0.3,0.3l0.1,0.1c-0.1,0.1-0.2,0.1-0.3,0.2c-0.1,0.1-0.3,0.1-0.4,0.2c-0.2,0.1-0.3,0.1-0.5,0.1c-0.1,0-0.3,0-0.4,0
		c-0.3,0-0.5,0-0.8-0.1c-0.2-0.1-0.4-0.2-0.6-0.4c-0.2-0.2-0.3-0.4-0.4-0.6c-0.1-0.2-0.1-0.5-0.1-0.8v-4.6h-1.3v-0.5
		c0-0.1,0-0.2,0-0.3c0-0.1,0.1-0.1,0.2-0.2c0.1-0.1,0.2-0.1,0.3-0.1c0.1,0,0.3,0,0.5,0h0.3v-1.6c0-0.1,0-0.2,0-0.4
		c0-0.1,0.1-0.2,0.1-0.3c0-0.1,0.1-0.2,0.1-0.2c0-0.1,0.1-0.1,0.1-0.1h0.9v2.6h2.2v1.1h-2.2V30.8z M109.2,28
		c-0.1-0.3-0.2-0.6-0.4-0.8c-0.2-0.2-0.4-0.4-0.6-0.6c-0.2-0.2-0.5-0.3-0.7-0.4c-0.3-0.1-0.6-0.1-0.8-0.1c-0.3,0-0.6,0.1-0.9,0.2
		c-0.3,0.1-0.6,0.3-0.8,0.5c-0.2,0.2-0.4,0.4-0.6,0.7c-0.2,0.3-0.3,0.6-0.3,0.9c0-0.1,0.1-0.1,0.2-0.2c0.1-0.1,0.2-0.1,0.3-0.1
		H109.2z M110.4,28.2c0,0.1,0,0.3-0.1,0.4c-0.1,0.1-0.1,0.2-0.2,0.3c-0.1,0.1-0.2,0.2-0.3,0.2c-0.1,0-0.2,0.1-0.3,0.1h-5.5
		c0,0.3,0.1,0.7,0.3,1c0.2,0.3,0.4,0.5,0.6,0.8c0.2,0.2,0.5,0.4,0.8,0.5c0.3,0.1,0.6,0.2,1,0.2c0.2,0,0.5,0,0.7-0.1
		c0.3-0.1,0.5-0.2,0.7-0.3c0.1,0,0.1-0.1,0.2-0.1c0.1,0,0.2,0,0.3,0c0.1,0,0.2,0,0.3,0.1c0.1,0,0.2,0.1,0.3,0.1l0.3,0.3
		c-0.2,0.2-0.4,0.3-0.6,0.5c-0.2,0.2-0.4,0.3-0.7,0.4c-0.2,0.1-0.5,0.2-0.8,0.3c-0.3,0.1-0.5,0.1-0.8,0.1c-0.5,0-1-0.1-1.5-0.3
		c-0.5-0.2-0.9-0.5-1.2-0.8c-0.4-0.3-0.6-0.8-0.8-1.2c-0.2-0.5-0.3-1-0.3-1.5c0-0.5,0.1-1,0.3-1.5c0.2-0.5,0.5-0.9,0.8-1.2
		c0.4-0.4,0.8-0.6,1.2-0.8c0.5-0.2,1-0.3,1.5-0.3c0.4,0,0.9,0.1,1.3,0.2c0.4,0.1,0.8,0.3,1.1,0.6s0.6,0.6,0.8,0.9
		c0.2,0.4,0.4,0.7,0.5,1.2C110.4,28,110.4,28.1,110.4,28.2 M112.8,25.1c0,0,0,0.1,0.1,0.2c0,0.1,0.1,0.2,0.1,0.3v0.7
		c0.1-0.2,0.2-0.3,0.4-0.5c0.2-0.2,0.4-0.3,0.6-0.4c0.2-0.1,0.4-0.2,0.7-0.3c0.3-0.1,0.5-0.1,0.8-0.1c0.3,0,0.7,0.1,1,0.2l-0.1,0.5
		c0,0.2-0.1,0.3-0.3,0.4c-0.1,0.1-0.3,0.1-0.5,0.1c0,0-0.1,0-0.1,0c0,0,0,0-0.1,0c-0.3,0-0.6,0-0.9,0.1c-0.3,0.1-0.5,0.2-0.8,0.4
		c-0.2,0.2-0.4,0.3-0.5,0.5c-0.1,0.2-0.2,0.4-0.2,0.6v4.8h-1.2v-7.5H112.8z M118.5,32.6h-1.2v-7.5h1.2V32.6z M117.1,23.1
		c0-0.1,0-0.2,0.1-0.3c0-0.1,0.1-0.2,0.2-0.3c0.1-0.1,0.2-0.1,0.3-0.2c0.1,0,0.2-0.1,0.3-0.1c0.1,0,0.2,0,0.3,0.1
		c0.1,0,0.2,0.1,0.3,0.2c0.1,0.1,0.1,0.2,0.2,0.3c0,0.1,0.1,0.2,0.1,0.3c0,0.1,0,0.2-0.1,0.3c0,0.1-0.1,0.2-0.2,0.3
		c-0.1,0.1-0.2,0.1-0.3,0.2c-0.1,0-0.2,0.1-0.3,0.1c-0.1,0-0.2,0-0.3-0.1c-0.1,0-0.2-0.1-0.3-0.2c-0.1-0.1-0.1-0.2-0.2-0.3
		C117.1,23.3,117.1,23.2,117.1,23.1 M121.5,28.9c0,0.4,0.1,0.7,0.2,1.1c0.1,0.3,0.3,0.6,0.6,0.9c0.2,0.2,0.5,0.4,0.9,0.6
		c0.3,0.1,0.7,0.2,1.1,0.2c0.4,0,0.7-0.1,1.1-0.2c0.3-0.1,0.6-0.3,0.9-0.6c0.2-0.2,0.4-0.5,0.6-0.9c0.1-0.3,0.2-0.7,0.2-1.1
		c0-0.4-0.1-0.7-0.2-1.1s-0.3-0.6-0.6-0.9c-0.2-0.2-0.5-0.4-0.9-0.6c-0.3-0.1-0.7-0.2-1.1-0.2c-0.4,0-0.7,0.1-1.1,0.2
		c-0.3,0.1-0.6,0.3-0.9,0.6c-0.2,0.2-0.4,0.5-0.6,0.9C121.6,28.1,121.5,28.5,121.5,28.9 M120.3,28.9c0-0.5,0.1-1,0.3-1.5
		c0.2-0.5,0.5-0.9,0.8-1.2c0.4-0.4,0.8-0.6,1.2-0.8c0.5-0.2,1-0.3,1.5-0.3c0.5,0,1,0.1,1.5,0.3c0.5,0.2,0.9,0.5,1.2,0.8
		c0.4,0.3,0.6,0.8,0.8,1.2c0.2,0.5,0.3,1,0.3,1.5c0,0.5-0.1,1-0.3,1.5c-0.2,0.5-0.5,0.9-0.8,1.2c-0.4,0.4-0.8,0.6-1.2,0.8
		c-0.5,0.2-1,0.3-1.5,0.3c-0.5,0-1-0.1-1.5-0.3c-0.5-0.2-0.9-0.5-1.2-0.8c-0.4-0.3-0.6-0.8-0.8-1.2
		C120.4,29.9,120.3,29.4,120.3,28.9"/>
	<path class="st3" d="M66.7,46.5c0.2,0,0.3,0,0.5-0.1c0.2,0,0.3-0.1,0.5-0.2c0.1-0.1,0.3-0.1,0.4-0.2c0.1-0.1,0.2-0.2,0.3-0.3l0.1,0
		c0,0.1,0,0.2,0,0.3c0,0.1,0,0.2,0.1,0.2c0,0.1,0.1,0.1,0.1,0.2h1.9V36.1H68v3.1c-0.2-0.1-0.4-0.2-0.6-0.3c-0.2-0.1-0.5-0.1-0.7-0.1
		c-0.5,0-1,0.1-1.5,0.3c-0.5,0.2-0.9,0.5-1.2,0.8c-0.4,0.4-0.6,0.8-0.8,1.2c-0.2,0.5-0.3,1-0.3,1.5c0,0.5,0.1,1,0.3,1.5
		c0.2,0.5,0.5,0.9,0.8,1.2c0.3,0.4,0.8,0.6,1.2,0.8C65.6,46.4,66.1,46.5,66.7,46.5L66.7,46.5z M66.7,44.1c-0.2,0-0.4,0-0.6-0.1
		c-0.2-0.1-0.3-0.2-0.5-0.3c-0.1-0.1-0.2-0.3-0.3-0.5c-0.1-0.2-0.1-0.4-0.1-0.6c0-0.2,0-0.4,0.1-0.6c0.1-0.2,0.2-0.3,0.3-0.5
		c0.1-0.1,0.3-0.2,0.5-0.3c0.2-0.1,0.4-0.1,0.6-0.1c0.3,0,0.6,0.1,0.8,0.2c0.2,0.2,0.4,0.4,0.5,0.6v1.3c-0.1,0.3-0.3,0.5-0.5,0.6
		C67.2,44,67,44.1,66.7,44.1 M75.3,46.5c0.6,0,1.1-0.1,1.7-0.4c0.5-0.2,1.1-0.6,1.5-1.1l-0.6-0.6c-0.1-0.1-0.3-0.3-0.5-0.3
		C77.3,44,77.1,44,76.9,44c-0.2,0-0.3,0-0.4,0.1c-0.1,0-0.3,0.1-0.4,0.1c-0.1,0.1-0.3,0.1-0.4,0.1c-0.1,0-0.3,0.1-0.4,0.1
		c-0.3,0-0.5,0-0.6-0.1c-0.2-0.1-0.3-0.2-0.4-0.3c-0.1-0.1-0.2-0.3-0.3-0.5h3.7c0.2,0,0.3,0,0.5-0.1c0.2,0,0.3-0.1,0.5-0.2
		c0.1-0.1,0.3-0.2,0.3-0.4c0.1-0.2,0.1-0.4,0.1-0.6c0,0,0-0.1,0-0.2c0-0.1,0-0.2,0-0.3c-0.1-0.4-0.3-0.8-0.5-1.2
		c-0.2-0.4-0.5-0.7-0.9-1c-0.3-0.3-0.7-0.5-1.1-0.6s-0.8-0.2-1.3-0.2c-0.5,0-1,0.1-1.5,0.3c-0.5,0.2-0.9,0.5-1.2,0.8
		c-0.4,0.4-0.6,0.8-0.8,1.2c-0.2,0.5-0.3,1-0.3,1.5c0,0.5,0.1,1,0.3,1.5c0.2,0.5,0.5,0.9,0.8,1.2c0.4,0.4,0.8,0.6,1.2,0.8
		C74.3,46.4,74.8,46.5,75.3,46.5 M73.9,41.9c0.1-0.2,0.2-0.4,0.3-0.5c0.1-0.1,0.3-0.3,0.4-0.4c0.2-0.1,0.4-0.2,0.7-0.2
		c0.3,0,0.5,0,0.7,0.1c0.2,0.1,0.3,0.2,0.4,0.3c0.1,0.1,0.2,0.3,0.3,0.5h-2.5c-0.1,0-0.1,0-0.1,0c0,0-0.1,0-0.1,0
		C74,41.9,73.9,41.9,73.9,41.9 M87.9,46.5c0.5,0,1-0.1,1.4-0.2c0.5-0.2,0.9-0.4,1.2-0.7c0.4-0.3,0.6-0.7,0.8-1.1
		c0.2-0.4,0.3-0.9,0.3-1.4c0-0.4-0.1-0.8-0.2-1.1c-0.1-0.3-0.3-0.6-0.5-0.9c-0.2-0.3-0.5-0.5-0.8-0.7c-0.3-0.2-0.7-0.4-1.1-0.5
		c-0.3-0.1-0.6-0.2-0.8-0.3c-0.2-0.1-0.4-0.1-0.6-0.2c-0.2-0.1-0.3-0.1-0.3-0.2c-0.1-0.1-0.1-0.2-0.1-0.4c0-0.1,0-0.2,0.1-0.3
		c0.1-0.1,0.1-0.1,0.2-0.2c0.1,0,0.2-0.1,0.3-0.1c0.1,0,0.2,0,0.4,0c0.1,0,0.2,0,0.3,0.1c0.1,0,0.2,0.1,0.3,0.1
		c0.1,0,0.2,0.1,0.3,0.1s0.2,0.1,0.4,0.1c0.2,0,0.4,0,0.5-0.1c0.2-0.1,0.3-0.1,0.4-0.3l0.7-0.6c-0.2-0.2-0.4-0.4-0.6-0.6
		c-0.2-0.2-0.5-0.4-0.7-0.6c-0.3-0.2-0.5-0.3-0.8-0.4c-0.3-0.1-0.6-0.2-0.9-0.2c-0.4,0-0.8,0.1-1.2,0.2c-0.4,0.1-0.8,0.3-1.1,0.6
		c-0.3,0.2-0.6,0.6-0.8,0.9c-0.2,0.4-0.3,0.8-0.3,1.2c0,0.5,0.1,0.9,0.3,1.2s0.4,0.6,0.7,0.8c0.3,0.2,0.6,0.4,0.9,0.6
		c0.3,0.2,0.7,0.3,1,0.4c0.2,0.1,0.4,0.2,0.6,0.2c0.2,0.1,0.4,0.1,0.5,0.2c0.2,0.1,0.3,0.2,0.4,0.3c0.1,0.1,0.1,0.2,0.1,0.4
		c0,0.2,0,0.3-0.1,0.4c-0.1,0.1-0.2,0.2-0.4,0.3c-0.1,0.1-0.3,0.2-0.5,0.2c-0.2,0-0.3,0.1-0.5,0.1c-0.2,0-0.4,0-0.6-0.1
		c-0.2-0.1-0.3-0.2-0.5-0.3c-0.2-0.1-0.3-0.2-0.5-0.3c-0.2-0.1-0.4-0.1-0.6-0.1c-0.1,0-0.3,0-0.4,0.1c-0.1,0-0.3,0.1-0.4,0.2
		L84.2,44c0.1,0.4,0.3,0.7,0.6,1c0.2,0.3,0.5,0.6,0.8,0.8c0.3,0.2,0.7,0.4,1,0.5C87.1,46.4,87.5,46.5,87.9,46.5 M95.6,46.5
		c0.1,0,0.2,0,0.4,0c0.1,0,0.3-0.1,0.4-0.1c0.2-0.1,0.3-0.1,0.5-0.2c0.2-0.1,0.3-0.2,0.4-0.4c0,0.1,0,0.2,0,0.3c0,0.1,0,0.2,0.1,0.2
		c0,0.1,0.1,0.1,0.1,0.2h1.9v-3.8c0-0.3,0-0.6,0-1c0-0.3-0.1-0.6-0.2-0.9c-0.1-0.3-0.2-0.6-0.3-0.8c-0.1-0.2-0.3-0.5-0.6-0.6
		c-0.2-0.2-0.5-0.3-0.9-0.4c-0.3-0.1-0.7-0.2-1.2-0.2c-0.4,0-0.8,0-1.1,0.1c-0.3,0.1-0.6,0.2-0.9,0.4c-0.1,0.1-0.2,0.2-0.3,0.3
		c-0.1,0.1-0.2,0.2-0.3,0.3c-0.1,0.1-0.2,0.2-0.3,0.4l0.6,0.4c0.1,0.1,0.3,0.2,0.4,0.2c0.2,0.1,0.3,0.1,0.5,0.1c0.1,0,0.2,0,0.4-0.1
		c0.1,0,0.2-0.1,0.3-0.1c0.1-0.1,0.2-0.1,0.3-0.1c0.1,0,0.2-0.1,0.3-0.1c0.3,0,0.5,0.1,0.6,0.3c0.2,0.2,0.2,0.5,0.3,0.8
		c0,0-0.1-0.1-0.1-0.1c0,0-0.1,0-0.2-0.1c-0.1,0-0.2,0-0.3,0c-1.2,0-2.1,0.2-2.7,0.6c-0.6,0.4-0.9,1-0.9,1.9c0,0.4,0.1,0.7,0.2,1
		c0.1,0.3,0.4,0.6,0.6,0.8c0.3,0.2,0.6,0.4,0.9,0.5C94.8,46.4,95.2,46.5,95.6,46.5 M95.6,44.5c-0.1,0-0.2,0-0.3-0.1
		c-0.1,0-0.2-0.1-0.2-0.2C95.1,44.2,95,44.1,95,44c0-0.1,0-0.2,0-0.3c0-0.1,0-0.2,0.1-0.3c0.1-0.1,0.2-0.2,0.3-0.2
		c0.1-0.1,0.3-0.1,0.5-0.2c0.2,0,0.4-0.1,0.5-0.1c0.1,0,0.3,0,0.4,0c0.1,0,0.2,0,0.3,0v1.1c-0.2,0.1-0.5,0.2-0.7,0.3
		C96.1,44.5,95.8,44.5,95.6,44.5 M103.6,36.1h-2.4v10.3h2.4V36.1z M108.3,46.5c0.2,0,0.5,0,0.7-0.1c0.2-0.1,0.4-0.2,0.6-0.3
		c0.2-0.1,0.4-0.2,0.5-0.4c0.1-0.2,0.2-0.3,0.3-0.5c0,0,0,0.1,0,0.1v0.1c0,0.2,0,0.4,0.1,0.5c0,0.2,0.1,0.3,0.2,0.4h1.8v-7.5h-2.3
		v4.3c0,0.2,0,0.3-0.1,0.4c-0.1,0.1-0.2,0.2-0.3,0.3c-0.1,0.1-0.3,0.2-0.5,0.2c-0.2,0-0.4,0.1-0.6,0.1c-0.1,0-0.2,0-0.3,0
		c-0.1,0-0.2-0.1-0.3-0.2c-0.1-0.1-0.1-0.2-0.2-0.4c-0.1-0.2-0.1-0.4-0.1-0.6v-4.1h-2.3v4.2c0,0.5,0.1,1,0.2,1.4
		c0.1,0.4,0.3,0.8,0.6,1.1c0.2,0.3,0.5,0.5,0.9,0.7C107.5,46.4,107.9,46.5,108.3,46.5 M117.7,46.5c0.2,0,0.3,0,0.5-0.1
		c0.2,0,0.3-0.1,0.5-0.2c0.1-0.1,0.3-0.1,0.4-0.2c0.1-0.1,0.2-0.2,0.3-0.3l0.1,0c0,0.1,0,0.2,0.1,0.3c0,0.1,0,0.2,0.1,0.2
		c0,0.1,0.1,0.1,0.1,0.2h1.9V36.1h-2.3v3.1c-0.2-0.1-0.4-0.2-0.6-0.3c-0.2-0.1-0.5-0.1-0.7-0.1c-0.5,0-1,0.1-1.5,0.3
		c-0.5,0.2-0.9,0.5-1.2,0.8c-0.4,0.4-0.6,0.8-0.8,1.2c-0.2,0.5-0.3,1-0.3,1.5c0,0.5,0.1,1,0.3,1.5c0.2,0.5,0.5,0.9,0.8,1.2
		c0.3,0.4,0.8,0.6,1.2,0.8C116.6,46.4,117.1,46.5,117.7,46.5L117.7,46.5z M117.7,44.1c-0.2,0-0.4,0-0.6-0.1s-0.3-0.2-0.5-0.3
		c-0.1-0.1-0.2-0.3-0.3-0.5c-0.1-0.2-0.1-0.4-0.1-0.6c0-0.2,0-0.4,0.1-0.6c0.1-0.2,0.2-0.3,0.3-0.5c0.1-0.1,0.3-0.2,0.5-0.3
		s0.4-0.1,0.6-0.1c0.3,0,0.6,0.1,0.8,0.2c0.2,0.2,0.4,0.4,0.5,0.6v1.3c-0.1,0.3-0.3,0.5-0.5,0.6C118.3,44,118,44.1,117.7,44.1
		 M129.4,46.4v-3.1h1.8c0.5,0,0.9-0.1,1.4-0.3c0.4-0.2,0.8-0.5,1.1-0.8c0.3-0.3,0.6-0.7,0.7-1.1c0.2-0.4,0.3-0.9,0.3-1.4
		c0-0.5-0.1-0.9-0.3-1.4c-0.2-0.4-0.4-0.8-0.7-1.1c-0.3-0.3-0.7-0.6-1.1-0.8c-0.4-0.2-0.9-0.3-1.4-0.3h-4.1v10.3H129.4z M131.2,40.9
		h-1.8v-2.4h1.8c0.1,0,0.3,0,0.4,0.1c0.1,0.1,0.3,0.2,0.4,0.3s0.2,0.2,0.2,0.4c0.1,0.1,0.1,0.3,0.1,0.4c0,0.1,0,0.3-0.1,0.4
		c-0.1,0.1-0.1,0.3-0.2,0.4s-0.2,0.2-0.4,0.3C131.5,40.9,131.4,40.9,131.2,40.9 M139.7,38c0.6,0,1-0.2,1.2-0.5l1.5-1.8h-1.5
		c-0.3,0-0.5,0-0.7,0.1c-0.2,0.1-0.4,0.2-0.5,0.4c0,0,0,0.1-0.1,0.1c0,0-0.1,0.1-0.1,0.2s-0.2,0.3-0.3,0.5c-0.1,0.2-0.3,0.5-0.5,1
		H139.7z M138.9,46.5c0.2,0,0.5,0,0.7-0.1c0.2-0.1,0.4-0.2,0.6-0.3c0.2-0.1,0.4-0.2,0.5-0.4s0.2-0.3,0.3-0.5c0,0,0,0.1,0,0.1v0.1
		c0,0.2,0,0.4,0.1,0.5c0,0.2,0.1,0.3,0.2,0.4h1.8v-7.5h-2.3v4.3c0,0.2,0,0.3-0.1,0.4c-0.1,0.1-0.2,0.2-0.3,0.3
		c-0.1,0.1-0.3,0.2-0.5,0.2c-0.2,0-0.4,0.1-0.6,0.1c-0.1,0-0.2,0-0.3,0c-0.1,0-0.2-0.1-0.3-0.2c-0.1-0.1-0.1-0.2-0.2-0.4
		c-0.1-0.2-0.1-0.4-0.1-0.6v-4.1H136v4.2c0,0.5,0.1,1,0.2,1.4c0.1,0.4,0.3,0.8,0.6,1.1c0.2,0.3,0.5,0.5,0.9,0.7
		C138,46.4,138.4,46.5,138.9,46.5 M148.7,46.5c0.5,0,1-0.1,1.5-0.3c0.5-0.2,0.9-0.5,1.2-0.8c0.3-0.4,0.6-0.8,0.8-1.2
		c0.2-0.5,0.3-1,0.3-1.5c0-0.5-0.1-1-0.3-1.5c-0.2-0.5-0.5-0.9-0.8-1.2c-0.4-0.4-0.8-0.6-1.2-0.8c-0.5-0.2-1-0.3-1.5-0.3
		c-0.3,0-0.5,0-0.7,0.1c-0.2,0.1-0.5,0.2-0.6,0.3v-3.1H145v10.3h1.9c0,0,0.1-0.1,0.1-0.2c0-0.1,0-0.1,0.1-0.2c0-0.1,0-0.2,0-0.3
		l0.1,0c0.1,0.1,0.2,0.2,0.3,0.3c0.1,0.1,0.2,0.2,0.4,0.2c0.1,0.1,0.3,0.1,0.5,0.2C148.4,46.5,148.5,46.5,148.7,46.5L148.7,46.5z
		 M148.7,44.1c-0.3,0-0.6-0.1-0.8-0.2c-0.2-0.2-0.4-0.4-0.5-0.6V42c0.1-0.3,0.3-0.5,0.5-0.6c0.2-0.2,0.5-0.2,0.8-0.2
		c0.2,0,0.4,0,0.6,0.1c0.2,0.1,0.3,0.2,0.5,0.3c0.1,0.1,0.2,0.3,0.3,0.5c0.1,0.2,0.1,0.4,0.1,0.6c0,0.2,0,0.4-0.1,0.6
		c-0.1,0.2-0.2,0.3-0.3,0.5c-0.1,0.1-0.3,0.2-0.5,0.3C149.1,44.1,148.9,44.1,148.7,44.1 M156.5,36.1h-2.4v10.3h2.4V36.1z M159.9,38
		c0.2,0,0.4,0,0.5-0.1c0.2-0.1,0.3-0.1,0.4-0.2c0.1-0.1,0.2-0.2,0.3-0.4c0.1-0.2,0.1-0.3,0.1-0.5c0-0.2,0-0.4-0.1-0.5
		c-0.1-0.2-0.2-0.3-0.3-0.4c-0.1-0.1-0.3-0.2-0.4-0.2c-0.2-0.1-0.4-0.1-0.5-0.1c-0.2,0-0.4,0-0.5,0.1c-0.2,0.1-0.3,0.1-0.4,0.2
		c-0.1,0.1-0.2,0.2-0.3,0.4c-0.1,0.2-0.1,0.3-0.1,0.5c0,0.2,0,0.4,0.1,0.5c0.1,0.2,0.2,0.3,0.3,0.4c0.1,0.1,0.3,0.2,0.4,0.2
		C159.5,38,159.7,38,159.9,38 M161.1,38.8h-2.4v7.5h2.4V38.8z M166.5,46.5c0.3,0,0.6,0,0.8-0.1c0.3-0.1,0.6-0.2,0.8-0.3
		c0.3-0.1,0.5-0.3,0.8-0.5c0.3-0.2,0.5-0.4,0.7-0.7l-0.6-0.6c-0.1-0.1-0.3-0.3-0.5-0.3c-0.2-0.1-0.4-0.1-0.6-0.1
		c-0.2,0-0.3,0-0.4,0.1c-0.1,0-0.2,0.1-0.4,0.1c-0.1,0-0.2,0.1-0.4,0.1c-0.1,0-0.3,0.1-0.4,0.1c-0.2,0-0.4,0-0.6-0.1
		c-0.2-0.1-0.4-0.2-0.5-0.3c-0.1-0.1-0.3-0.3-0.4-0.5c-0.1-0.2-0.1-0.4-0.1-0.6c0-0.2,0-0.4,0.1-0.6c0.1-0.2,0.2-0.3,0.4-0.5
		c0.1-0.1,0.3-0.2,0.5-0.3c0.2-0.1,0.4-0.1,0.6-0.1c0.1,0,0.2,0,0.4,0.1c0.1,0,0.2,0.1,0.4,0.1c0.1,0,0.2,0.1,0.4,0.1
		c0.1,0,0.3,0.1,0.4,0.1c0.4,0,0.8-0.2,1.1-0.5l0.6-0.6c-0.2-0.2-0.5-0.5-0.7-0.7c-0.3-0.2-0.5-0.4-0.8-0.5
		c-0.3-0.1-0.5-0.2-0.8-0.3c-0.3-0.1-0.6-0.1-0.8-0.1c-0.5,0-1,0.1-1.5,0.3c-0.5,0.2-0.9,0.5-1.2,0.8c-0.4,0.4-0.6,0.8-0.8,1.2
		c-0.2,0.5-0.3,1-0.3,1.5c0,0.5,0.1,1,0.3,1.5c0.2,0.5,0.5,0.9,0.8,1.2c0.4,0.4,0.8,0.6,1.2,0.8S166,46.5,166.5,46.5 M173.3,46.5
		c0.1,0,0.2,0,0.4,0c0.1,0,0.3-0.1,0.4-0.1c0.2-0.1,0.3-0.1,0.5-0.2s0.3-0.2,0.4-0.4c0,0.1,0,0.2,0,0.3c0,0.1,0,0.2,0.1,0.2
		c0,0.1,0.1,0.1,0.1,0.2h1.9v-3.8c0-0.3,0-0.6,0-1c0-0.3-0.1-0.6-0.2-0.9c-0.1-0.3-0.2-0.6-0.3-0.8c-0.1-0.2-0.3-0.5-0.6-0.6
		c-0.2-0.2-0.5-0.3-0.9-0.4c-0.3-0.1-0.7-0.2-1.2-0.2c-0.4,0-0.8,0-1.1,0.1c-0.3,0.1-0.6,0.2-0.9,0.4c-0.1,0.1-0.2,0.2-0.3,0.3
		c-0.1,0.1-0.2,0.2-0.3,0.3c-0.1,0.1-0.2,0.2-0.3,0.4l0.6,0.4c0.1,0.1,0.3,0.2,0.4,0.2c0.2,0.1,0.3,0.1,0.5,0.1c0.1,0,0.2,0,0.4-0.1
		c0.1,0,0.2-0.1,0.3-0.1c0.1,0,0.2-0.1,0.3-0.1c0.1,0,0.2-0.1,0.3-0.1c0.3,0,0.5,0.1,0.6,0.3s0.2,0.5,0.3,0.8c0,0-0.1-0.1-0.1-0.1
		c0,0-0.1,0-0.2-0.1c-0.1,0-0.2,0-0.3,0c-1.2,0-2.1,0.2-2.7,0.6c-0.6,0.4-0.9,1-0.9,1.9c0,0.4,0.1,0.7,0.2,1
		c0.1,0.3,0.4,0.6,0.6,0.8c0.3,0.2,0.6,0.4,0.9,0.5C172.5,46.4,172.9,46.5,173.3,46.5 M173.3,44.5c-0.1,0-0.2,0-0.3-0.1
		c-0.1,0-0.2-0.1-0.2-0.2c-0.1-0.1-0.1-0.2-0.1-0.2c0-0.1,0-0.2,0-0.3c0-0.1,0-0.2,0.1-0.3c0.1-0.1,0.2-0.2,0.3-0.2
		c0.1-0.1,0.3-0.1,0.5-0.2c0.2,0,0.4-0.1,0.5-0.1c0.1,0,0.3,0,0.4,0c0.1,0,0.2,0,0.3,0v1.1c-0.2,0.1-0.5,0.2-0.7,0.3
		C173.7,44.5,173.5,44.5,173.3,44.5"/>
</g>
</svg>
