<?xml version="1.0" encoding="utf-8"?>
<!-- Generator: Adobe Illustrator 23.0.0, SVG Export Plug-In . SVG Version: 6.00 Build 0)  -->
<svg version="1.1" id="Capa_1" xmlns="http://www.w3.org/2000/svg" xmlns:xlink="http://www.w3.org/1999/xlink" x="0px" y="0px"
	 viewBox="0 0 156.8 49.6" style="enable-background:new 0 0 156.8 49.6;" xml:space="preserve">
<style type="text/css">
	.st0{fill:#183A64;}
	.st1{clip-path:url(#SVGID_2_);fill:url(#SVGID_3_);}
	.st2{clip-path:url(#SVGID_5_);fill:url(#SVGID_6_);}
</style>
<g>
	<path class="st0" d="M14,36.5c1.9-1.2,2.6-2.6,2.6-5.4c0-4.7-2.6-6.5-7.4-6.5H0v24.5h9.4c4.7,0,7.7-2.1,7.7-7
		C17.1,39,16,37.4,14,36.5 M4.8,28.9H9c1.8,0,2.7,0.9,2.7,2.9c0,1.9-0.8,2.9-2.7,2.9H4.8V28.9z M9.2,44.9H4.8v-6h4.4
		c1.9,0,3.1,0.9,3.1,2.9C12.2,44.3,11.2,44.9,9.2,44.9 M21.2,49.1h4.8V24.7h-4.8V49.1z M39,24.7h-8v24.5h8c8.5,0,10-4.4,10-12.7
		C49.1,28.3,47.3,24.7,39,24.7 M39,44.8h-3.2V29H39c4.7,0,5.1,2.1,5.1,7.4C44.1,41.9,43.7,44.8,39,44.8 M53.3,49.1H58V24.7h-4.8
		V49.1z M71.9,24.2c-7.4,0-9.8,4.5-9.8,12.8c0,8.3,2.4,12.5,9.8,12.5c7.4,0,9.8-4.2,9.8-12.5C81.7,28.8,79.4,24.2,71.9,24.2
		 M71.9,45.3c-3.9,0-4.9-2.6-4.9-8.2c0-5.6,1-8.5,4.9-8.5c3.9,0,4.9,2.8,4.9,8.5C76.8,42.7,75.8,45.3,71.9,45.3 M90.6,44.7V24.7
		h-4.8v24.5h13.4v-4.4H90.6z"/>
	<g>
		<defs>
			<path id="SVGID_1_" d="M148.1,8.6c-0.3,0.6-0.4,1.5-0.4,2.8c0,1.3,0.1,2.2,0.4,2.8c0.3,0.6,0.7,0.8,1.3,0.8c0.6,0,1-0.3,1.3-0.8
				c0.3-0.6,0.4-1.5,0.4-2.8c0-1.3-0.1-2.2-0.4-2.8c-0.3-0.6-0.7-0.8-1.3-0.8C148.8,7.7,148.3,8,148.1,8.6 M147.9,14.2
				c-0.3-0.6-0.4-1.6-0.4-2.8c0-1.3,0.2-2.2,0.5-2.8c0.3-0.6,0.8-0.9,1.4-0.9c0.6,0,1.1,0.3,1.4,0.9c0.3,0.6,0.5,1.6,0.5,2.9
				c0,1.3-0.2,2.2-0.5,2.8c-0.3,0.6-0.8,0.9-1.4,0.9C148.7,15.1,148.2,14.8,147.9,14.2 M147.8,8.5c-0.3,0.6-0.5,1.6-0.5,2.9
				c0,1.3,0.2,2.3,0.5,2.9c0.3,0.6,0.8,1,1.5,1c0.7,0,1.2-0.3,1.5-1c0.3-0.6,0.5-1.6,0.5-2.9c0-1.3-0.2-2.3-0.5-2.9
				c-0.3-0.7-0.8-1-1.5-1C148.7,7.5,148.2,7.8,147.8,8.5 M138.9,8.1c0.7,0,1.2-0.2,1.6-0.4c0.4-0.2,0.7-0.6,0.9-1h1v7.4
				c0,0.4,0.1,0.7,0.2,0.8c0.1,0.1,0.4,0.2,1,0.2h0.6v0.9h-5.3v-0.9h0.5c0.6,0,0.9-0.1,1-0.2c0.2-0.1,0.2-0.4,0.2-0.8V9.1
				c0-0.1-0.1-0.1-0.1-0.1h-1.7V8.1z M141.3,6.6c-0.2,0.5-0.5,0.8-0.9,1.1c-0.4,0.2-1,0.3-1.7,0.4v1.1h1.8v4.9
				c0,0.4-0.1,0.6-0.2,0.7s-0.5,0.2-1,0.2h-0.7v1.1h5.6V15h-0.8c-0.5,0-0.8-0.1-0.9-0.2c-0.1-0.1-0.2-0.3-0.2-0.7V6.6H141.3z
				 M146.4,14.9c-0.8-0.9-1.1-2.1-1.1-3.5c0-1.4,0.4-2.6,1.1-3.5c0.7-0.9,1.7-1.3,2.9-1.3c1.2,0,2.2,0.4,2.9,1.3
				c0.8,0.9,1.1,2.1,1.1,3.5c0,1.4-0.4,2.6-1.1,3.5c-0.8,0.9-1.7,1.3-2.9,1.3C148.2,16.2,147.2,15.8,146.4,14.9 M146.4,7.8
				c-0.8,0.9-1.2,2.1-1.2,3.6c0,1.5,0.4,2.7,1.2,3.6c0.8,0.9,1.8,1.4,3,1.4c1.2,0,2.2-0.5,3-1.4c0.8-0.9,1.2-2.1,1.2-3.6
				c0-1.5-0.4-2.7-1.2-3.6c-0.8-0.9-1.8-1.4-3-1.4C148.1,6.4,147.1,6.9,146.4,7.8 M138.6,9.1V8c0-0.1,0.1-0.1,0.1-0.1
				c0.7,0,1.2-0.2,1.6-0.4c0.4-0.2,0.7-0.5,0.9-1c0,0,0.1-0.1,0.1-0.1h1.2c0.1,0,0.1,0.1,0.1,0.1v7.5c0,0.5,0.1,0.6,0.1,0.6
				c0,0,0.2,0.1,0.8,0.1h0.8c0.1,0,0.1,0.1,0.1,0.1v1.1c0,0.1-0.1,0.1-0.1,0.1h-5.6c-0.1,0-0.1-0.1-0.1-0.1V15
				c0-0.1,0.1-0.1,0.1-0.1h0.7c0.6,0,0.8-0.1,0.9-0.1c0.1-0.1,0.2-0.2,0.2-0.6V9.2h-1.7C138.7,9.2,138.6,9.2,138.6,9.1 M146.3,15
				c-0.8-0.9-1.2-2.2-1.2-3.7c0-1.5,0.4-2.7,1.2-3.7c0.8-0.9,1.8-1.4,3.1-1.4c1.3,0,2.3,0.5,3.1,1.4c0.8,0.9,1.2,2.2,1.2,3.7
				c0,1.5-0.4,2.7-1.2,3.7c-0.8,0.9-1.9,1.4-3.1,1.4C148.1,16.5,147.1,16,146.3,15 M145.6,0c-5.7,0-10.4,4.7-10.4,10.4v0.5v10.8
				h10.2c0.1,0,0.1,0,0.2,0h0.8c0.1,0,0.1,0,0.2,0h0.8v0c5.2-0.5,9.4-5,9.4-10.3v-0.9c0-5.7-4.7-10.4-10.4-10.4H145.6z"/>
		</defs>
		<clipPath id="SVGID_2_">
			<use xlink:href="#SVGID_1_"  style="overflow:visible;"/>
		</clipPath>
		
			<linearGradient id="SVGID_3_" gradientUnits="userSpaceOnUse" x1="-5877.6719" y1="3516.5303" x2="-5876.6719" y2="3516.5303" gradientTransform="matrix(21.5656 0 0 -21.5656 126890.4844 75846.7734)">
			<stop  offset="0" style="stop-color:#17928A"/>
			<stop  offset="1" style="stop-color:#20A5C9"/>
		</linearGradient>
		<rect x="135.3" class="st1" width="21.6" height="21.7"/>
	</g>
	<g>
		<defs>
			<path id="SVGID_4_" d="M111.8,9.5c-0.2-0.2-0.3-0.6-0.3-0.9c0-0.3,0.1-0.6,0.2-1c0.1-0.3,0.4-0.7,0.7-1c0.3-0.3,0.7-0.5,1.3-0.7
				c0.5-0.2,1.2-0.3,1.9-0.3c0.6,0,1.1,0.1,1.6,0.2c0.5,0.1,0.9,0.3,1.3,0.5c0.4,0.2,0.7,0.5,0.9,0.9c0.2,0.4,0.3,0.8,0.3,1.2
				c0,0.7-0.2,1.2-0.6,1.6c-0.4,0.4-1.1,0.7-2.1,0.9c1.1,0.1,1.9,0.5,2.4,1c0.5,0.5,0.8,1.2,0.8,1.9c0,0.6-0.1,1.1-0.4,1.6
				c-0.3,0.4-0.6,0.8-1.1,1.1c-0.4,0.3-1,0.5-1.6,0.6c-0.6,0.1-1.3,0.2-2,0.2c-0.7,0-1.3-0.1-1.8-0.3c-0.5-0.2-1-0.4-1.3-0.7
				c-0.4-0.3-0.6-0.6-0.8-0.9c-0.2-0.3-0.3-0.7-0.3-1c0-0.4,0.1-0.7,0.3-1c0.2-0.2,0.5-0.4,0.9-0.4c0.4,0,0.7,0.1,0.9,0.4
				c0.2,0.2,0.3,0.5,0.3,0.9c0,0.2-0.1,0.4-0.2,0.6c-0.2,0.2-0.4,0.3-0.6,0.3c0.1,0.3,0.5,0.5,0.9,0.7s1,0.3,1.6,0.3
				c0.8,0,1.4-0.2,1.9-0.6c0.4-0.4,0.6-0.9,0.6-1.6c0-0.9-0.3-1.6-0.8-2c-0.5-0.4-1.3-0.7-2.4-0.8l0.1-0.8c0.4,0,0.7-0.1,1-0.2
				c0.3-0.1,0.6-0.2,0.8-0.4c0.2-0.2,0.4-0.4,0.6-0.6c0.1-0.3,0.2-0.6,0.2-0.9c0-0.5-0.2-1-0.5-1.3c-0.3-0.3-0.9-0.5-1.7-0.5
				c-0.4,0-0.9,0.1-1.2,0.2c-0.4,0.2-0.7,0.4-0.9,0.7c0.3,0,0.5,0.1,0.7,0.3c0.2,0.2,0.3,0.4,0.3,0.7c0,0.3-0.1,0.6-0.3,0.9
				c-0.2,0.2-0.5,0.4-0.9,0.4C112.3,9.8,112,9.7,111.8,9.5 M115.5,0C109.8,0,105,4.7,105,10.5V11v10.9h10.3c0.1,0,0.1,0,0.2,0h0.8
				c0.1,0,0.1,0,0.2,0h0.8c5.3-0.5,9.5-5,9.5-10.5v-0.9c0-5.8-4.7-10.5-10.5-10.5H115.5z"/>
		</defs>
		<clipPath id="SVGID_5_">
			<use xlink:href="#SVGID_4_"  style="overflow:visible;"/>
		</clipPath>
		
			<linearGradient id="SVGID_6_" gradientUnits="userSpaceOnUse" x1="-5879.8271" y1="3516.0688" x2="-5878.8271" y2="3516.0688" gradientTransform="matrix(21.7362 0 0 -21.7362 127910.2734 76437)">
			<stop  offset="0" style="stop-color:#E5DC0C"/>
			<stop  offset="0.2622" style="stop-color:#E7BB0F"/>
			<stop  offset="0.5679" style="stop-color:#E99B11"/>
			<stop  offset="0.8248" style="stop-color:#EB8712"/>
			<stop  offset="1" style="stop-color:#EB8013"/>
		</linearGradient>
		<rect x="105" y="0" class="st2" width="21.7" height="21.9"/>
	</g>
</g>
</svg>
